<?xml version="1.0" encoding="UTF-8"?>
<svg xmlns="http://www.w3.org/2000/svg" xmlns:xlink="http://www.w3.org/1999/xlink" width="13px" height="14px" viewBox="0 0 13 13" version="1.1">
<g id="surface1">
<path style=" stroke:none;fill-rule:nonzero;fill:rgb(6.27451%,69.411767%,66.666669%);fill-opacity:1;" d="M 6.96875 -0.00390625 C 6.980469 -0.00390625 6.980469 -0.00390625 6.992188 -0.00390625 C 7.121094 -0.00390625 7.246094 0.00390625 7.371094 0.0273438 C 7.378906 0.0273438 7.386719 0.0273438 7.390625 0.03125 C 7.4375 0.0390625 7.480469 0.046875 7.523438 0.0585938 C 7.535156 0.0625 7.542969 0.0625 7.550781 0.0664062 C 7.710938 0.101562 7.859375 0.160156 8.003906 0.230469 C 8.015625 0.238281 8.015625 0.238281 8.027344 0.242188 C 8.074219 0.265625 8.121094 0.289062 8.164062 0.320312 C 8.171875 0.324219 8.179688 0.328125 8.1875 0.332031 C 8.375 0.449219 8.558594 0.59375 8.695312 0.761719 C 8.699219 0.765625 8.703125 0.773438 8.710938 0.777344 C 8.878906 0.976562 9 1.199219 9.085938 1.4375 C 9.085938 1.441406 9.085938 1.441406 9.089844 1.449219 C 9.136719 1.582031 9.164062 1.71875 9.175781 1.855469 C 9.175781 1.863281 9.179688 1.867188 9.179688 1.871094 C 9.179688 1.882812 9.179688 1.894531 9.179688 1.90625 C 9.179688 1.917969 9.183594 1.933594 9.183594 1.945312 C 9.191406 2.003906 9.195312 2.058594 9.15625 2.109375 C 9.132812 2.128906 9.109375 2.148438 9.085938 2.171875 C 9.078125 2.179688 9.066406 2.191406 9.058594 2.199219 C 9.03125 2.226562 9.003906 2.25 8.972656 2.273438 C 8.945312 2.300781 8.917969 2.328125 8.886719 2.355469 C 8.832031 2.40625 8.777344 2.457031 8.722656 2.507812 C 8.660156 2.5625 8.597656 2.621094 8.535156 2.675781 C 8.445312 2.761719 8.351562 2.847656 8.261719 2.929688 C 8.25 2.941406 8.238281 2.949219 8.230469 2.957031 C 8.214844 2.96875 8.203125 2.984375 8.1875 2.996094 C 8.183594 3 8.179688 3.003906 8.175781 3.003906 C 8.15625 3.027344 8.128906 3.046875 8.105469 3.066406 C 8.09375 3.074219 8.082031 3.085938 8.074219 3.097656 C 8.054688 3.117188 8.035156 3.136719 8.011719 3.152344 C 8.003906 3.160156 7.996094 3.167969 7.992188 3.175781 C 7.972656 3.195312 7.949219 3.210938 7.929688 3.230469 C 7.921875 3.238281 7.914062 3.246094 7.90625 3.253906 C 7.886719 3.273438 7.867188 3.289062 7.84375 3.308594 C 7.835938 3.316406 7.832031 3.324219 7.824219 3.332031 C 7.808594 3.347656 7.792969 3.359375 7.777344 3.375 C 7.746094 3.398438 7.71875 3.425781 7.691406 3.453125 C 7.683594 3.457031 7.679688 3.460938 7.671875 3.46875 C 7.65625 3.484375 7.636719 3.5 7.621094 3.519531 C 7.605469 3.53125 7.59375 3.542969 7.582031 3.554688 C 7.550781 3.582031 7.523438 3.605469 7.496094 3.632812 C 7.457031 3.671875 7.414062 3.710938 7.375 3.746094 C 7.308594 3.808594 7.242188 3.871094 7.175781 3.929688 C 7.171875 3.933594 7.167969 3.9375 7.164062 3.941406 C 7.136719 3.96875 7.109375 3.996094 7.082031 4.019531 C 7.050781 4.050781 7.015625 4.082031 6.984375 4.109375 C 6.980469 4.113281 6.976562 4.117188 6.972656 4.121094 C 6.90625 4.183594 6.839844 4.246094 6.777344 4.304688 C 6.734375 4.34375 6.695312 4.382812 6.65625 4.417969 C 6.628906 4.445312 6.597656 4.472656 6.570312 4.496094 C 6.554688 4.511719 6.539062 4.527344 6.523438 4.542969 C 6.507812 4.558594 6.488281 4.574219 6.472656 4.589844 C 6.464844 4.59375 6.460938 4.601562 6.457031 4.605469 C 6.4375 4.625 6.414062 4.640625 6.394531 4.660156 C 6.375 4.671875 6.367188 4.683594 6.355469 4.699219 C 6.347656 4.699219 6.34375 4.699219 6.339844 4.699219 C 6.335938 4.707031 6.332031 4.714844 6.324219 4.726562 C 6.320312 4.726562 6.316406 4.726562 6.3125 4.726562 C 6.308594 4.734375 6.300781 4.742188 6.296875 4.75 C 6.292969 4.75 6.289062 4.75 6.285156 4.75 C 6.28125 4.761719 6.273438 4.769531 6.269531 4.777344 C 6.265625 4.777344 6.261719 4.777344 6.257812 4.777344 C 6.25 4.785156 6.246094 4.792969 6.242188 4.804688 C 6.238281 4.804688 6.234375 4.804688 6.226562 4.804688 C 6.222656 4.8125 6.21875 4.820312 6.214844 4.828125 C 6.210938 4.828125 6.207031 4.828125 6.199219 4.828125 C 6.195312 4.839844 6.191406 4.847656 6.1875 4.855469 C 6.183594 4.855469 6.175781 4.855469 6.171875 4.855469 C 6.167969 4.863281 6.164062 4.871094 6.160156 4.882812 C 6.152344 4.882812 6.148438 4.882812 6.144531 4.882812 C 6.144531 4.886719 6.140625 4.890625 6.140625 4.890625 C 6.128906 4.910156 6.117188 4.917969 6.101562 4.929688 C 6.085938 4.945312 6.070312 4.957031 6.054688 4.972656 C 6.042969 4.980469 6.03125 4.992188 6.023438 5 C 6.015625 5.007812 6.011719 5.011719 6.003906 5.019531 C 5.746094 5.257812 5.746094 5.257812 5.730469 5.273438 C 5.710938 5.292969 5.691406 5.308594 5.671875 5.328125 C 5.664062 5.335938 5.65625 5.34375 5.648438 5.351562 C 5.644531 5.355469 5.640625 5.359375 5.636719 5.363281 C 5.539062 5.453125 5.441406 5.546875 5.34375 5.636719 C 5.285156 5.691406 5.230469 5.742188 5.171875 5.796875 C 5.125 5.839844 5.074219 5.886719 5.023438 5.933594 C 5 5.957031 4.972656 5.984375 4.945312 6.007812 C 4.921875 6.03125 4.898438 6.054688 4.875 6.074219 C 4.863281 6.085938 4.855469 6.09375 4.847656 6.101562 C 4.832031 6.113281 4.820312 6.125 4.808594 6.136719 C 4.804688 6.140625 4.800781 6.140625 4.796875 6.144531 C 4.773438 6.167969 4.773438 6.167969 4.757812 6.167969 C 4.757812 5.769531 4.757812 5.371094 4.757812 4.976562 C 4.757812 4.96875 4.757812 4.964844 4.757812 4.957031 C 4.757812 4.828125 4.757812 4.699219 4.757812 4.574219 C 4.757812 4.511719 4.757812 4.445312 4.757812 4.382812 C 4.757812 4.378906 4.757812 4.371094 4.757812 4.367188 C 4.757812 4.164062 4.757812 3.960938 4.757812 3.757812 C 4.757812 3.550781 4.757812 3.34375 4.757812 3.132812 C 4.757812 3.105469 4.757812 3.074219 4.757812 3.046875 C 4.757812 3.035156 4.757812 3.035156 4.757812 3.027344 C 4.757812 2.933594 4.757812 2.84375 4.757812 2.75 C 4.757812 2.65625 4.757812 2.5625 4.757812 2.46875 C 4.757812 2.414062 4.757812 2.355469 4.757812 2.300781 C 4.757812 2.265625 4.757812 2.226562 4.757812 2.191406 C 4.757812 2.167969 4.757812 2.148438 4.757812 2.125 C 4.757812 1.996094 4.757812 1.871094 4.78125 1.742188 C 4.78125 1.738281 4.78125 1.734375 4.785156 1.730469 C 4.796875 1.652344 4.8125 1.582031 4.835938 1.507812 C 4.835938 1.503906 4.839844 1.496094 4.839844 1.492188 C 4.863281 1.417969 4.886719 1.347656 4.917969 1.28125 C 4.921875 1.273438 4.925781 1.265625 4.929688 1.257812 C 4.980469 1.140625 5.042969 1.027344 5.121094 0.921875 C 5.125 0.917969 5.125 0.914062 5.128906 0.910156 C 5.207031 0.804688 5.296875 0.703125 5.390625 0.609375 C 5.394531 0.605469 5.402344 0.601562 5.40625 0.597656 C 5.457031 0.550781 5.507812 0.503906 5.566406 0.460938 C 5.574219 0.457031 5.582031 0.449219 5.589844 0.441406 C 5.644531 0.402344 5.703125 0.363281 5.761719 0.328125 C 5.777344 0.316406 5.789062 0.308594 5.804688 0.300781 C 5.867188 0.265625 5.929688 0.230469 6 0.203125 C 6.003906 0.199219 6.007812 0.195312 6.015625 0.195312 C 6.316406 0.0625 6.632812 -0.00390625 6.96875 -0.00390625 Z M 6.96875 -0.00390625 "/>
<path style=" stroke:none;fill-rule:nonzero;fill:rgb(6.27451%,69.411767%,66.666669%);fill-opacity:1;" d="M 4.757812 6.84375 C 4.792969 6.851562 4.808594 6.871094 4.832031 6.890625 C 4.839844 6.898438 4.839844 6.898438 4.847656 6.90625 C 4.863281 6.917969 4.875 6.933594 4.890625 6.949219 C 4.902344 6.957031 4.914062 6.96875 4.925781 6.980469 C 4.949219 7 4.972656 7.023438 4.996094 7.046875 C 5.035156 7.082031 5.070312 7.117188 5.109375 7.152344 C 5.160156 7.199219 5.214844 7.25 5.265625 7.300781 C 5.320312 7.351562 5.375 7.398438 5.429688 7.449219 C 5.433594 7.453125 5.4375 7.457031 5.441406 7.460938 C 5.496094 7.511719 5.550781 7.566406 5.605469 7.617188 C 5.644531 7.652344 5.683594 7.6875 5.71875 7.722656 C 5.742188 7.742188 5.765625 7.765625 5.789062 7.785156 C 5.800781 7.796875 5.808594 7.808594 5.820312 7.816406 C 5.835938 7.832031 5.851562 7.84375 5.867188 7.859375 C 5.871094 7.863281 5.875 7.867188 5.878906 7.871094 C 5.898438 7.890625 5.921875 7.910156 5.941406 7.925781 C 5.972656 7.949219 6 7.976562 6.027344 8 C 6.03125 8.003906 6.035156 8.011719 6.042969 8.015625 C 6.058594 8.03125 6.078125 8.046875 6.09375 8.0625 C 6.105469 8.074219 6.117188 8.085938 6.132812 8.097656 C 6.160156 8.125 6.1875 8.148438 6.210938 8.175781 C 6.25 8.210938 6.289062 8.246094 6.328125 8.285156 C 6.394531 8.34375 6.457031 8.402344 6.519531 8.460938 C 6.582031 8.519531 6.644531 8.578125 6.707031 8.632812 C 6.707031 8.636719 6.710938 8.640625 6.714844 8.644531 C 6.734375 8.664062 6.753906 8.679688 6.773438 8.699219 C 6.90625 8.820312 7.035156 8.945312 7.167969 9.066406 C 7.171875 9.070312 7.179688 9.078125 7.183594 9.082031 C 7.195312 9.089844 7.203125 9.101562 7.214844 9.109375 C 7.234375 9.128906 7.253906 9.144531 7.273438 9.164062 C 7.289062 9.179688 7.304688 9.191406 7.320312 9.207031 C 7.347656 9.234375 7.378906 9.265625 7.410156 9.292969 C 7.425781 9.308594 7.445312 9.324219 7.464844 9.34375 C 7.480469 9.359375 7.5 9.375 7.515625 9.390625 C 7.523438 9.398438 7.527344 9.40625 7.535156 9.410156 C 7.546875 9.417969 7.554688 9.429688 7.5625 9.4375 C 7.570312 9.441406 7.574219 9.445312 7.578125 9.453125 C 7.59375 9.464844 7.59375 9.464844 7.613281 9.476562 C 7.613281 9.480469 7.613281 9.484375 7.613281 9.488281 C 7.625 9.496094 7.632812 9.5 7.640625 9.503906 C 7.640625 9.507812 7.640625 9.511719 7.640625 9.515625 C 7.652344 9.519531 7.660156 9.523438 7.671875 9.527344 C 7.671875 9.535156 7.671875 9.539062 7.671875 9.542969 C 7.679688 9.546875 7.6875 9.550781 7.699219 9.554688 C 7.699219 9.558594 7.699219 9.5625 7.699219 9.566406 C 7.707031 9.574219 7.714844 9.578125 7.726562 9.582031 C 7.726562 9.585938 7.726562 9.589844 7.726562 9.59375 C 7.734375 9.597656 7.746094 9.601562 7.753906 9.605469 C 7.753906 9.609375 7.753906 9.617188 7.753906 9.621094 C 7.761719 9.625 7.773438 9.628906 7.78125 9.632812 C 7.78125 9.636719 7.78125 9.640625 7.78125 9.644531 C 7.792969 9.648438 7.800781 9.65625 7.808594 9.660156 C 7.808594 9.664062 7.808594 9.667969 7.808594 9.671875 C 7.816406 9.675781 7.816406 9.675781 7.820312 9.675781 C 7.839844 9.6875 7.851562 9.699219 7.863281 9.714844 C 7.875 9.726562 7.890625 9.742188 7.910156 9.753906 C 7.921875 9.761719 7.933594 9.773438 7.945312 9.785156 C 7.964844 9.804688 7.988281 9.824219 8.007812 9.84375 C 8.015625 9.851562 8.027344 9.859375 8.039062 9.871094 C 8.042969 9.875 8.050781 9.878906 8.054688 9.886719 C 8.179688 10 8.304688 10.113281 8.425781 10.226562 C 8.445312 10.246094 8.464844 10.261719 8.484375 10.277344 C 8.484375 10.28125 8.488281 10.285156 8.492188 10.289062 C 8.550781 10.34375 8.613281 10.398438 8.671875 10.453125 C 8.730469 10.507812 8.792969 10.5625 8.855469 10.621094 C 8.890625 10.65625 8.929688 10.6875 8.964844 10.722656 C 8.996094 10.75 9.023438 10.777344 9.050781 10.804688 C 9.0625 10.8125 9.074219 10.824219 9.085938 10.835938 C 9.1875 10.921875 9.1875 10.921875 9.191406 10.996094 C 9.1875 11.015625 9.1875 11.039062 9.183594 11.0625 C 9.183594 11.078125 9.179688 11.097656 9.179688 11.117188 C 9.179688 11.125 9.179688 11.136719 9.175781 11.148438 C 9.175781 11.15625 9.175781 11.15625 9.175781 11.167969 C 9.148438 11.429688 9.058594 11.6875 8.925781 11.921875 C 8.921875 11.929688 8.921875 11.929688 8.917969 11.933594 C 8.851562 12.050781 8.769531 12.15625 8.679688 12.257812 C 8.675781 12.261719 8.675781 12.265625 8.671875 12.269531 C 8.625 12.324219 8.574219 12.371094 8.523438 12.421875 C 8.515625 12.425781 8.511719 12.429688 8.503906 12.4375 C 8.464844 12.476562 8.421875 12.511719 8.375 12.546875 C 8.371094 12.546875 8.363281 12.550781 8.359375 12.554688 C 8.308594 12.59375 8.261719 12.628906 8.207031 12.660156 C 8.199219 12.667969 8.199219 12.667969 8.195312 12.671875 C 7.96875 12.808594 7.722656 12.90625 7.460938 12.960938 C 7.453125 12.964844 7.445312 12.964844 7.441406 12.96875 C 7.417969 12.972656 7.394531 12.976562 7.371094 12.980469 C 7.363281 12.980469 7.363281 12.980469 7.355469 12.984375 C 7.242188 13.003906 7.125 13.003906 7.007812 13.003906 C 6.984375 13.003906 6.960938 13.003906 6.9375 13.003906 C 6.4375 13.007812 5.941406 12.84375 5.558594 12.539062 C 5.550781 12.53125 5.550781 12.53125 5.539062 12.523438 C 5.4375 12.445312 5.339844 12.355469 5.261719 12.257812 C 5.253906 12.253906 5.246094 12.246094 5.242188 12.238281 C 5.195312 12.183594 5.148438 12.125 5.105469 12.0625 C 5.101562 12.058594 5.097656 12.050781 5.09375 12.042969 C 4.925781 11.804688 4.824219 11.53125 4.777344 11.246094 C 4.777344 11.242188 4.773438 11.234375 4.773438 11.226562 C 4.753906 11.105469 4.757812 10.984375 4.757812 10.863281 C 4.757812 10.84375 4.757812 10.828125 4.757812 10.8125 C 4.757812 10.773438 4.757812 10.734375 4.757812 10.699219 C 4.757812 10.640625 4.757812 10.585938 4.757812 10.53125 C 4.757812 10.4375 4.757812 10.339844 4.757812 10.246094 C 4.757812 10.15625 4.757812 10.0625 4.757812 9.96875 C 4.757812 9.960938 4.757812 9.957031 4.757812 9.949219 C 4.757812 9.921875 4.757812 9.890625 4.757812 9.863281 C 4.757812 9.652344 4.757812 9.445312 4.757812 9.238281 C 4.757812 9.035156 4.757812 8.832031 4.757812 8.628906 C 4.757812 8.621094 4.757812 8.617188 4.757812 8.609375 C 4.757812 8.546875 4.757812 8.484375 4.757812 8.421875 C 4.757812 8.292969 4.757812 8.167969 4.757812 8.039062 C 4.757812 8.03125 4.757812 8.027344 4.757812 8.019531 C 4.757812 7.628906 4.757812 7.238281 4.757812 6.84375 Z M 4.757812 6.84375 "/>
<path style=" stroke:none;fill-rule:nonzero;fill:rgb(6.27451%,69.411767%,66.666669%);fill-opacity:1;" d="M 2.300781 4.4375 C 2.328125 4.4375 2.359375 4.4375 2.386719 4.4375 C 2.4375 4.4375 2.492188 4.4375 2.546875 4.4375 C 2.609375 4.4375 2.671875 4.4375 2.734375 4.4375 C 2.898438 4.4375 3.066406 4.4375 3.230469 4.4375 C 3.597656 4.4375 3.96875 4.4375 4.347656 4.441406 C 4.347656 5.800781 4.347656 7.164062 4.347656 8.566406 C 3.976562 8.566406 3.605469 8.566406 3.222656 8.566406 C 3.046875 8.566406 3.046875 8.566406 2.867188 8.566406 C 2.722656 8.566406 2.722656 8.566406 2.65625 8.566406 C 2.609375 8.566406 2.5625 8.566406 2.515625 8.570312 C 2.460938 8.570312 2.40625 8.570312 2.355469 8.570312 C 2.324219 8.570312 2.296875 8.570312 2.269531 8.570312 C 2.121094 8.570312 1.96875 8.566406 1.820312 8.539062 C 1.8125 8.539062 1.804688 8.535156 1.796875 8.535156 C 1.507812 8.484375 1.230469 8.382812 0.988281 8.230469 C 0.980469 8.222656 0.972656 8.21875 0.964844 8.214844 C 0.890625 8.164062 0.816406 8.113281 0.746094 8.054688 C 0.734375 8.042969 0.71875 8.03125 0.703125 8.019531 C 0.675781 7.996094 0.652344 7.972656 0.628906 7.949219 C 0.617188 7.9375 0.605469 7.929688 0.589844 7.917969 C 0.578125 7.902344 0.578125 7.902344 0.578125 7.890625 C 0.570312 7.890625 0.5625 7.886719 0.558594 7.882812 C 0.539062 7.867188 0.523438 7.84375 0.503906 7.824219 C 0.492188 7.8125 0.484375 7.800781 0.472656 7.785156 C 0.417969 7.726562 0.371094 7.664062 0.328125 7.597656 C 0.320312 7.585938 0.316406 7.578125 0.308594 7.566406 C 0.269531 7.511719 0.238281 7.453125 0.210938 7.394531 C 0.203125 7.378906 0.195312 7.367188 0.191406 7.355469 C 0.136719 7.253906 0.0976562 7.148438 0.0703125 7.039062 C 0.0664062 7.035156 0.0664062 7.027344 0.0664062 7.023438 C 0.0195312 6.851562 -0.00390625 6.683594 -0.00390625 6.507812 C -0.00390625 6.5 -0.00390625 6.492188 -0.00390625 6.488281 C -0.00390625 6.367188 0.00390625 6.253906 0.0273438 6.136719 C 0.0273438 6.128906 0.03125 6.121094 0.03125 6.117188 C 0.101562 5.777344 0.261719 5.460938 0.496094 5.195312 C 0.5 5.1875 0.5 5.1875 0.503906 5.183594 C 0.550781 5.128906 0.601562 5.078125 0.65625 5.027344 C 0.660156 5.023438 0.667969 5.015625 0.675781 5.011719 C 0.71875 4.972656 0.761719 4.9375 0.808594 4.902344 C 0.816406 4.894531 0.824219 4.886719 0.832031 4.882812 C 0.929688 4.8125 1.03125 4.75 1.136719 4.695312 C 1.148438 4.6875 1.160156 4.679688 1.171875 4.671875 C 1.375 4.566406 1.605469 4.5 1.832031 4.464844 C 1.839844 4.464844 1.84375 4.464844 1.851562 4.460938 C 1.871094 4.460938 1.886719 4.457031 1.90625 4.453125 C 1.910156 4.453125 1.914062 4.453125 1.917969 4.453125 C 2.046875 4.433594 2.175781 4.4375 2.300781 4.4375 Z M 2.300781 4.4375 "/>
<path style=" stroke:none;fill-rule:nonzero;fill:rgb(81.960785%,85.882354%,14.901961%);fill-opacity:1;" d="M 11.042969 1.714844 C 11.050781 1.714844 11.050781 1.714844 11.0625 1.714844 C 11.433594 1.730469 11.824219 1.832031 12.121094 2.039062 C 12.128906 2.042969 12.132812 2.046875 12.140625 2.054688 C 12.226562 2.109375 12.308594 2.171875 12.386719 2.242188 C 12.390625 2.246094 12.394531 2.25 12.402344 2.253906 C 12.457031 2.308594 12.511719 2.359375 12.5625 2.417969 C 12.566406 2.425781 12.570312 2.429688 12.578125 2.4375 C 12.730469 2.617188 12.84375 2.824219 12.917969 3.042969 C 12.921875 3.058594 12.925781 3.070312 12.933594 3.085938 C 12.949219 3.136719 12.960938 3.1875 12.96875 3.238281 C 12.972656 3.246094 12.972656 3.253906 12.972656 3.261719 C 12.996094 3.371094 13.003906 3.480469 13.003906 3.59375 C 13.003906 3.601562 13.003906 3.601562 13.003906 3.613281 C 13.003906 3.726562 12.996094 3.839844 12.972656 3.953125 C 12.96875 3.960938 12.96875 3.960938 12.96875 3.972656 C 12.90625 4.25 12.785156 4.515625 12.597656 4.738281 C 12.589844 4.746094 12.589844 4.746094 12.582031 4.753906 C 12.554688 4.789062 12.523438 4.820312 12.492188 4.851562 C 12.484375 4.863281 12.472656 4.875 12.460938 4.882812 C 12.433594 4.914062 12.402344 4.945312 12.367188 4.976562 C 12.367188 4.980469 12.363281 4.984375 12.359375 4.988281 C 12.339844 5.003906 12.320312 5.019531 12.300781 5.035156 C 12.261719 5.070312 12.226562 5.101562 12.1875 5.136719 C 12.175781 5.152344 12.160156 5.164062 12.148438 5.175781 C 12.109375 5.210938 12.074219 5.246094 12.035156 5.28125 C 12.011719 5.304688 11.988281 5.324219 11.964844 5.347656 C 11.957031 5.355469 11.949219 5.363281 11.9375 5.371094 C 11.925781 5.382812 11.914062 5.394531 11.902344 5.40625 C 11.898438 5.410156 11.894531 5.414062 11.890625 5.417969 C 11.867188 5.441406 11.867188 5.441406 11.851562 5.441406 C 11.847656 5.445312 11.847656 5.453125 11.84375 5.460938 C 11.832031 5.46875 11.824219 5.476562 11.8125 5.484375 C 11.796875 5.496094 11.78125 5.511719 11.765625 5.523438 C 11.761719 5.53125 11.753906 5.539062 11.746094 5.542969 C 11.738281 5.550781 11.730469 5.558594 11.722656 5.566406 C 11.679688 5.605469 11.636719 5.648438 11.59375 5.6875 C 11.566406 5.710938 11.539062 5.738281 11.515625 5.761719 C 11.488281 5.785156 11.460938 5.808594 11.4375 5.832031 C 11.425781 5.84375 11.417969 5.851562 11.410156 5.859375 C 11.394531 5.871094 11.382812 5.886719 11.367188 5.898438 C 11.363281 5.902344 11.359375 5.90625 11.355469 5.910156 C 11.335938 5.929688 11.316406 5.945312 11.292969 5.960938 C 11.265625 5.984375 11.246094 6.011719 11.226562 6.039062 C 11.144531 6.15625 11.03125 6.28125 10.875 6.3125 C 10.671875 6.34375 10.457031 6.328125 10.253906 6.320312 C 10.167969 6.316406 10.078125 6.316406 9.992188 6.316406 C 9.859375 6.3125 9.726562 6.308594 9.589844 6.304688 C 9.585938 6.304688 9.578125 6.304688 9.570312 6.304688 C 9.550781 6.304688 9.535156 6.300781 9.515625 6.300781 C 9.511719 6.300781 9.503906 6.300781 9.5 6.300781 C 9.460938 6.300781 9.460938 6.300781 9.453125 6.292969 C 9.453125 6.269531 9.453125 6.25 9.453125 6.230469 C 9.453125 6.222656 9.453125 6.21875 9.453125 6.210938 C 9.453125 6.1875 9.453125 6.164062 9.453125 6.144531 C 9.453125 6.128906 9.453125 6.109375 9.453125 6.09375 C 9.453125 6.054688 9.449219 6.015625 9.449219 5.976562 C 9.449219 5.941406 9.449219 5.910156 9.449219 5.875 C 9.445312 5.511719 9.445312 5.148438 9.445312 4.78125 C 9.445312 4.730469 9.445312 4.675781 9.445312 4.625 C 9.445312 4.617188 9.445312 4.613281 9.445312 4.605469 C 9.441406 4.417969 9.441406 4.226562 9.441406 4.039062 C 9.4375 3.84375 9.4375 3.648438 9.4375 3.453125 C 9.4375 3.425781 9.4375 3.398438 9.4375 3.371094 C 9.4375 3.367188 9.4375 3.359375 9.4375 3.355469 C 9.4375 3.269531 9.4375 3.179688 9.433594 3.09375 C 9.433594 3.007812 9.433594 2.917969 9.433594 2.832031 C 9.433594 2.785156 9.433594 2.738281 9.433594 2.6875 C 9.425781 2.371094 9.425781 2.371094 9.515625 2.285156 C 9.542969 2.257812 9.574219 2.238281 9.605469 2.21875 C 9.640625 2.195312 9.671875 2.171875 9.703125 2.144531 C 9.773438 2.09375 9.839844 2.046875 9.914062 2.003906 C 9.917969 2 9.921875 1.996094 9.925781 1.996094 C 10.09375 1.894531 10.289062 1.816406 10.484375 1.773438 C 10.488281 1.773438 10.496094 1.773438 10.5 1.769531 C 10.53125 1.765625 10.5625 1.757812 10.59375 1.75 C 10.609375 1.75 10.625 1.746094 10.636719 1.742188 C 10.769531 1.71875 10.910156 1.710938 11.042969 1.714844 Z M 11.042969 1.714844 "/>
<path style=" stroke:none;fill-rule:nonzero;fill:rgb(81.960785%,85.882354%,14.901961%);fill-opacity:1;" d="M 9.511719 6.738281 C 9.523438 6.738281 9.523438 6.738281 9.53125 6.738281 C 9.550781 6.738281 9.566406 6.738281 9.585938 6.734375 C 9.597656 6.734375 9.597656 6.734375 9.605469 6.734375 C 9.738281 6.730469 9.867188 6.730469 10 6.726562 C 10.082031 6.726562 10.164062 6.726562 10.25 6.722656 C 10.320312 6.71875 10.394531 6.71875 10.464844 6.71875 C 10.503906 6.71875 10.542969 6.71875 10.582031 6.714844 C 10.71875 6.710938 10.835938 6.707031 10.945312 6.792969 C 11.007812 6.847656 11.070312 6.90625 11.117188 6.972656 C 11.117188 6.980469 11.117188 6.984375 11.117188 6.988281 C 11.125 6.988281 11.132812 6.992188 11.140625 6.992188 C 11.148438 7.003906 11.15625 7.011719 11.164062 7.023438 C 11.179688 7.039062 11.195312 7.050781 11.210938 7.066406 C 11.21875 7.074219 11.21875 7.074219 11.226562 7.082031 C 11.234375 7.085938 11.238281 7.09375 11.246094 7.097656 C 11.28125 7.132812 11.3125 7.164062 11.347656 7.195312 C 11.371094 7.214844 11.390625 7.234375 11.410156 7.253906 C 11.429688 7.273438 11.453125 7.289062 11.472656 7.308594 C 11.480469 7.316406 11.488281 7.324219 11.496094 7.332031 C 11.5625 7.394531 11.5625 7.394531 11.589844 7.421875 C 11.621094 7.457031 11.65625 7.488281 11.691406 7.523438 C 11.703125 7.535156 11.714844 7.546875 11.730469 7.558594 C 11.757812 7.582031 11.785156 7.609375 11.8125 7.632812 C 11.84375 7.664062 11.875 7.695312 11.90625 7.722656 C 11.921875 7.734375 11.933594 7.746094 11.945312 7.757812 C 11.980469 7.789062 12.015625 7.824219 12.046875 7.859375 C 12.074219 7.886719 12.101562 7.910156 12.128906 7.9375 C 12.140625 7.949219 12.152344 7.957031 12.164062 7.96875 C 12.1875 7.992188 12.210938 8.015625 12.238281 8.039062 C 12.265625 8.0625 12.292969 8.089844 12.324219 8.117188 C 12.332031 8.128906 12.34375 8.136719 12.355469 8.148438 C 12.394531 8.183594 12.429688 8.21875 12.464844 8.253906 C 12.46875 8.261719 12.476562 8.269531 12.484375 8.277344 C 12.679688 8.484375 12.824219 8.742188 12.898438 9.007812 C 12.902344 9.023438 12.910156 9.042969 12.914062 9.058594 C 13.042969 9.515625 12.953125 10.035156 12.703125 10.445312 C 12.664062 10.507812 12.621094 10.5625 12.574219 10.621094 C 12.570312 10.625 12.570312 10.628906 12.566406 10.632812 C 12.53125 10.679688 12.488281 10.722656 12.449219 10.765625 C 12.425781 10.789062 12.402344 10.8125 12.378906 10.835938 C 12.367188 10.847656 12.351562 10.863281 12.339844 10.875 C 12.332031 10.875 12.328125 10.875 12.324219 10.875 C 12.324219 10.878906 12.324219 10.882812 12.324219 10.886719 C 12.3125 10.898438 12.3125 10.898438 12.300781 10.90625 C 12.296875 10.910156 12.292969 10.914062 12.289062 10.917969 C 12.277344 10.925781 12.277344 10.925781 12.261719 10.925781 C 12.261719 10.929688 12.261719 10.933594 12.261719 10.941406 C 12.25 10.949219 12.238281 10.957031 12.222656 10.96875 C 12.21875 10.972656 12.214844 10.972656 12.210938 10.976562 C 12.132812 11.03125 12.050781 11.085938 11.960938 11.132812 C 11.953125 11.140625 11.941406 11.144531 11.929688 11.152344 C 11.875 11.179688 11.824219 11.207031 11.765625 11.226562 C 11.761719 11.230469 11.757812 11.230469 11.75 11.234375 C 11.597656 11.296875 11.441406 11.335938 11.277344 11.363281 C 11.269531 11.363281 11.269531 11.363281 11.257812 11.367188 C 11.160156 11.382812 11.054688 11.382812 10.953125 11.382812 C 10.945312 11.382812 10.945312 11.382812 10.9375 11.382812 C 10.613281 11.382812 10.304688 11.316406 10.019531 11.171875 C 10.007812 11.167969 10 11.164062 9.992188 11.160156 C 9.835938 11.089844 9.691406 10.984375 9.566406 10.875 C 9.550781 10.859375 9.539062 10.851562 9.519531 10.839844 C 9.480469 10.808594 9.453125 10.78125 9.445312 10.738281 C 9.441406 10.695312 9.441406 10.652344 9.441406 10.609375 C 9.441406 10.589844 9.441406 10.574219 9.441406 10.558594 C 9.441406 10.523438 9.441406 10.484375 9.441406 10.449219 C 9.445312 10.394531 9.445312 10.339844 9.445312 10.289062 C 9.441406 10.199219 9.445312 10.105469 9.445312 10.015625 C 9.445312 9.925781 9.445312 9.835938 9.445312 9.75 C 9.445312 9.738281 9.445312 9.738281 9.445312 9.730469 C 9.445312 9.703125 9.445312 9.675781 9.445312 9.644531 C 9.445312 9.445312 9.445312 9.246094 9.445312 9.046875 C 9.449219 8.851562 9.449219 8.65625 9.449219 8.460938 C 9.449219 8.457031 9.449219 8.449219 9.449219 8.445312 C 9.449219 8.390625 9.449219 8.335938 9.449219 8.28125 C 9.449219 7.90625 9.449219 7.535156 9.453125 7.160156 C 9.453125 7.125 9.453125 7.09375 9.453125 7.058594 C 9.453125 7.011719 9.453125 6.96875 9.453125 6.925781 C 9.453125 6.910156 9.453125 6.890625 9.453125 6.875 C 9.453125 6.855469 9.453125 6.832031 9.453125 6.808594 C 9.453125 6.804688 9.453125 6.796875 9.453125 6.789062 C 9.453125 6.785156 9.453125 6.78125 9.453125 6.773438 C 9.453125 6.765625 9.453125 6.765625 9.453125 6.757812 C 9.457031 6.730469 9.488281 6.738281 9.511719 6.738281 Z M 9.511719 6.738281 "/>
<path style=" stroke:none;fill-rule:nonzero;fill:rgb(81.960785%,85.882354%,14.901961%);fill-opacity:1;" d="M 5.21875 6.742188 C 5.585938 6.742188 5.953125 6.742188 6.316406 6.738281 C 6.324219 6.738281 6.328125 6.738281 6.335938 6.738281 C 6.453125 6.738281 6.570312 6.738281 6.6875 6.738281 C 6.746094 6.738281 6.804688 6.738281 6.859375 6.738281 C 6.867188 6.738281 6.871094 6.738281 6.878906 6.738281 C 7.066406 6.738281 7.25 6.738281 7.4375 6.738281 C 7.628906 6.738281 7.820312 6.738281 8.011719 6.738281 C 8.039062 6.738281 8.066406 6.738281 8.09375 6.738281 C 8.097656 6.738281 8.105469 6.738281 8.109375 6.738281 C 8.195312 6.738281 8.28125 6.738281 8.367188 6.738281 C 8.453125 6.738281 8.539062 6.738281 8.625 6.738281 C 8.671875 6.738281 8.71875 6.738281 8.765625 6.738281 C 8.808594 6.738281 8.851562 6.738281 8.894531 6.738281 C 8.910156 6.738281 8.925781 6.738281 8.941406 6.738281 C 8.960938 6.738281 8.980469 6.738281 9.003906 6.738281 C 9.011719 6.738281 9.011719 6.738281 9.023438 6.738281 C 9.0625 6.738281 9.0625 6.738281 9.070312 6.746094 C 9.070312 6.765625 9.070312 6.785156 9.070312 6.804688 C 9.070312 6.8125 9.070312 6.816406 9.070312 6.824219 C 9.070312 6.84375 9.070312 6.863281 9.070312 6.886719 C 9.070312 6.902344 9.070312 6.914062 9.070312 6.929688 C 9.070312 6.96875 9.070312 7.003906 9.070312 7.042969 C 9.070312 7.085938 9.070312 7.132812 9.070312 7.175781 C 9.070312 7.257812 9.070312 7.339844 9.070312 7.421875 C 9.070312 7.503906 9.070312 7.585938 9.070312 7.664062 C 9.070312 7.671875 9.070312 7.675781 9.070312 7.679688 C 9.070312 7.707031 9.070312 7.730469 9.070312 7.757812 C 9.070312 7.9375 9.070312 8.121094 9.070312 8.300781 C 9.070312 8.480469 9.070312 8.65625 9.070312 8.832031 C 9.070312 8.839844 9.070312 8.839844 9.070312 8.847656 C 9.070312 8.902344 9.070312 8.957031 9.070312 9.011719 C 9.070312 9.125 9.070312 9.234375 9.070312 9.347656 C 9.070312 9.351562 9.070312 9.355469 9.070312 9.363281 C 9.070312 9.703125 9.070312 10.046875 9.070312 10.386719 C 9.039062 10.382812 9.023438 10.363281 9 10.34375 C 8.996094 10.339844 8.992188 10.335938 8.988281 10.328125 C 8.976562 10.320312 8.96875 10.3125 8.960938 10.304688 C 8.945312 10.292969 8.933594 10.28125 8.921875 10.265625 C 8.910156 10.257812 8.902344 10.25 8.894531 10.242188 C 8.890625 10.238281 8.886719 10.234375 8.882812 10.230469 C 8.863281 10.210938 8.84375 10.191406 8.824219 10.171875 C 8.796875 10.144531 8.769531 10.121094 8.742188 10.09375 C 8.738281 10.089844 8.734375 10.085938 8.726562 10.078125 C 8.710938 10.066406 8.695312 10.050781 8.679688 10.035156 C 8.667969 10.023438 8.65625 10.015625 8.648438 10.003906 C 8.621094 9.980469 8.597656 9.960938 8.574219 9.9375 C 8.5625 9.925781 8.554688 9.917969 8.542969 9.90625 C 8.53125 9.894531 8.515625 9.886719 8.503906 9.875 C 8.484375 9.859375 8.472656 9.847656 8.457031 9.828125 C 8.429688 9.800781 8.402344 9.773438 8.375 9.75 C 8.371094 9.742188 8.367188 9.738281 8.363281 9.734375 C 8.339844 9.710938 8.316406 9.691406 8.289062 9.671875 C 8.285156 9.664062 8.277344 9.65625 8.269531 9.648438 C 8.253906 9.628906 8.234375 9.613281 8.214844 9.59375 C 8.207031 9.585938 8.199219 9.582031 8.191406 9.574219 C 8.1875 9.570312 8.183594 9.566406 8.179688 9.5625 C 8.125 9.507812 8.125 9.507812 8.105469 9.492188 C 8.089844 9.476562 8.070312 9.460938 8.054688 9.445312 C 8.042969 9.433594 8.03125 9.425781 8.023438 9.417969 C 8.015625 9.410156 8.007812 9.402344 8.003906 9.398438 C 7.992188 9.386719 7.980469 9.378906 7.972656 9.371094 C 7.964844 9.359375 7.964844 9.359375 7.953125 9.351562 C 7.941406 9.339844 7.925781 9.324219 7.914062 9.3125 C 7.878906 9.273438 7.84375 9.242188 7.808594 9.207031 C 7.792969 9.195312 7.78125 9.183594 7.769531 9.171875 C 7.738281 9.144531 7.710938 9.117188 7.683594 9.09375 C 7.652344 9.0625 7.617188 9.03125 7.585938 9 C 7.574219 8.988281 7.558594 8.976562 7.546875 8.964844 C 7.539062 8.957031 7.53125 8.949219 7.523438 8.941406 C 7.519531 8.941406 7.515625 8.9375 7.511719 8.933594 C 7.488281 8.910156 7.46875 8.890625 7.449219 8.867188 C 7.4375 8.855469 7.4375 8.855469 7.425781 8.847656 C 7.40625 8.832031 7.390625 8.820312 7.378906 8.804688 C 7.347656 8.773438 7.316406 8.746094 7.285156 8.714844 C 7.277344 8.707031 7.265625 8.695312 7.253906 8.6875 C 7.234375 8.667969 7.210938 8.644531 7.191406 8.625 C 7.164062 8.601562 7.136719 8.578125 7.113281 8.554688 C 7.101562 8.542969 7.09375 8.535156 7.082031 8.527344 C 7.054688 8.5 7.03125 8.476562 7.007812 8.449219 C 6.972656 8.414062 6.9375 8.382812 6.902344 8.351562 C 6.890625 8.339844 6.875 8.324219 6.863281 8.3125 C 6.835938 8.289062 6.808594 8.261719 6.777344 8.234375 C 6.746094 8.207031 6.714844 8.175781 6.679688 8.144531 C 6.667969 8.132812 6.65625 8.121094 6.640625 8.109375 C 6.609375 8.078125 6.574219 8.042969 6.542969 8.007812 C 6.511719 7.976562 6.480469 7.949219 6.449219 7.921875 C 6.4375 7.910156 6.421875 7.898438 6.410156 7.882812 C 6.382812 7.859375 6.355469 7.832031 6.324219 7.804688 C 6.292969 7.777344 6.261719 7.746094 6.226562 7.714844 C 6.214844 7.703125 6.203125 7.691406 6.191406 7.679688 C 6.125 7.621094 6.125 7.621094 6.097656 7.59375 C 6.066406 7.558594 6.03125 7.523438 5.996094 7.492188 C 5.984375 7.480469 5.96875 7.46875 5.957031 7.453125 C 5.929688 7.429688 5.898438 7.402344 5.871094 7.375 C 5.839844 7.347656 5.808594 7.316406 5.773438 7.285156 C 5.761719 7.273438 5.75 7.261719 5.734375 7.25 C 5.726562 7.242188 5.71875 7.234375 5.710938 7.226562 C 5.707031 7.222656 5.703125 7.21875 5.699219 7.21875 C 5.683594 7.203125 5.667969 7.183594 5.652344 7.167969 C 5.636719 7.152344 5.621094 7.140625 5.605469 7.125 C 5.59375 7.117188 5.582031 7.105469 5.574219 7.09375 C 5.542969 7.0625 5.511719 7.035156 5.480469 7.003906 C 5.46875 6.992188 5.457031 6.984375 5.449219 6.972656 C 5.417969 6.945312 5.386719 6.917969 5.355469 6.890625 C 5.335938 6.871094 5.316406 6.855469 5.296875 6.835938 C 5.292969 6.832031 5.285156 6.824219 5.277344 6.816406 C 5.265625 6.808594 5.257812 6.796875 5.246094 6.789062 C 5.242188 6.785156 5.234375 6.777344 5.230469 6.773438 C 5.21875 6.761719 5.21875 6.761719 5.21875 6.742188 Z M 5.21875 6.742188 "/>
<path style=" stroke:none;fill-rule:nonzero;fill:rgb(81.960785%,85.882354%,14.901961%);fill-opacity:1;" d="M 9.070312 2.738281 C 9.070312 3.910156 9.070312 5.085938 9.070312 6.296875 C 7.789062 6.296875 6.507812 6.296875 5.191406 6.296875 C 5.203125 6.269531 5.222656 6.253906 5.246094 6.230469 C 5.25 6.226562 5.253906 6.222656 5.257812 6.21875 C 5.273438 6.207031 5.289062 6.195312 5.300781 6.179688 C 5.3125 6.171875 5.320312 6.160156 5.332031 6.152344 C 5.351562 6.132812 5.371094 6.113281 5.394531 6.09375 C 5.417969 6.070312 5.445312 6.046875 5.472656 6.019531 C 5.492188 6.003906 5.511719 5.984375 5.535156 5.964844 C 5.542969 5.953125 5.554688 5.945312 5.5625 5.9375 C 5.578125 5.925781 5.589844 5.910156 5.605469 5.898438 C 5.609375 5.894531 5.613281 5.890625 5.617188 5.886719 C 5.640625 5.867188 5.664062 5.847656 5.6875 5.828125 C 5.699219 5.816406 5.699219 5.816406 5.714844 5.796875 C 5.730469 5.78125 5.742188 5.769531 5.757812 5.757812 C 5.792969 5.730469 5.828125 5.699219 5.863281 5.667969 C 5.867188 5.660156 5.875 5.652344 5.882812 5.648438 C 5.902344 5.625 5.925781 5.605469 5.945312 5.585938 C 5.972656 5.5625 5.996094 5.539062 6.019531 5.515625 C 6.03125 5.507812 6.039062 5.5 6.050781 5.488281 C 6.082031 5.460938 6.113281 5.429688 6.148438 5.40625 C 6.160156 5.394531 6.160156 5.394531 6.175781 5.375 C 6.191406 5.359375 6.203125 5.347656 6.21875 5.335938 C 6.253906 5.308594 6.285156 5.277344 6.320312 5.246094 C 6.328125 5.238281 6.332031 5.234375 6.339844 5.226562 C 6.359375 5.207031 6.382812 5.1875 6.402344 5.167969 C 6.425781 5.144531 6.449219 5.121094 6.476562 5.097656 C 6.484375 5.089844 6.496094 5.082031 6.503906 5.070312 C 6.53125 5.046875 6.554688 5.023438 6.582031 5.003906 C 6.621094 4.972656 6.65625 4.9375 6.691406 4.90625 C 6.703125 4.894531 6.714844 4.882812 6.730469 4.867188 C 6.757812 4.84375 6.785156 4.816406 6.8125 4.789062 C 6.847656 4.761719 6.878906 4.730469 6.910156 4.699219 C 6.921875 4.6875 6.9375 4.675781 6.949219 4.664062 C 6.984375 4.628906 7.019531 4.597656 7.054688 4.570312 C 7.089844 4.542969 7.121094 4.511719 7.148438 4.484375 C 7.164062 4.472656 7.175781 4.457031 7.191406 4.445312 C 7.21875 4.421875 7.246094 4.394531 7.273438 4.367188 C 7.304688 4.335938 7.339844 4.308594 7.371094 4.277344 C 7.382812 4.265625 7.394531 4.253906 7.410156 4.242188 C 7.445312 4.207031 7.480469 4.171875 7.519531 4.144531 C 7.53125 4.132812 7.53125 4.132812 7.546875 4.113281 C 7.5625 4.097656 7.574219 4.085938 7.589844 4.074219 C 7.625 4.046875 7.660156 4.015625 7.695312 3.984375 C 7.699219 3.976562 7.707031 3.96875 7.714844 3.964844 C 7.734375 3.945312 7.757812 3.921875 7.777344 3.902344 C 7.804688 3.878906 7.828125 3.855469 7.851562 3.832031 C 7.863281 3.824219 7.871094 3.816406 7.882812 3.804688 C 7.914062 3.777344 7.945312 3.746094 7.980469 3.722656 C 7.992188 3.710938 7.992188 3.710938 8.007812 3.691406 C 8.023438 3.675781 8.035156 3.664062 8.050781 3.652344 C 8.085938 3.625 8.117188 3.59375 8.152344 3.5625 C 8.160156 3.554688 8.164062 3.550781 8.171875 3.542969 C 8.191406 3.523438 8.214844 3.503906 8.234375 3.484375 C 8.257812 3.460938 8.285156 3.4375 8.308594 3.414062 C 8.316406 3.40625 8.328125 3.398438 8.335938 3.386719 C 8.363281 3.363281 8.386719 3.339844 8.414062 3.320312 C 8.453125 3.289062 8.488281 3.253906 8.523438 3.222656 C 8.535156 3.210938 8.550781 3.199219 8.5625 3.183594 C 8.589844 3.160156 8.617188 3.132812 8.644531 3.105469 C 8.679688 3.078125 8.710938 3.046875 8.742188 3.015625 C 8.753906 3.003906 8.769531 2.992188 8.78125 2.980469 C 8.816406 2.945312 8.851562 2.914062 8.890625 2.882812 C 8.910156 2.867188 8.925781 2.855469 8.941406 2.839844 C 8.945312 2.832031 8.953125 2.828125 8.960938 2.820312 C 8.96875 2.8125 8.980469 2.800781 8.988281 2.792969 C 9 2.78125 9.007812 2.773438 9.019531 2.765625 C 9.023438 2.757812 9.027344 2.753906 9.035156 2.75 C 9.050781 2.738281 9.050781 2.738281 9.070312 2.738281 Z M 9.070312 2.738281 "/>
</g>
</svg>
