<svg xmlns="http://www.w3.org/2000/svg" viewBox="-203.056 157.816 964.597 187.793">
  <path d="M-199.65 240.55c33.78 0 33.78 0 43.71 4.709 5.03 5.952 8.23 10.64 8.26 19.276-.1 7.152-1.97 11.337-5.28 17.216.62.768.62.768 1.24 1.553 4.71 6.168 6.99 10.902 6.71 19.414-.87 7.715-3.66 13.547-8.78 18.457-8.65 5.955-17.95 4.773-27.6 4.498l-18.26-.368zm17.88 18.835v14.126c2.08.127 4.14.217 6.21.294l3.5.165c3.27-.148 3.27-.148 5.62-2.603 1.87-2.534 1.87-2.534 1.56-6.244-.69-3.419-.69-3.419-2.65-4.764-2.94-1.242-5.41-1.202-8.53-1.121zm0 31.783v15.303c2.4.095 4.81.165 7.2.22.69.029 1.36.06 2.06.089 3.11.055 5.3-.097 8.08-1.831 1.87-2.078 1.87-2.078 2.1-6.13-.18-4.2-.18-4.2-2.62-6.129-3.6-1.884-6.26-1.873-10.17-1.743l-3.78.096zm81.46-24.72c6.898 5.677 11.279 12.516 12.917 22.366q.133 3.014.124 6.032l.008 3.1c-.132 2.639-.132 2.639-1.126 4.993l-34.773 1.178c5.02 4.464 7.75 5.086 13.91 4.708.84-.413 1.68-.826 2.55-1.251 3.31-1.509 4.97-1.114 8.38.074 2.75 1.792 5.36 3.777 7.946 5.886-2.601 6.709-7.144 10.383-12.916 12.948-10.83 2.069-19.65 1.6-28.73-6.065-5.52-5.803-8.65-12.487-9.29-21.129-.27-10.954.81-18.7 7.05-27.029 9.06-10.157 22.74-13.611 33.95-5.811Zm-23.85 20.011v1.177h19.88c-1.64-4.854-1.64-4.854-4.97-7.063-6.54-1.247-10.78-.781-14.91 5.886Zm72.511-23.543c.107 3.067.186 6.128.249 9.196l.101 2.633c.098 6.428.098 6.428-2.131 9.305-2.193 1.232-2.193 1.232-5.731 2.335-3.808 1.395-4.498 1.961-6.396 5.96-.5 3.639-.5 3.639-.509 7.669l-.106 4.46-.068 4.645-.103 4.7c-.081 3.828-.146 7.657-.208 11.486h-16.888v-61.212c11.921 0 11.921 0 15.647 2.943l2.235 2.943 2.174-2.207c4.055-3.632 6.636-4.856 11.734-4.856Z" fill="#af2524" style="paint-order:stroke;stroke:#f7f7f7;stroke-width:6px"/>
  <path d="m-17.567 240.182 3.962-.133c4.357.594 5.563 1.583 8.642 5.21a80 80 0 0 1 2.961 8.787l.767 2.632a1023 1023 0 0 1 2.419 8.518q.844 2.938 1.693 5.874 1.72 5.965 3.417 11.938a1730 1730 0 0 0 4.709 16.197l1.4 4.755 2.606 8.853 1.159 3.971 1.012 3.457c.706 2.71.706 2.71.706 5.064-2.733.159-5.46.276-8.196.368l-2.339.149c-3.985.101-5.717.134-8.821-3.042-1.506-3.361-1.506-3.361-2.5-10.423l-25.829 1.177-2.981 8.24c-1.168 2.267-1.168 2.267-2.98 3.531a60 60 0 0 1-8.134.22l-2.257-.048a389 389 0 0 1-5.504-.172c1.491-8.857 3.727-17.253 6.17-25.801l1.233-4.337q1.285-4.519 2.58-9.032c1.101-3.839 2.188-7.683 3.272-11.529 1.046-3.696 2.103-7.387 3.16-11.079l1.17-4.158c5.489-19 5.489-19 16.503-19.187Zm-.311 25.088a7778 7778 0 0 0-3.477 12.802l-1.005 3.683-.951 3.518-.882 3.25c-.73 2.564-.73 2.564-.639 4.999H-9.93c-1.584-9.726-4.232-18.908-6.954-28.252z" fill="#ae2424" style="paint-order:stroke;stroke:#f7f7f7;stroke-width:6px"/>
  <path d="M21.854 240.55c12.915 0 12.915 0 16.888 3.532.543 3.102.543 3.102.606 6.781l.097 3.99c.014 1.373.029 2.748.042 4.163l.09 4.206q.104 5.143.159 10.289l1.075-1.778c17.826-29.432 17.826-29.432 20.781-31.183a52 52 0 0 1 4.106-.115l2.425.012 2.534.029 2.557.017q3.13.022 6.26.057v2.355h-1.987l-.64 2.34c-1.84 4.843-4.378 8.892-6.997 13.183l-1.611 2.688c-2.308 3.848-4.64 7.655-7.062 11.406l-1.945 3.049-1.699 2.556c-1.185 2.458-1.185 2.458-.176 5.17 1.304 3.286 2.796 6.123 4.534 9.112l1.95 3.371 2.036 3.481 1.999 3.452c2.819 4.856 5.654 9.686 8.599 14.435 2.006 3.449 2.006 3.449 2.006 5.803h1.986v2.354c-3.005.256-5.993.442-9.002.589l-2.552.239c-3.666.134-6.261.122-9.251-2.561-1.861-2.449-3.448-4.969-5.024-7.684l-1.714-2.815a393 393 0 0 1-5.054-8.736l-1.721-3.014a2235 2235 0 0 1-6.413-11.332l-.06 2.987q-.117 5.482-.255 10.965c-.057 2.362-.103 4.723-.151 7.085l-.116 4.482-.095 4.147c-.317 3.294-.317 3.294-2.304 5.648H21.854z" fill="#ac2425" style="paint-order:stroke;stroke:#f7f7f7;stroke-width:6px"/>
  <path d="M83.435 240.55c11.921 0 11.921 0 15.131 2.111 2.634 5.657 2.291 10.748 2.068 17.091l-.068 3.663a697 697 0 0 1-.243 8.918l20.863-1.177-.035-6.396-.027-8.245-.026-4.224-.008-4.012-.016-3.717c.112-2.835.112-2.835 1.105-4.012h16.889v84.755c-11.921 0-11.921 0-15.087-2.795-2.368-4.063-2.918-5.964-2.891-10.826l.007-2.878.027-3.659.062-11.625-20.863-1.177v32.96H83.435z" fill="#a82326" style="paint-order:stroke;stroke:#f7f7f7;stroke-width:6px"/>
  <path d="M143.996 240.55c11.623 0 11.623 0 14.902 3.532 3.513 6.37 3.372 12.001 3.271 19.339l-.013 3.533c-.015 3.707-.053 7.412-.091 11.118q-.023 3.779-.041 7.56-.05 9.241-.146 18.485l3.485.133 4.587.234 2.29.081c4.821.271 8.32 1.101 12.488 4.26 1.987 3.532 1.987 3.532 1.987 16.48h-42.719z" fill="#a22128" style="paint-order:stroke;stroke:#f7f7f7;stroke-width:6px"/>
  <path d="m223.522 240.182 3.636.014c3.145.342 4.617.744 7.229 2.709 4.28 7.766 6.231 18.022 8.709 26.739l1.319 4.608q1.371 4.794 2.735 9.589c1.166 4.103 2.34 8.201 3.514 12.299q1.359 4.741 2.71 9.486.647 2.268 1.299 4.538.901 3.154 1.797 6.313l1.033 3.625c.727 2.849.727 2.849.727 5.203-2.381.127-4.758.22-7.14.295l-2.027.118c-3.415.079-5.575-.308-8.579-2.27-2.123-2.851-2.123-2.851-4.11-11.091h-25.83l-1.987 8.24c-2.873 3.858-4.368 4.634-8.711 5.167q-2.01-.046-4.017-.164l-2.086-.065c-1.685-.056-3.37-.139-5.055-.23 1.247-7.335 2.913-14.334 4.98-21.4l.877-3.04a2716 2716 0 0 1 1.841-6.346q1.377-4.73 2.74-9.468a2334 2334 0 0 1 4.545-15.496c.931-3.169 1.838-6.346 2.744-9.523q.893-3.051 1.79-6.101c.261-.942.523-1.882.794-2.852 1.263-4.22 2.014-6.499 5.019-9.352 3.277-1.551 5.984-1.603 9.504-1.545Zm-1.056 25.088q-1.46 5.737-2.918 11.478l-.836 3.283c-.267 1.046-.532 2.094-.806 3.172l-.74 2.915c-.601 2.452-1.132 4.927-1.654 7.404h15.895a3393 3393 0 0 0-3.353-13.464l-.955-3.884-.931-3.689-.851-3.418c-.645-2.818-.645-2.818-2.851-3.797Z" fill="#961e2d" style="paint-order:stroke;stroke:#f7f7f7;stroke-width:6px"/>
  <path d="M261.21 240.55c11.922 0 11.922 0 15.089 2.207 2.687 3.733 2.945 5.933 3.109 10.751.041 1.161.082 2.322.126 3.518l.118 3.683.13 3.71q.158 4.544.304 9.092l2.146-3.749c15.039-26.166 15.039-26.166 20.704-29.212 2.838-.247 5.436-.338 8.258-.221 1.104.025 1.104.025 2.229.048 1.804.041 3.606.105 5.408.173-1.633 6.187-4.912 10.907-8.134 16.039-5.671 9.175-5.671 9.175-11.114 18.54l-1.638 2.897c-1.11 2.416-1.11 2.416-.908 4.745 1.398 3.769 3.319 7.076 5.278 10.457l1.317 2.309c2.418 4.228 4.869 8.429 7.325 12.625a1433 1433 0 0 0 4.405 7.499c1.873 3.192 3.419 5.934 4.462 9.644-2.672.192-5.335.331-8.009.442-.747.059-1.495.117-2.265.179-4.266.131-6.931-.368-10.297-3.597-3.493-4.036-6.206-8.6-8.86-13.431l-2.708-4.814-1.309-2.344c-2.031-3.582-4.158-7.075-6.29-10.572l-.044 2.626c-.074 3.932-.169 7.862-.266 11.794l-.068 4.133-.107 3.978-.078 3.662c-.43 3.236-.43 3.236-3.411 7.944H261.21z" fill="#841833" style="paint-order:stroke;stroke:#f7f7f7;stroke-width:6px"/>
  <path d="M302.929 164.035c3.353-.137 6.705-.221 10.059-.294l2.864-.12c5.855-.097 9.322.359 13.9 5.123 2.294 2.704 2.294 2.704 4.409 5.591l2.309 3.127 2.223 3.053 3.726 5.003 1.661 2.281a152 152 0 0 0 3.135 4.12c3.416 4.447 3.416 4.447 3.346 7.21-1.375 3.77-3.659 6.426-6.031 9.344q-1.5 1.885-2.995 3.775l-1.478 1.852c-1.787 2.267-3.505 4.601-5.213 6.953-8.934 12.182-8.934 12.182-13.306 12.702l-2.601-.038-2.823-.022-2.94-.061-2.974-.032a840 840 0 0 1-7.271-.115c1.789-4.546 4.253-7.863 7.141-11.477q1.483-1.888 2.964-3.78c.481-.611.962-1.223 1.458-1.851a407 407 0 0 0 5.264-6.876l1.517-2.014c2.012-2.971 3.744-6.127 5.499-9.316-6.561-9.194-13.177-18.273-20.208-26.97-3.635-4.563-3.635-4.563-3.635-7.168Z" fill="#971e2c" style="paint-order:stroke;stroke:#f7f7f7;stroke-width:6px"/>
  <path d="m441.515 163.524 3.545.07q4.322.09 8.642.248c-2.426 7.533-5.036 14.988-7.687 22.441l-1.26 3.55-3.053 8.594 24 1.017v28.481l-35 1.017-11 30.516h34l10-27.464h2q.177 14.153.259 28.306c.026 4.383.061 8.766.118 13.149.055 4.241.085 8.482.098 12.722q.014 2.41.054 4.82c.171 10.507-.415 20.045-5.529 29.498-4.205 3.899-6.605 5.216-12.226 5.185l-3.125-.009c-1.081-.01-2.161-.018-3.274-.027l-3.297-.013q-4.038-.019-8.078-.05c2.231-7.969 4.899-15.741 7.688-23.522l4.312-12.079h-34c-3.082 9.138-3.082 9.138-6.131 18.288l-1.193 3.465-1.19 3.536c-1.998 4.291-4.579 7.008-8.473 9.6-2.503.885-4.567.942-7.216.911-1.469-.011-1.469-.011-2.969-.02l-3.078-.052-3.125-.028q-3.812-.036-7.625-.099c2.415-7.486 4.997-14.904 7.625-22.315l1.235-3.498 1.179-3.332 1.069-3.019c.892-2.42.892-2.42 1.892-4.455h-29c1.639-21.665 1.639-21.665 5.088-26.048 3.718-3.106 5.641-3.026 10.4-2.93l2.131.022c2.233.029 4.462.092 6.694.157q2.278.038 4.556.07c3.711.056 7.421.143 11.131.248l.746-3.883c1.243-5.684 3.227-10.987 5.317-16.398l1.103-2.91c2.633-6.917 2.633-6.917 3.834-9.359h-29c1.469-19.421 1.469-19.421 4-24.412 4.477-3.677 7.438-4.566 13.149-4.467l1.992.017c2.079.024 4.156.075 6.234.127q2.127.03 4.254.054c3.458.045 6.914.115 10.371.2l.762-3.894c1.224-5.585 3.061-10.851 5.051-16.196l1.002-2.833c4.4-11.873 8.85-13.447 20.998-12.997Z" fill="#b42b2d" style="paint-order:stroke;stroke:#f7f7f7;stroke-width:6px"/>
  <path d="M478.702 163.842c7 0 7 0 8.895 1.196 1.441 2.42 1.613 4.318 1.793 7.132l.199 2.778.113 2.118 2-1.526c3.748-1.906 6.923-2.121 11-1.526 5.609 2.084 8.391 5.191 11.25 10.426 1.785 6.659 1.293 12.3-2.039 18.333-2.478 3.594-5.168 5.472-9.211 6.843-5.429.356-8.5.381-13-3.052l-1 2.035h-10zm11 21.361c-1.732 3.525-1.464 7.335-1 11.189 1.314 2.777 1.314 2.777 4 4.069 3.997.791 6.95.614 10.5-1.463 2.229-3.872 2.283-7.384 1.5-11.76-1.904-2.87-3.243-3.765-6.375-5.023-3.556-.086-5.627 1.117-8.625 2.988Zm49.856-10.28c1.432.98 2.796 2.062 4.144 3.16l1.063-1.526c1.937-1.526 1.937-1.526 8.937-1.526v33.568h-10l-1-2.035-2.562 1.526c-4.947 2.195-8.491 2.238-13.563.381-4.286-2.843-7.224-6.024-8.875-11.062-.508-6.329-.753-11.946 3-17.292 5.061-5.161 11.839-8.635 18.856-5.194Zm-10.856 10.28c-1.732 3.525-1.464 7.335-1 11.189 1.314 2.777 1.314 2.777 4 4.069 3.997.791 6.95.614 10.5-1.463 2.229-3.872 2.283-7.384 1.5-11.76-1.904-2.87-3.243-3.765-6.375-5.023-3.556-.086-5.627 1.117-8.625 2.988Zm53.895-10.486c4.525 2.316 6.339 4.491 8.105 9.469.355 4.204.283 8.371.188 12.588l-.041 3.444a901 901 0 0 1-.147 8.381l-3.875.19-2.179.108c-.642-.099-1.284-.198-1.946-.298-2.101-3.207-2.253-4.057-2.308-7.729l-.077-2.724q-.053-2.841-.093-5.682l-.08-2.719-.041-2.492-.401-2.05c-2.906-2.429-2.906-2.429-6.625-1.717-3.2.335-3.2.335-4.375 1.717a99 99 0 0 0-.316 5.217l-.127 3.188-.119 3.356-.131 3.368q-.159 4.133-.307 8.267h-10v-33.568h8l2 2.035 2.563-1.526c4.359-1.936 7.764-2.519 12.332-.823Zm32.105-.703c3 1.526 3 1.526 5 3.052l1-2.035h10q.112 7.627.165 15.254.022 2.59.062 5.183c.036 2.492.053 4.984.066 7.476l.047 2.316c.002 6.641-1.46 11.311-5.84 16.435-5.261 4.549-11.933 3.631-18.5 3.179-4.772-1.619-7.284-3.84-10-8.138-.75-2.861-.75-2.861-1-5.086 6.324-.504 9.045-.176 14 4.069 3.507.43 5.839.685 8.938-1.145 1.507-2.705 1.262-4.96 1.062-8.01l-2.562 1.526c-4.947 2.195-8.491 2.238-13.563.381-4.286-2.843-7.224-6.024-8.875-11.062-.508-6.329-.753-11.946 3-17.292 5.082-5.183 9.794-6.958 17-6.103Zm-9 11.189c-1.732 3.525-1.464 7.335-1 11.189 1.314 2.777 1.314 2.777 4 4.069 2.812.609 5.195.666 8 0 3.261-2.737 3.904-4.398 4.5-8.646-.585-4.17-1.466-5.811-4.5-8.646-4.431-1.898-7.047-.434-11 2.034Zm49-11.189c3 1.526 3 1.526 5 3.052l1-2.035h10q.112 7.627.165 15.254.022 2.59.062 5.183c.036 2.492.053 4.984.066 7.476l.047 2.316c.002 6.641-1.46 11.311-5.84 16.435-5.261 4.549-11.933 3.631-18.5 3.179-4.772-1.619-7.284-3.84-10-8.138-.75-2.861-.75-2.861-1-5.086 3.364-.235 6.643-.368 10 0 2.188 2.034 2.188 2.034 4 4.069 3.489.435 5.849.679 8.938-1.145 1.507-2.705 1.262-4.96 1.062-8.01l-2.562 1.526c-4.947 2.195-8.491 2.238-13.563.381-4.286-2.843-7.224-6.024-8.875-11.062-.49-5.661-.768-10.585 1.688-15.766 5.494-6.042 10.078-8.606 18.312-7.629Zm-9 11.189c-1.732 3.525-1.464 7.335-1 11.189 1.314 2.777 1.314 2.777 4 4.069 2.812.609 5.195.666 8 0 3.261-2.737 3.904-4.398 4.5-8.646-.585-4.17-1.466-5.811-4.5-8.646-4.431-1.898-7.047-.434-11 2.034Zm50.438-9.663 2.562 1.526 2-2.035h9v33.568h-10l-1-2.035-2.562 1.526c-4.947 2.195-8.491 2.238-13.563.381-4.286-2.843-7.224-6.024-8.875-11.062-.508-6.329-.753-11.946 3-17.292 5.759-5.874 11.657-8.031 19.438-4.577Zm-11.438 9.663c-1.539 3.256-2.383 5.541-1.512 9.13 1.448 3.769 1.448 3.769 4.512 6.128 2.934.289 5.151.498 8 0 3.261-2.737 3.904-4.398 4.5-8.646-.585-4.17-1.466-5.811-4.5-8.646-4.398-1.884-7.206-.71-11 2.034Z" fill="#050708" style="paint-order:stroke;stroke:#f7f7f7;stroke-width:6px"/>
  <path d="M478.702 231.994c7.875 0 7.875 0 11 2.034l3-2.034c6.809-1.042 11.412.114 17 4.069l2.375-2.035c4.273-2.901 8.667-2.727 13.625-2.034 4.197 1.763 6.46 4.349 9 8.137.454 3.005.454 3.005.391 6.282l-.039 3.566-.102 3.693-.054 3.754a798 798 0 0 1-.196 9.152c-6.75.127-6.75.127-9-1.017l-.044-1.912c-.074-2.861-.171-5.719-.268-8.578l-.069-3.01-.107-2.891-.079-2.663c-.519-2.769-1.218-3.701-3.433-5.358-4.082-.538-4.082-.538-7.655 1.224-1.779 2.417-1.771 4.018-1.857 7.02l-.107 3.03-.068 3.156-.104 3.193a846 846 0 0 0-.209 7.806l-3.875.19-2.179.108-1.946-.298c-2.101-3.206-2.253-4.056-2.308-7.728l-.077-2.724q-.052-2.841-.093-5.682l-.08-2.719-.041-2.492-.401-2.05c-2.906-2.429-2.906-2.429-6.625-1.717-3.2.335-3.2.335-4.375 1.717a99 99 0 0 0-.316 5.217l-.127 3.188-.119 3.356-.131 3.368q-.159 4.133-.307 8.266h-10zm85.799 1.207c4.833 3.478 7.132 7.215 8.562 13.033.188 2.861.188 2.861 0 5.086-1 1.018-1 1.018-3.316 1.133l-3.031-.017-3.272-.009-3.443-.026-3.455-.014q-4.241-.018-8.483-.049c1.33 2.563 1.33 2.563 3 5.086 2.504.613 2.504.613 5.188.317l2.73-.138 2.082-.179v-2.035l11-1.017c-1.25 5.086-3.611 8.47-7.875 11.506-6.057 1.994-11.255 2.122-17.125-.317-4.975-3.342-7.261-6.407-9-12.206-.703-6.442.374-10.91 4-16.275 6.285-6.081 14.367-6.715 22.438-3.879Zm-14.875 8.901c-1.663 1.794-1.663 1.794-1.563 3.115h15c-1.5-4.068-1.5-4.068-4-5.086-5.121-.528-5.121-.528-9.437 1.971Zm26.437-21.297c3.375-.127 3.375-.127 7 0 2 2.034 2 2.034 2.241 3.939l-.014 2.341v2.653l-.031 2.867-.009 2.934c-.011 3.099-.036 6.197-.062 9.297q-.015 3.147-.027 6.293-.035 7.725-.098 15.449c-3.375.127-3.375.127-7 0-2-2.034-2-2.034-2.24-3.939l.013-2.342.001-2.653.031-2.867.008-2.933c.012-3.099.037-6.198.062-9.297l.028-6.294q.034-7.724.097-15.448Zm33 11.189c3.125 1.526 3.125 1.526 5 3.051l1.063-1.525c1.937-1.526 1.937-1.526 8.937-1.526v34.584h-9l-1-3.051-1.562 1.461c-3.706 2.416-7.134 3.066-11.492 2.197-5.277-1.71-7.888-4.079-10.946-8.744-2.637-5.366-2.257-10.545-1-16.275 4.331-8.811 10.72-11.539 20-10.172Zm-9 10.172c-2.305 3.283-2.323 6.22-2 10.172 1.207 3.399 1.921 4.014 5 6.103 3.885.431 6.102.624 9.375-1.653 1.996-2.968 2.481-4.932 2.625-8.519-.778-3.092-1.596-4.675-3.812-6.93-3.969-2.191-7.505-1.757-11.188.827Zm26.902-10.172h10c2.793 6.738 5.533 13.475 8 20.344l.988-2.456c6.018-14.843 6.018-14.843 9.012-17.888 2.164-.2 2.164-.2 4.625-.127l2.477.055 1.898.072c-1.437 4.612-3.17 9.037-5.082 13.461l-.897 2.091q-.937 2.18-1.878 4.359a2241 2241 0 0 0-2.824 6.575c-9.043 21.041-9.043 21.041-11.319 23.356a84 84 0 0 1-4.562.572l-2.504.258-1.934.187c.771-5.031 2.789-9.007 5.039-13.51 1.767-5.084-.507-9.281-2.543-14.026l-1.494-3.524-3.14-7.327-1.491-3.517-1.377-3.21c-.994-2.694-.994-2.694-.994-5.745Zm61.82 2.034 2-2.034h8v34.584h-10l-1-2.034-1.687.738c-4.896 1.936-8.456 2.835-13.528 1.153-5.029-2.463-7.95-6.857-9.785-12.063-.817-6.033-.352-11.27 2.684-16.585 5.526-7.24 15.615-7.937 23.316-3.759Zm-14 8.074c-2.197 3.422-2.753 5.276-2.484 9.281.865 3.522 2.626 5.036 5.484 7.058 3 .847 3 .847 6 0 2.865-2.028 4.676-3.516 5.414-7.093.126-3.119-.251-5.726-1.414-8.611-4.273-3.395-8.503-3.589-13-.635Zm32.224-10.308 6.054.2 1 2.034 3-2.034c4.944-.745 8.936-.532 13.438 1.716 3.38 3.103 5.356 5.674 5.903 10.35l-.048 3.148-.029 3.427-.076 3.546-.041 3.606q-.054 4.396-.147 8.791c-6.054.199-6.054.199-8 0-2.479-2.521-2.269-3.356-2.344-6.834l-.089-2.873-.133-6.015-.09-2.874-.057-2.64c-.097-2.378-.097-2.378-2.287-4.193-3.5-.34-3.5-.34-7 0-2.561 2.605-2.296 3.728-2.414 7.35l-.117 3.178-.094 3.331-.117 3.353c-.094 2.739-.177 5.478-.258 8.217h-10q-.074-6.897-.11-13.795-.014-2.348-.041-4.694c-.024-2.248-.035-4.495-.044-6.742l-.031-2.126c-.001-1.732.104-3.465.226-5.193 2-2.034 2-2.034 3.946-2.234Zm38.693-13.278c3 .254 3 .254 5 2.289.25 3.051.25 3.051 0 6.103-2 2.034-2 2.034-4.937 2.352-3.063-.318-3.063-.318-5-1.526-1.063-1.843-1.063-1.843-.875-4.45 1.198-3.658 2-4.445 5.812-4.768Zm3.737 13.478q.111 6.652.165 13.305.023 2.263.062 4.525c.036 2.169.053 4.337.066 6.507l.048 3.954c-.341 3.242-.341 3.242-1.422 5.217-2.937 1.647-5.638 1.264-8.919 1.076q-.11-6.897-.165-13.795a667 667 0 0 0-.061-4.694 659 659 0 0 1-.067-6.742l-.047-2.126c0-1.974 0-1.974.34-5.193 3.644-2.472 5.713-2.199 10-2.034Zm-270.737 46.79h8c2.589 2.634 2.374 4.097 2.625 7.757l.227 3.091.148 2.376 2.438-1.59c4.591-1.884 7.82-1.692 12.562-.444 4.821 2.313 7.198 5.106 9.305 9.961 1.726 5.574 1.379 10.48-.992 15.786-2.273 4.129-5.145 6.717-9.313 8.837-5.68.531-10.357.726-15-3.052v3.052h-10zm11.5 20.789c-2.23 3.876-2.276 7.38-1.5 11.762 2.058 3.22 3.391 3.887 7 4.958 3.158.134 4.457-.06 7-1.907 2.473-3.774 2.653-6.815 2-11.189-1.302-3.182-1.302-3.182-4-5.086-3.981-.938-6.961-.608-10.5 1.462Zm45.346-10.299 2.281.243c2.348.483 4.134 1.31 6.219 2.491l2-2.034h8v34.584h-10l-1-3.052-1.937 1.526c-4.127 2.056-7.544 2.256-12.063 1.526-5.303-2.748-9.098-6.403-11-12.206-.697-7.307-.395-12.389 4-18.31 4.346-4.2 7.595-5.457 13.5-4.768Zm-5.937 10.299c-2.316 3.863-2.343 7.354-1.563 11.762 2.033 3.181 3.403 3.874 6.938 5.021 3.661.077 5.193-.736 8.062-2.987 1.615-3.286 1.581-6.621 1-10.172-1.896-3.201-1.896-3.201-5-5.086-3.926-.631-6.001-.6-9.437 1.462Zm52.632-9.599c3.809 2.5 6.549 4.726 8 9.154.083 1.952.108 3.907.098 5.86l-.01 3.448-.025 3.597-.014 3.635q-.018 4.444-.049 8.89c-5.709.173-5.709.173-8.328-1.383-2.59-4.162-2.349-8.28-2.422-13.112l-.09-2.885q-.105-3.516-.16-7.033c-4.531-1.822-5.982-2.038-11-1.017l-1 25.43h-10v-34.584h8l2 2.034 3-1.59c4.219-1.799 7.666-2.023 12-.444Zm28.924-.7 2.316.243c2.121.457 2.121.457 5.121 2.491l1-2.034h10q.112 7.598.165 15.197.022 2.582.062 5.162c.036 2.485.053 4.969.066 7.454l.047 2.3c.002 5.89-.923 11.659-4.704 16.327-4.677 4.615-10.889 3.971-17.015 3.977-4.147-.66-6.33-2.052-9.621-4.644l-1.812-1.399c-1.738-2.419-1.868-4.827-2.188-7.756 3.034-.238 5.973-.365 9 0a181 181 0 0 1 4 4.069c3.524.698 6.802.686 10-1.144 1.421-2.711 1.198-4.995 1-8.011l-1.937 1.526c-4.127 2.056-7.544 2.256-12.063 1.526-5.303-2.748-9.098-6.403-11-12.206-.697-7.307-.395-12.389 4-18.31 4.372-4.224 7.626-5.453 13.563-4.768Zm-6 10.299c-2.316 3.863-2.343 7.354-1.563 11.762 2.058 3.22 3.391 3.887 7 4.958 3.172.135 4.482.015 7-1.907 2.547-3.497 2.51-6.969 2-11.189-1.916-3.137-1.916-3.137-5-5.086-3.926-.631-6.001-.6-9.437 1.462Zm52.618-7.946c2.494 3.011 3.206 5.715 4 9.536h-9l-1-3.052h-9v3.052l2.231.56c11.207 2.936 11.207 2.936 15.582 7.386 1.624 3.043 1.668 4.908 1.187 8.329-2.226 3.559-4.182 5.545-8 7.12-6.72 1.008-11.801.288-17.441-3.576-1.797-1.741-2.66-3.233-3.559-5.579v-3.051h9l1 3.051h9l-1-3.051c-2.623-1.091-2.623-1.091-5.75-1.908-4.892-1.569-8.341-2.704-11.25-7.247-.625-3.56-.625-3.56 0-7.12 5.942-7.999 15.541-9.111 24-4.45Zm25.729-2.353 2.316.243c2.121.457 2.121.457 5.121 2.491l2-2.034h9v34.584h-10l-1-3.052-1.937 1.526c-4.127 2.056-7.544 2.256-12.063 1.526-4.971-2.577-8.494-6.092-11-11.189-.493-5.956-.857-11.382 1.688-16.848 5.003-5.364 8.522-8.095 15.875-7.247Zm-6 10.299c-2.319 3.869-2.209 7.345-1.563 11.762.933 2.623.933 2.623 3 4.068 3.601 1.194 5.279 1.35 8.75-.254 3.182-2.518 4.168-4.186 4.688-8.265-.16-3.785-.16-3.785-2.5-6.676-4.327-3.09-7.767-3.399-12.375-.635Z" fill="#b42b2d" style="paint-order:stroke;stroke:#f7f7f7;stroke-width:6px"/>
</svg>
