<?xml version="1.0" encoding="utf-8"?>
<svg xmlns="http://www.w3.org/2000/svg" viewBox="-513.619 25.555 1715.308 398.57" style="shape-rendering: geometricprecision;">
  <path d="M -263.4 79.726 C -256.45 79.726 -249.58 79.968 -242.79 80.292 C -238.67 91.525 -219.19 150.192 -241.42 211.123 C -250.39 235.447 -276.81 281.266 -312.85 312.62 C -348.25 343.328 -392.69 361.995 -405.87 367.086 C -468.33 338.398 -509.14 291.286 -509.14 238.113 C -509.14 215.567 -501.87 194.233 -488.69 174.839 C -475.85 157.788 -458.15 141.545 -436.41 125.626 C -391.96 97.262 -330.87 79.726 -263.4 79.726" style="fill: rgb(11, 142, 49); stroke-width: 1px;"/>
  <path d="M -459.76 418.48 C -459.76 418.48 -363.36 393.51 -294.1 340.095 C -224.77 286.68 -184.53 215.406 -170.3 130.071 C -164.73 96.697 -165.62 65.262 -165.05 30.271 L -119.39 30.271 C -119.39 30.271 -114.79 120.293 -141.86 199.001 C -168.93 277.79 -241.01 330.155 -258.71 344.135 C -276.41 358.196 -328.29 384.055 -375.88 400.459 C -423.48 416.944 -459.76 418.48 -459.76 418.48" style="fill: rgb(178, 183, 5); stroke-width: 1px;"/>
  <path d="M 53.699 112.373 L 107.276 112.373 C 117.943 112.373 125.781 112.777 131.034 113.666 C 136.287 114.555 140.893 116.414 145.014 119.161 C 149.135 121.989 152.61 125.707 155.358 130.394 C 158.106 135 159.398 140.253 159.398 145.99 C 159.398 152.212 157.782 158.031 154.388 163.202 C 150.994 168.455 146.469 172.333 140.65 175 C 148.812 177.424 155.034 181.465 159.398 187.202 C 163.843 192.939 166.024 199.647 166.024 207.404 C 166.024 213.546 164.569 219.445 161.741 225.263 C 158.913 231 155.034 235.606 150.104 239.081 C 145.175 242.475 139.195 244.657 131.922 245.465 C 127.477 245.95 116.568 246.192 99.356 246.354 L 53.699 246.354 L 53.699 112.373 Z M 80.851 134.596 L 80.851 165.465 L 98.548 165.465 C 109.053 165.465 115.599 165.384 118.185 165.061 C 122.791 164.495 126.428 162.879 129.094 160.293 C 131.761 157.626 133.054 154.151 133.054 149.869 C 133.054 145.667 131.923 142.354 129.66 139.768 C 127.317 137.182 123.923 135.647 119.478 135.081 C 116.73 134.758 109.054 134.596 96.366 134.596 L 80.851 134.596 Z M 80.851 187.769 L 80.851 223.729 L 105.902 223.729 C 115.68 223.729 121.821 223.406 124.488 222.921 C 128.528 222.113 131.761 220.335 134.266 217.507 C 136.852 214.679 138.145 210.881 138.145 206.113 C 138.145 202.073 137.175 198.679 135.155 195.85 C 133.216 193.022 130.387 191.001 126.751 189.708 C 123.034 188.415 115.034 187.769 102.67 187.769 L 80.851 187.769 Z M 188.813 246.356 L 188.813 112.374 L 232.208 112.374 C 248.693 112.374 259.36 113.02 264.37 114.394 C 272.047 116.414 278.431 120.778 283.603 127.485 C 288.775 134.192 291.442 142.92 291.442 153.586 C 291.442 161.829 289.907 168.697 286.917 174.354 C 283.927 179.93 280.21 184.374 275.604 187.526 C 270.998 190.758 266.311 192.859 261.624 193.91 C 255.159 195.203 245.785 195.849 233.583 195.849 L 215.967 195.849 L 215.967 246.355 L 188.813 246.356 Z M 215.965 135 L 215.965 173.142 L 230.753 173.142 C 241.339 173.142 248.45 172.496 252.006 171.041 C 255.642 169.667 258.471 167.485 260.491 164.415 C 262.511 161.425 263.481 157.95 263.481 153.991 C 263.481 149.062 262.107 145.102 259.279 141.87 C 256.37 138.718 252.814 136.698 248.37 135.89 C 245.218 135.324 238.754 135.001 228.976 135.001 L 215.965 135 Z M 361.745 112.373 L 388.897 112.373 L 388.897 197.223 C 388.897 208.375 387.927 216.941 385.988 222.92 C 383.321 230.678 378.634 236.981 371.685 241.668 C 364.816 246.436 355.766 248.779 344.452 248.779 C 331.28 248.779 321.098 245.062 313.987 237.708 C 306.876 230.354 303.239 219.445 303.159 205.142 L 328.856 202.152 C 329.179 209.829 330.23 215.243 332.169 218.395 C 335.078 223.163 339.442 225.587 345.422 225.587 C 351.321 225.587 355.604 223.89 358.028 220.415 C 360.533 216.94 361.745 209.829 361.745 199 L 361.745 112.373 Z M 410.635 202.96 L 437.06 200.293 C 438.595 209.101 441.828 215.566 446.596 219.768 C 451.445 223.889 457.99 225.91 466.152 225.91 C 474.879 225.91 481.425 224.132 485.789 220.415 C 490.234 216.779 492.415 212.415 492.415 207.485 C 492.415 204.333 491.445 201.667 489.667 199.404 C 487.808 197.222 484.576 195.283 479.97 193.667 C 476.818 192.536 469.626 190.596 458.394 187.768 C 443.929 184.132 433.828 179.687 428.01 174.434 C 419.767 167.08 415.727 158.03 415.727 147.444 C 415.727 140.575 417.666 134.191 421.464 128.211 C 425.343 122.231 430.919 117.706 438.111 114.635 C 445.384 111.483 454.111 109.948 464.455 109.948 C 481.182 109.948 493.789 113.665 502.274 121.1 C 510.759 128.535 515.204 138.474 515.608 150.919 L 488.456 151.808 C 487.325 144.939 484.9 139.929 481.102 136.939 C 477.304 133.949 471.647 132.414 464.132 132.414 C 456.293 132.414 450.152 134.03 445.788 137.263 C 442.96 139.364 441.505 142.112 441.505 145.586 C 441.505 148.818 442.879 151.485 445.545 153.748 C 448.939 156.657 457.182 159.647 470.354 162.799 C 483.445 165.87 493.142 169.102 499.445 172.415 C 505.748 175.728 510.677 180.253 514.233 185.991 C 517.788 191.809 519.566 198.92 519.566 207.325 C 519.566 215.002 517.465 222.275 513.182 228.982 C 508.899 235.689 502.838 240.619 495.081 243.851 C 487.242 247.164 477.545 248.78 465.909 248.78 C 448.939 248.78 435.929 244.901 426.878 237.063 C 417.827 229.225 412.413 217.911 410.635 202.961" style="fill: rgb(11, 142, 49); fill-rule: nonzero; stroke-width: 1px;"/>
  <path d="M 50.871 383.085 L 50.871 279.568 L 71.881 279.568 L 71.881 325.387 L 114.144 279.568 L 142.185 279.568 L 103.154 319.892 L 144.205 383.085 L 117.215 383.085 L 88.689 334.518 L 71.881 351.811 L 71.881 383.084 L 50.871 383.085 Z M 198.268 359.408 L 218.066 362.721 C 215.561 369.994 211.52 375.489 206.025 379.287 C 200.53 383.085 193.661 384.944 185.499 384.944 C 172.408 384.944 162.792 380.742 156.569 372.176 C 151.559 365.307 149.135 356.741 149.135 346.236 C 149.135 333.791 152.367 324.094 158.832 317.064 C 165.297 309.953 173.539 306.478 183.479 306.478 C 194.631 306.478 203.439 310.114 209.904 317.549 C 216.288 324.903 219.359 336.216 219.116 351.408 L 169.499 351.408 C 169.661 357.307 171.196 361.913 174.267 365.146 C 177.338 368.459 181.136 370.075 185.661 370.075 C 188.813 370.075 191.398 369.267 193.5 367.57 C 195.602 365.873 197.217 363.125 198.268 359.408 M 199.399 339.286 C 199.318 333.549 197.783 329.104 195.035 326.114 C 192.207 323.124 188.732 321.669 184.691 321.669 C 180.408 321.669 176.852 323.204 174.024 326.356 C 171.196 329.508 169.822 333.871 169.822 339.286 L 199.399 339.286 Z M 269.622 308.013 L 269.622 323.771 L 255.965 323.771 L 255.965 354.236 C 255.965 360.378 256.127 363.933 256.369 364.984 C 256.611 365.954 257.258 366.843 258.147 367.489 C 259.117 368.135 260.167 368.459 261.541 368.459 C 263.4 368.459 265.986 367.893 269.541 366.6 L 271.157 382.035 C 266.551 383.974 261.379 384.944 255.561 384.944 C 252.005 384.944 248.773 384.378 245.864 383.166 C 243.036 381.954 240.935 380.418 239.642 378.479 C 238.268 376.54 237.379 373.954 236.814 370.721 C 236.41 368.378 236.168 363.691 236.168 356.66 L 236.168 323.771 L 227.117 323.771 L 227.117 308.013 L 236.168 308.013 L 236.168 293.144 L 255.966 281.427 L 255.966 308.013 L 269.622 308.013 Z M 326.835 359.408 L 346.633 362.721 C 344.128 369.994 340.087 375.489 334.673 379.287 C 329.178 383.085 322.309 384.944 314.067 384.944 C 301.057 384.944 291.36 380.742 285.137 372.176 C 280.208 365.307 277.703 356.741 277.703 346.236 C 277.703 333.791 280.935 324.094 287.4 317.064 C 293.946 309.953 302.107 306.478 312.047 306.478 C 323.199 306.478 332.007 310.114 338.472 317.549 C 344.856 324.903 348.008 336.216 347.684 351.408 L 298.067 351.408 C 298.229 357.307 299.845 361.913 302.916 365.146 C 305.906 368.459 309.704 370.075 314.229 370.075 C 317.381 370.075 319.966 369.267 322.068 367.57 C 324.17 365.873 325.785 363.125 326.836 359.408 M 328.048 339.286 C 327.886 333.549 326.432 329.104 323.603 326.114 C 320.774 323.124 317.3 321.669 313.259 321.669 C 308.976 321.669 305.42 323.205 302.592 326.357 C 299.764 329.508 298.39 333.872 298.471 339.287 L 328.048 339.286 Z M 432.131 383.085 L 412.333 383.085 L 412.333 344.862 C 412.333 336.781 411.929 331.528 411.04 329.185 C 410.232 326.761 408.858 324.903 406.919 323.609 C 404.98 322.316 402.636 321.67 399.969 321.67 C 396.494 321.67 393.423 322.559 390.676 324.418 C 387.848 326.357 385.989 328.863 384.939 331.933 C 383.969 335.004 383.404 340.741 383.404 349.145 L 383.404 383.085 L 363.606 383.085 L 363.606 308.013 L 381.95 308.013 L 381.95 319.084 C 388.576 310.68 396.819 306.478 406.839 306.478 C 411.203 306.478 415.243 307.286 418.88 308.821 C 422.516 310.437 425.264 312.378 427.123 314.801 C 429.062 317.306 430.355 320.055 431.083 323.206 C 431.81 326.277 432.134 330.721 432.134 336.539 L 432.131 383.085 Z M 466.96 331.205 L 449.02 327.973 C 451.121 320.7 454.596 315.286 459.525 311.73 C 464.454 308.174 471.808 306.477 481.586 306.477 C 490.394 306.477 497.021 307.447 501.304 309.548 C 505.668 311.649 508.738 314.316 510.435 317.548 C 512.213 320.78 513.102 326.679 513.102 335.326 L 512.86 358.438 C 512.86 365.064 513.183 369.913 513.749 373.065 C 514.395 376.217 515.608 379.53 517.305 383.085 L 497.668 383.085 C 497.183 381.792 496.456 379.853 495.729 377.348 C 495.406 376.136 495.163 375.328 495.083 375.005 C 491.689 378.318 488.052 380.823 484.174 382.439 C 480.376 384.136 476.255 384.944 471.891 384.944 C 464.214 384.944 458.153 382.843 453.708 378.722 C 449.263 374.52 447.002 369.186 447.002 362.803 C 447.002 358.601 448.053 354.803 450.073 351.49 C 452.092 348.177 454.922 345.591 458.557 343.894 C 462.193 342.116 467.446 340.581 474.315 339.207 C 483.609 337.51 490.073 335.894 493.628 334.358 L 493.628 332.338 C 493.628 328.54 492.659 325.792 490.8 324.095 C 488.861 322.479 485.305 321.671 480.052 321.671 C 476.496 321.671 473.75 322.317 471.81 323.772 C 469.789 325.146 468.253 327.651 466.961 331.206 M 493.628 347.206 C 491.042 348.095 487.081 349.065 481.507 350.277 C 476.012 351.489 472.376 352.62 470.759 353.752 C 468.173 355.611 466.88 357.873 466.88 360.702 C 466.88 363.531 467.849 365.874 469.951 367.894 C 472.052 369.914 474.638 370.965 477.87 370.965 C 481.426 370.965 484.82 369.753 488.133 367.409 C 490.476 365.631 492.093 363.449 492.82 360.863 C 493.305 359.166 493.628 355.934 493.628 351.166 L 493.628 347.206 Z M 530.8 387.853 L 553.507 390.601 C 553.911 393.268 554.719 395.126 556.093 396.096 C 558.032 397.551 560.942 398.278 564.982 398.278 C 570.235 398.278 574.113 397.47 576.699 395.935 C 578.396 394.884 579.77 393.268 580.659 390.925 C 581.225 389.309 581.548 386.238 581.548 381.794 L 581.629 370.885 C 575.649 379.047 568.134 383.087 559.083 383.087 C 548.982 383.087 540.982 378.804 535.163 370.319 C 530.476 363.612 528.213 355.208 528.213 345.187 C 528.213 332.662 531.203 323.045 537.264 316.419 C 543.325 309.793 550.84 306.479 559.891 306.479 C 569.184 306.479 576.861 310.519 582.841 318.681 L 582.841 308.014 L 601.346 308.014 L 601.346 375.328 C 601.346 384.218 600.618 390.844 599.164 395.207 C 597.709 399.571 595.689 402.965 593.022 405.47 C 590.355 407.975 586.88 409.915 582.436 411.369 C 578.072 412.743 572.496 413.47 565.789 413.47 C 553.021 413.47 544.051 411.288 538.718 406.924 C 533.385 402.56 530.718 396.984 530.718 390.277 C 530.718 389.631 530.718 388.822 530.799 387.853 M 548.577 344.054 C 548.577 351.974 550.112 357.792 553.183 361.509 C 556.254 365.226 560.052 367.004 564.577 367.004 C 569.426 367.004 573.466 365.145 576.86 361.347 C 580.173 357.549 581.87 351.973 581.87 344.539 C 581.87 336.781 580.254 331.044 577.021 327.246 C 573.869 323.529 569.829 321.67 564.9 321.67 C 560.132 321.67 556.253 323.529 553.183 327.165 C 550.112 330.882 548.577 336.458 548.577 344.054 M 635.77 331.205 L 617.83 327.973 C 619.85 320.701 623.324 315.286 628.254 311.73 C 633.183 308.174 640.537 306.477 650.315 306.477 C 659.123 306.477 665.75 307.447 670.113 309.548 C 674.396 311.649 677.467 314.316 679.244 317.548 C 681.021 320.78 681.911 326.679 681.911 335.326 L 681.588 358.438 C 681.588 365.064 681.911 369.913 682.558 373.065 C 683.124 376.217 684.336 379.53 686.114 383.085 L 666.396 383.085 C 665.911 381.792 665.265 379.853 664.537 377.348 C 664.214 376.136 663.971 375.328 663.81 375.005 C 660.416 378.318 656.78 380.823 652.982 382.439 C 649.103 384.136 644.982 384.944 640.618 384.944 C 632.941 384.944 626.88 382.843 622.436 378.722 C 617.991 374.52 615.81 369.186 615.81 362.803 C 615.81 358.601 616.78 354.803 618.8 351.49 C 620.82 348.177 623.649 345.591 627.366 343.894 C 631.002 342.116 636.255 340.581 643.124 339.207 C 652.336 337.51 658.801 335.894 662.357 334.358 L 662.357 332.338 C 662.357 328.54 661.387 325.792 659.529 324.095 C 657.67 322.479 654.034 321.671 648.862 321.671 C 645.306 321.671 642.559 322.317 640.539 323.772 C 638.6 325.146 636.983 327.651 635.771 331.206 M 662.357 347.206 C 659.852 348.095 655.811 349.065 650.316 350.277 C 644.821 351.489 641.185 352.62 639.488 353.752 C 636.902 355.611 635.609 357.873 635.609 360.702 C 635.609 363.531 636.66 365.874 638.68 367.894 C 640.781 369.914 643.448 370.965 646.599 370.965 C 650.155 370.965 653.629 369.753 656.862 367.409 C 659.286 365.631 660.822 363.449 661.63 360.863 C 662.114 359.166 662.357 355.934 662.357 351.166 L 662.357 347.206 Z M 700.742 383.085 L 700.742 279.568 L 720.54 279.568 L 720.54 334.518 L 743.732 308.012 L 768.136 308.012 L 742.6 335.487 L 770.075 383.084 L 748.66 383.084 L 729.67 349.225 L 720.539 359.084 L 720.539 383.084 L 700.742 383.085 Z M 825.269 359.408 L 845.067 362.721 C 842.562 369.994 838.521 375.489 833.026 379.287 C 827.531 383.085 820.662 384.944 812.42 384.944 C 799.41 384.944 789.713 380.742 783.49 372.176 C 778.561 365.307 776.056 356.741 776.056 346.236 C 776.056 333.791 779.369 324.094 785.834 317.064 C 792.299 309.953 800.541 306.478 810.481 306.478 C 821.552 306.478 830.36 310.114 836.825 317.549 C 843.29 324.903 846.361 336.216 846.037 351.408 L 796.501 351.408 C 796.582 357.307 798.198 361.913 801.269 365.146 C 804.34 368.459 808.138 370.075 812.663 370.075 C 815.734 370.075 818.32 369.267 820.421 367.57 C 822.603 365.873 824.138 363.125 825.27 359.408 M 826.401 339.286 C 826.239 333.549 824.785 329.104 821.956 326.114 C 819.127 323.124 815.734 321.669 811.693 321.669 C 807.329 321.669 803.774 323.204 800.945 326.356 C 798.116 329.508 796.743 333.871 796.824 339.286 L 826.401 339.286 Z M 881.271 383.085 L 861.392 383.085 L 861.392 308.013 L 879.817 308.013 L 879.817 318.68 C 882.969 313.67 885.797 310.357 888.302 308.821 C 890.888 307.205 893.716 306.478 896.949 306.478 C 901.474 306.478 905.838 307.69 910.04 310.195 L 903.898 327.488 C 900.504 325.306 897.433 324.256 894.524 324.256 C 891.776 324.256 889.352 324.983 887.494 326.519 C 885.555 328.054 884.019 330.802 882.888 334.842 C 881.757 338.802 881.272 347.206 881.272 359.974 L 881.271 383.085 Z M 918.12 297.912 L 918.12 279.568 L 937.918 279.568 L 937.918 297.912 L 918.12 297.912 Z M 937.918 308.013 L 937.918 380.742 C 937.918 390.278 937.352 396.985 936.059 400.944 C 934.847 404.823 932.423 407.974 928.867 410.156 C 925.311 412.338 920.786 413.469 915.291 413.469 C 913.271 413.469 911.17 413.307 908.907 412.903 C 906.564 412.58 904.139 412.095 901.473 411.368 L 904.867 394.479 C 905.837 394.641 906.726 394.802 907.615 394.964 C 908.423 395.045 909.15 395.126 909.878 395.126 C 911.898 395.126 913.595 394.641 914.888 393.833 C 916.181 392.944 917.07 391.894 917.474 390.601 C 917.959 389.389 918.12 385.752 918.12 379.611 L 918.12 308.014 L 937.918 308.013 Z M 973.474 331.205 L 955.534 327.973 C 957.554 320.7 961.11 315.286 966.039 311.73 C 970.968 308.174 978.322 306.477 988.019 306.477 C 996.908 306.477 1003.53 307.447 1007.82 309.548 C 1012.18 311.649 1015.25 314.316 1016.95 317.548 C 1018.73 320.78 1019.62 326.679 1019.62 335.326 L 1019.37 358.438 C 1019.37 365.064 1019.62 369.913 1020.26 373.065 C 1020.91 376.217 1022.12 379.53 1023.82 383.085 L 1004.18 383.085 C 1003.62 381.792 1002.97 379.853 1002.24 377.348 C 1001.92 376.136 1001.68 375.328 1001.51 375.005 C 998.202 378.318 994.565 380.823 990.687 382.439 C 986.889 384.136 982.768 384.944 978.404 384.944 C 970.727 384.944 964.666 382.843 960.222 378.722 C 955.777 374.52 953.515 369.186 953.515 362.803 C 953.515 358.601 954.566 354.803 956.586 351.49 C 958.606 348.177 961.435 345.591 965.071 343.894 C 968.707 342.116 973.96 340.581 980.829 339.207 C 990.122 337.51 996.506 335.894 1000.14 334.358 L 1000.14 332.338 C 1000.14 328.54 999.172 325.792 997.314 324.095 C 995.375 322.479 991.819 321.671 986.566 321.671 C 983.01 321.671 980.263 322.317 978.323 323.772 C 976.303 325.146 974.767 327.651 973.474 331.206 M 1000.14 347.206 C 997.555 348.095 993.515 349.065 988.02 350.277 C 982.525 351.489 978.889 352.62 977.272 353.752 C 974.686 355.611 973.393 357.873 973.393 360.702 C 973.393 363.531 974.363 365.874 976.464 367.894 C 978.565 369.914 981.151 370.965 984.383 370.965 C 987.939 370.965 991.333 369.753 994.646 367.409 C 996.989 365.631 998.606 363.449 999.333 360.863 C 999.818 359.166 1000.14 355.934 1000.14 351.166 L 1000.14 347.206 Z M 1053.96 331.206 L 1036.02 327.974 C 1038.04 320.701 1041.52 315.287 1046.44 311.731 C 1051.37 308.175 1058.73 306.478 1068.51 306.478 C 1077.31 306.478 1083.94 307.448 1088.3 309.549 C 1092.59 311.65 1095.66 314.317 1097.43 317.549 C 1099.13 320.781 1100.02 326.68 1100.02 335.327 L 1099.78 358.439 C 1099.78 365.065 1100.1 369.914 1100.75 373.066 C 1101.31 376.218 1102.53 379.531 1104.22 383.086 L 1084.59 383.086 C 1084.1 381.793 1083.45 379.854 1082.65 377.349 C 1082.4 376.137 1082.16 375.329 1082 375.006 C 1078.61 378.319 1074.97 380.824 1071.17 382.44 C 1067.29 384.137 1063.17 384.945 1058.81 384.945 C 1051.13 384.945 1045.07 382.844 1040.63 378.723 C 1036.18 374.521 1034 369.187 1034 362.804 C 1034 358.602 1034.97 354.804 1036.99 351.491 C 1039.01 348.178 1041.84 345.592 1045.48 343.895 C 1049.19 342.117 1054.45 340.582 1061.32 339.208 C 1070.53 337.511 1076.99 335.895 1080.55 334.359 L 1080.55 332.339 C 1080.55 328.541 1079.58 325.793 1077.72 324.096 C 1075.78 322.48 1072.22 321.672 1067.05 321.672 C 1063.5 321.672 1060.75 322.318 1058.73 323.773 C 1056.71 325.147 1055.17 327.652 1053.96 331.207 M 1080.55 347.207 C 1078.04 348.096 1074 349.066 1068.43 350.278 C 1062.93 351.49 1059.38 352.621 1057.68 353.753 C 1055.09 355.612 1053.8 357.874 1053.8 360.703 C 1053.8 363.532 1054.85 365.875 1056.87 367.895 C 1058.97 369.915 1061.56 370.966 1064.79 370.966 C 1068.35 370.966 1071.82 369.754 1075.05 367.41 C 1077.4 365.632 1079.01 363.45 1079.74 360.864 C 1080.31 359.167 1080.55 355.935 1080.55 351.167 L 1080.55 347.207 Z M 1187.86 383.086 L 1168.07 383.086 L 1168.07 344.863 C 1168.07 336.782 1167.58 331.529 1166.77 329.186 C 1165.88 326.762 1164.51 324.903 1162.57 323.61 C 1160.71 322.317 1158.37 321.671 1155.7 321.671 C 1152.23 321.671 1149.08 322.56 1146.33 324.419 C 1143.58 326.358 1141.72 328.864 1140.67 331.934 C 1139.62 335.004 1139.13 340.742 1139.13 349.146 L 1139.13 383.086 L 1119.34 383.086 L 1119.34 308.014 L 1137.68 308.014 L 1137.68 319.085 C 1144.23 310.681 1152.55 306.479 1162.57 306.479 C 1166.93 306.479 1170.97 307.287 1174.61 308.822 C 1178.25 310.438 1180.99 312.378 1182.85 314.802 C 1184.71 317.307 1186.01 320.055 1186.73 323.206 C 1187.54 326.277 1187.86 330.721 1187.86 336.54 L 1187.86 383.086 Z" style="fill: rgb(9, 108, 140); fill-rule: nonzero; stroke-width: 1px;"/>
  <path d="M -70.262 143.97 C -65.656 147.768 -61.373 151.647 -57.252 155.607 C -54.989 157.95 -52.565 160.456 -50.06 163.203 C -29.373 186.395 -17.575 213.224 -17.575 241.911 C -17.575 329.347 -127.64 400.217 -263.4 400.217 C -278.11 400.217 -292.49 399.409 -306.47 397.793 C -286.27 392.46 -238.67 378.56 -209.98 359.974 C -172.81 335.974 -131.76 296.943 -117.05 276.013 C -102.34 255.083 -86.182 227.123 -78.101 192.779 C -70.99 162.718 -70.343 147.364 -70.262 143.97" style="fill: rgb(9, 108, 140); stroke-width: 1px;"/>
</svg>