<svg xmlns="http://www.w3.org/2000/svg" viewBox="-42.524 -19.544 86.855 24" style="shape-rendering:geometricprecision" width="86.855" height="24">
  <path class="fil0" d="m-33.227-4.696 1.895-1.704h-2.099v-2.34h.989l-1.85-1.676-1.777 1.649h.907v2.811c.006.87.152 1.263.907 1.272zm5.718-5.708L-29.404-8.7h2.099v2.34h-.989l1.85 1.676 1.774-1.649h-.907v-2.811c-.006-.87-.149-1.263-.907-1.272zm-.006 5.714-1.704-1.895v2.099h-2.338v-.989l-1.679 1.85 1.652 1.774v-.907h2.81c.87-.006 1.263-.149 1.272-.907zm-5.706-5.72 1.701 1.895v-2.099h2.341v.989l1.676-1.85-1.649-1.777v.907h-2.81c-.87.006-1.266.152-1.275.907z" style="fill:#3c893f;stroke-width:1px"/>
  <path class="fil1" d="M-40.782-12.771c-.237.383-.441.383-.621 2.011-.183 1.625.852 3.338.852 3.338s-.106-.785.386-1.433c.496-.648 1.482-1.609 1.944-2.258s.581-1.476.581-1.476a3.3 3.3 0 0 1-1.397.301 3.37 3.37 0 0 1-1.746-.484m4.135-2.86a2.396 2.396 0 1 1-4.792.002 2.396 2.396 0 0 1 4.792-.002m.332-2.017s1.841-1.33 3.691-1.588 4.501.183 4.501.183-1.278.091-2.075.557c-.793.469-1.428 1.184-2.372 2.035-.943.849-1.609 1.406-2.276 1.719a2.6 2.6 0 0 1-1.004.262 3.38 3.38 0 0 0-.465-3.167" style="fill:#1c4596;stroke-width:1px"/>
  <path class="fil0" d="M-35.482 2.977c.383.24.386.441 2.011.621 1.625.183 3.336-.849 3.336-.849s-.783.106-1.431-.389S-33.175.881-33.824.419c-.645-.462-1.476-.584-1.476-.584.195.426.301.898.301 1.397 0 .639-.176 1.235-.484 1.746m-2.86-4.135a2.396 2.396 0 1 1 .002 4.796 2.396 2.396 0 0 1-.002-4.796m-2.017-.332s-1.33-1.841-1.588-3.691.186-4.503.186-4.503.088 1.281.557 2.075c.466.794 1.18 1.43 2.032 2.373.849.943 1.406 1.609 1.719 2.276.204.429.253.797.262 1.004a3.41 3.41 0 0 0-3.167.465" style="fill:#3c893f;stroke-width:1px"/>
  <path class="fil1" d="M-19.957-2.329c.24-.383.441-.386.624-2.011.18-1.625-.852-3.338-.852-3.338s.106.785-.389 1.433c-.493.648-1.479 1.609-1.941 2.258-.462.645-.584 1.476-.584 1.476a3.35 3.35 0 0 1 1.397-.301 3.36 3.36 0 0 1 1.746.484m-4.135 2.86a2.396 2.396 0 1 1 4.794 0 2.396 2.396 0 1 1-4.794 0m-.329 2.017s-1.841 1.33-3.691 1.588-4.504-.186-4.504-.186 1.281-.088 2.075-.557c.796-.465 1.428-1.18 2.372-2.032.943-.849 1.609-1.406 2.276-1.719a2.6 2.6 0 0 1 1.007-.262 3.3 3.3 0 0 0-.201 1.15c0 .755.246 1.451.666 2.017" style="fill:#1c4596;stroke-width:1px"/>
  <path class="fil0" d="M-25.257-18.077c-.38-.24-.383-.441-2.008-.624-1.625-.18-3.339.852-3.339.852s.786-.106 1.435.389c.645.493 1.606 1.479 2.254 1.941s1.476.584 1.476.584a3.4 3.4 0 0 1-.298-1.397c0-.639.176-1.235.481-1.746m2.86 4.134a2.398 2.398 0 0 1 0-4.794 2.398 2.398 0 0 1 0 4.794m2.02.332s1.33 1.841 1.588 3.691-.186 4.503-.186 4.503-.088-1.281-.557-2.075c-.466-.797-1.184-1.43-2.032-2.373-.852-.943-1.406-1.609-1.722-2.276a2.7 2.7 0 0 1-.259-1.004 3.41 3.41 0 0 0 3.164-.465z" style="fill:#3c893f;stroke-width:1px"/>
  <path class="fil2" d="M-14.271-6.576v-7.095h2.315q.462-.001.782.116.319.114.52.329.198.213.286.508c.088.295.088.414.088.648q0 .447-.07.767c-.07.32-.116.389-.207.532q-.14.212-.344.332a1.5 1.5 0 0 1-.462.176q.593.027.94.383.347.36.347 1.071 0 1.168-.459 1.701-.457.53-1.466.532zm1.981-.612q.539-.001.794-.326.252-.325.253-1.047a4 4 0 0 0-.04-.639 1.2 1.2 0 0 0-.14-.42.52.52 0 0 0-.265-.231 1 1 0 0 0-.408-.07h-1.028v2.732zm.113-3.289q.434 0 .63-.319.194-.32.195-.958 0-.712-.183-.995-.18-.283-.624-.283h-.964v2.556zm4.594.52q.279 0 .466-.079a.7.7 0 0 0 .316-.265q.124-.186.18-.49.059-.307.058-.761.001-.444-.049-.733a1.3 1.3 0 0 0-.143-.453.5.5 0 0 0-.256-.231 1 1 0 0 0-.386-.064h-.91v3.076zm-1.871 3.38v-7.095h2.221q.502 0 .852.11.356.113.566.335.214.223.31.56c.096.337.097.49.097.791q0 .724-.1 1.211-.104.485-.344.782c-.24.297-.371.338-.636.426a3.2 3.2 0 0 1-.977.131h-.843v2.105c.006.511-.462.633-1.147.645m5.732-7.095c.392-.033 1.113.195 1.141.733v4.722q0 1.767-1.929 1.768-.943.001-1.348-.408a1.3 1.3 0 0 1-.277-.42c-.119-.313.347-.551.59-.201.027.064.091.113.134.164q.207.252.706.253.529 0 .758-.253.224-.255.225-.84zm2.294 5.896q.119.21.31.356.315.239.785.24a1.17 1.17 0 0 0 .785-.301q.15-.144.24-.353a1.2 1.2 0 0 0 .088-.469 1.13 1.13 0 0 0-.243-.721 1.6 1.6 0 0 0-.262-.256 11 11 0 0 0-.329-.234q-.4-.26-.736-.505a3 3 0 0 1-.59-.523c-.164-.186-.298-.392-.392-.618s-.143-.493-.143-.8q-.001-.397.125-.733.124-.332.371-.578.243-.246.596-.383.35-.14.806-.14c.396 0 .733.091 1.019.274q.415.265.566.739c.1.204-.426.459-.584.146q-.096-.164-.246-.274a.97.97 0 0 0-.605-.189q-.493-.001-.767.268-.27.27-.271.758-.002.41.207.678.21.269.52.484.31.22.675.417.365.201.675.466.311.263.517.633.21.37.21.928 0 .434-.149.803-.146.373-.426.642a2 2 0 0 1-.682.42q-.402.151-.91.152c-.438 0-.825-.106-1.153-.323a1.85 1.85 0 0 1-.621-.688c-.189-.347.432-.645.612-.316" style="fill:#1c4596;fill-rule:nonzero;stroke-width:1px"/>
  <path class="fil3" d="M41.939-7.042v-3.706q0-.438-.192-.593-.19-.158-.596-.158-.333 0-.621.158a1.1 1.1 0 0 0-.417.35v3.937c0 .362-.682.569-1.092.602v-6.143c.578.018 1.08.417 1.092.627v.377q.214-.278.63-.493t.971-.213q.67 0 .992.356c.322.356.326.608.326 1.107v4.381c-.584.033-1.077-.173-1.092-.59m-8.157.405a1.2 1.2 0 0 1-.24.1q-.275.09-.718.088-.704 0-1.101-.429-.398-.432-.399-1.202v-3.639h-.435v-.566h.435v-1.129c.858-.006 1.071.313 1.083.511v.608h1.111v.575h-1.111v3.639q0 .475.189.736.193.264.608.265.27.002.426-.061c.377-.094.49.374.152.502m-4.393-.344v-.283q-.187.382-.557.599a1.7 1.7 0 0 1-.87.216q-.761 0-1.135-.42-.374-.423-.374-1.171-.001-.753.295-1.15c.296-.397.505-.469.916-.612q.205-.074.432-.116l.444-.082q.22-.04.417-.103.2-.06.338-.161v-.584q0-.451-.186-.685-.183-.232-.703-.231-.39.001-.672.17a1.1 1.1 0 0 0-.316.304c-.338.319-.761-.149-.532-.399q.238-.336.59-.508a2.3 2.3 0 0 1 1.013-.225q.391-.002.736.061c.234.04.432.116.602.231q.254.17.405.481.146.312.146.809v4.378c-.578.021-.98-.082-.989-.548zm-.085-2.775q-.184.105-.435.164c-.251.059-.326.085-.481.134q-.465.146-.666.453-.205.306-.204.797 0 .555.198.809.2.256.627.256a1 1 0 0 0 .572-.167q.252-.166.389-.462zm-4.5 2.717v-3.709q0-.434-.192-.593-.19-.155-.596-.155-.333 0-.621.155a1.2 1.2 0 0 0-.417.353v3.97c-.012.359-.542.563-1.092.569l-.006-7.217c.429-.033 1.071.253 1.098.593v1.482q.215-.277.63-.49c.415-.213.602-.213.974-.213q.665 0 .989.356.327.355.326 1.107v4.381c-.411.015-1.092-.116-1.092-.59m-11.16-.414q.064.063.137.116.305.223.733.222.444 0 .66-.231.219-.233.219-.593 0-.251-.073-.42a1 1 0 0 0-.192-.292 1 1 0 0 0-.268-.201 5 5 0 0 0-.31-.143 5 5 0 0 1-.645-.301 2.3 2.3 0 0 1-.505-.365q-.212-.205-.332-.469c-.12-.264-.122-.38-.122-.615q.001-.419.134-.733.136-.314.377-.523.241-.207.569-.313.329-.108.718-.106.47.001.885.17.292.123.475.392c.222.319-.249.666-.572.335a1 1 0 0 0-.146-.106 1.1 1.1 0 0 0-.56-.143q-.183 0-.356.046a.9.9 0 0 0-.301.143.7.7 0 0 0-.204.246.8.8 0 0 0-.073.362q0 .352.195.545.193.195.487.326.288.128.63.243.338.119.63.31c.192.131.356.301.484.511q.196.314.195.852.001.406-.143.73-.141.324-.392.548a1.8 1.8 0 0 1-.599.344 2.3 2.3 0 0 1-.745.119q-.667.001-1.138-.268a1.6 1.6 0 0 1-.414-.344c-.338-.374.021-.825.563-.392m-2.343-2.583c-.052-.703-.082-1.862-1.013-1.862-.937 0-1.05 1.211-1.059 1.85zm.666 2.626q-.074.197-.198.371c-.124.174-.186.219-.316.307s-.295.158-.49.207a2.8 2.8 0 0 1-.718.076c-.748 0-1.281-.237-1.661-.645-.739-.794-.828-3.657-.082-4.615.389-.502.879-.834 1.521-.834 1.917 0 2.084 1.436 2.172 3.024H9.149c-.037 1.144-.158 2.416 1.25 2.428.307.003.542-.061.7-.18.155-.119.228-.231.319-.338.283-.313.657-.037.551.198" style="fill:#3c893f;fill-rule:nonzero;stroke-width:1px"/>
  <path class="fil3" d="m6.442-7.075-1.004-3.179-.715.961v2.288c.006.411-.776.557-1.147.557v-7.095c.341-.015 1.141.119 1.147.706v2.534l2.315-3.24c.249-.277.828-.094.745.07l-1.561 2.172 1.649 4.853c-.396.003-1.254.046-1.43-.627m14.029-2.96c-.055-.703-.085-1.862-1.016-1.862-.934 0-1.047 1.211-1.056 1.85zm.663 2.626q-.073.197-.195.371c-.122.174-.189.219-.319.307s-.292.158-.487.207a3 3 0 0 1-.721.076c-.748 0-1.278-.237-1.661-.645-.736-.794-.825-3.657-.082-4.615.389-.502.882-.834 1.521-.834 1.92 0 2.084 1.436 2.175 3.024h-3.049c-.04 1.144-.158 2.416 1.25 2.428.307.003.542-.061.697-.18.158-.119.228-.231.323-.338.28-.313.654-.037.548.198m15.994.429v-.283q-.187.382-.557.599a1.7 1.7 0 0 1-.87.216q-.761 0-1.135-.42-.374-.423-.374-1.171-.001-.753.295-1.15c.296-.397.502-.469.916-.612q.205-.074.432-.116l.444-.082q.218-.04.417-.103.2-.06.338-.161v-.584q0-.451-.186-.685-.183-.232-.703-.231-.39.001-.672.17a1.1 1.1 0 0 0-.316.304c-.338.319-.761-.149-.535-.399q.242-.336.593-.508a2.3 2.3 0 0 1 1.013-.225q.391-.002.736.061.347.06.602.231.254.17.405.481.146.312.146.809v4.378c-.578.021-.98-.082-.989-.548zm-.085-2.775q-.184.105-.435.164c-.251.059-.326.085-.481.134q-.465.146-.666.453-.205.306-.204.797-.002.555.198.809c.2.254.341.256.627.256a1 1 0 0 0 .572-.167q.252-.166.389-.462z" style="fill:#3c893f;fill-rule:nonzero;stroke-width:1px"/>
  <path class="fil2" d="M-14.475-1.967v-2.468h.928q.282 0 .453.073.17.077.268.231c.098.154.097.213.097.326a.57.57 0 0 1-.344.523.66.66 0 0 1 .344.225.6.6 0 0 1 .119.374q0 .173-.073.323c-.073.15-.11.176-.18.228a.8.8 0 0 1-.271.122c-.11.03-.24.043-.399.043zm.329-1.43h.532q.218 0 .313-.03a.35.35 0 0 0 .189-.122.37.37 0 0 0 .061-.216.4.4 0 0 0-.058-.216.3.3 0 0 0-.167-.131 1.5 1.5 0 0 0-.377-.033h-.493zm0 1.141h.615q.159 0 .222-.012a.5.5 0 0 0 .189-.067.36.36 0 0 0 .125-.137.43.43 0 0 0 .049-.21.4.4 0 0 0-.07-.24.37.37 0 0 0-.198-.143 1.2 1.2 0 0 0-.359-.043h-.572zm3.116.064a1.1 1.1 0 0 1-.326.204.9.9 0 0 1-.335.061q-.293 0-.453-.146a.48.48 0 0 1-.158-.365.5.5 0 0 1 .061-.24q.059-.11.155-.173.1-.064.219-.1.09-.022.271-.046.366-.04.542-.104v-.079q.001-.182-.085-.259-.114-.104-.347-.103a.55.55 0 0 0-.316.076q-.102.075-.149.265l-.298-.04a.7.7 0 0 1 .134-.307.6.6 0 0 1 .268-.183q.177-.06.408-.061.228-.002.374.052.141.055.21.137a.5.5 0 0 1 .094.207q.014.077.015.277v.405q0 .419.018.532c.018.113.04.146.076.216h-.316a.7.7 0 0 1-.061-.225m-.024-.669q-.164.066-.496.113a1 1 0 0 0-.265.061.26.26 0 0 0-.162.24q0 .119.091.201a.4.4 0 0 0 .268.079.6.6 0 0 0 .313-.076.46.46 0 0 0 .201-.207.7.7 0 0 0 .049-.301zm1.929.894v-.228a.56.56 0 0 1-.499.268q-.214 0-.392-.119a.8.8 0 0 1-.28-.329 1.15 1.15 0 0 1-.097-.484q0-.269.088-.487a.71.71 0 0 1 .667-.448.59.59 0 0 1 .493.247v-.888h.304v2.468zm-.958-.891q0 .342.146.511a.433.433 0 0 0 .679.009q.14-.164.14-.496 0-.365-.14-.536a.436.436 0 0 0-.691-.009q-.133.165-.134.52m2.89.666a1.1 1.1 0 0 1-.326.204.9.9 0 0 1-.335.061q-.298 0-.453-.146a.47.47 0 0 1-.161-.365.49.49 0 0 1 .219-.413.8.8 0 0 1 .216-.1 3 3 0 0 1 .271-.046 2.5 2.5 0 0 0 .542-.104l.003-.079q0-.182-.088-.259-.115-.104-.344-.103-.215.001-.316.076-.104.075-.152.265l-.298-.04a.7.7 0 0 1 .134-.307.6.6 0 0 1 .271-.183 1.3 1.3 0 0 1 .405-.061q.233-.002.374.052c.141.054.167.082.21.137a.5.5 0 0 1 .097.207q.013.077.012.277v.405q.001.419.021.532c.02.113.037.146.073.216h-.316a.6.6 0 0 1-.058-.225m-.024-.669a2.4 2.4 0 0 1-.499.113 1 1 0 0 0-.265.061.26.26 0 0 0-.162.24q0 .119.091.201.092.079.271.079a.6.6 0 0 0 .31-.076.46.46 0 0 0 .201-.207.7.7 0 0 0 .049-.301zm.773.894v-1.789h.271v.256a.64.64 0 0 1 .569-.292c.106 0 .207.018.295.058a.45.45 0 0 1 .204.152.6.6 0 0 1 .094.222q.018.086.018.295v1.098h-.304v-1.086a.8.8 0 0 0-.037-.277.27.27 0 0 0-.125-.146.4.4 0 0 0-.21-.055q-.192 0-.335.122-.138.123-.14.466v.977zm2.912 0v-2.468h.931q.246 0 .377.024a.7.7 0 0 1 .304.113.72.72 0 0 1 .274.575q0 .314-.201.532-.202.215-.724.216h-.633v1.007zm.329-1.296h.636q.319 0 .45-.119c.131-.119.134-.189.134-.332q0-.155-.079-.265c-.079-.11-.122-.122-.207-.146a1.4 1.4 0 0 0-.304-.021h-.63zm3.148.717.313.04a.76.76 0 0 1-.274.426.8.8 0 0 1-.508.152q-.393 0-.621-.243c-.155-.158-.231-.386-.231-.675q.002-.45.231-.7.233-.246.602-.246a.75.75 0 0 1 .584.243q.228.241.228.685l-.003.082h-1.331q.018.292.167.45.151.155.374.155.165 0 .283-.088a.6.6 0 0 0 .186-.28m-.992-.487h.995a.6.6 0 0 0-.113-.338.46.46 0 0 0-.374-.176q-.21 0-.35.14c-.14.14-.149.219-.158.374M.644-1.966v-1.789h.274v.256a.64.64 0 0 1 .569-.292c.106 0 .207.018.295.058a.45.45 0 0 1 .204.152.6.6 0 0 1 .094.222q.014.086.015.295v1.098h-.301v-1.086q0-.187-.037-.277c-.037-.09-.064-.11-.125-.146q-.091-.055-.21-.055c-.131 0-.24.04-.335.122s-.14.237-.14.466v.977zm1.905.688-.033-.28q.096.027.173.027a.35.35 0 0 0 .161-.033.3.3 0 0 0 .1-.094q.027-.046.091-.228l.027-.073-.678-1.797h.323l.374 1.035c.049.128.091.268.131.411.033-.134.076-.271.125-.402l.38-1.044h.304l-.675 1.82a3 3 0 0 1-.173.405.6.6 0 0 1-.186.219.44.44 0 0 1-.249.07.6.6 0 0 1-.195-.037m2.957-1.266.313.04q-.073.275-.274.426c-.201.151-.301.152-.511.152q-.388 0-.621-.243c-.152-.158-.228-.386-.228-.675q0-.45.231-.7.233-.246.602-.246.356-.001.584.243.228.241.228.685l-.003.082H4.494q.018.292.167.45.149.155.371.155.168 0 .286-.088c.118-.088.14-.152.186-.28m-.992-.487h.995a.6.6 0 0 0-.113-.338.46.46 0 0 0-.377-.176q-.207 0-.35.14c-.143.14-.146.219-.155.374m1.682 1.065v-2.468h.304v2.468zm1.993-.578.313.04q-.073.275-.274.426c-.201.151-.304.152-.511.152q-.389 0-.621-.243c-.152-.158-.228-.386-.228-.675q0-.45.231-.7.233-.246.602-.246.356-.001.584.243.224.241.225.685v.082H7.175q.018.292.167.45a.5.5 0 0 0 .371.155q.17 0 .283-.088a.6.6 0 0 0 .189-.28m-.992-.487h.995a.6.6 0 0 0-.116-.338.45.45 0 0 0-.374-.176q-.207 0-.35.14c-.143.14-.146.219-.155.374m1.689 1.065v-1.789h.271v.256a.65.65 0 0 1 .569-.292q.163-.001.298.058a.44.44 0 0 1 .201.152.5.5 0 0 1 .094.222q.018.086.018.295v1.098h-.304v-1.086a.9.9 0 0 0-.033-.277.3.3 0 0 0-.125-.146.4.4 0 0 0-.213-.055q-.193 0-.332.122-.14.123-.14.466v.977zm1.862.149.292.04q.018.136.103.201a.5.5 0 0 0 .307.082q.21 0 .326-.082a.42.42 0 0 0 .155-.237q.024-.091.021-.386a.62.62 0 0 1-.493.234q-.37 0-.572-.265a1 1 0 0 1-.204-.639q.001-.256.094-.472c.093-.216.149-.256.268-.335a.7.7 0 0 1 .414-.116q.315-.001.52.259v-.222h.28v1.546q.001.417-.085.59a.6.6 0 0 1-.268.277.94.94 0 0 1-.453.1.87.87 0 0 1-.517-.143q-.197-.145-.189-.432m.246-1.074q.002.351.14.511.14.163.35.161c.21-.002.259-.052.353-.158s.14-.277.14-.505q0-.326-.146-.493-.145-.168-.35-.167c-.205.001-.249.055-.344.164s-.143.271-.143.487m1.67 1.074.292.04q.018.137.103.201.115.082.307.082.21 0 .326-.082a.42.42 0 0 0 .155-.237q.024-.091.021-.386a.62.62 0 0 1-.493.234q-.37 0-.572-.265a1.03 1.03 0 0 1-.204-.639q.001-.256.094-.472c.093-.216.152-.256.268-.335a.73.73 0 0 1 .414-.116q.317-.001.52.259v-.222h.28v1.546q.001.417-.085.59-.084.175-.268.277c-.184.102-.274.1-.453.1a.87.87 0 0 1-.517-.143q-.197-.145-.189-.432m.246-1.074q.002.352.14.511a.44.44 0 0 0 .353.161q.207 0 .35-.158c.143-.158.14-.277.14-.505 0-.216-.049-.383-.146-.493a.44.44 0 0 0-.35-.167q-.201 0-.344.164c-.143.164-.143.271-.143.487m2.893.7a1.1 1.1 0 0 1-.323.204 1 1 0 0 1-.338.061q-.293 0-.453-.146a.48.48 0 0 1-.158-.365.49.49 0 0 1 .219-.413.8.8 0 0 1 .216-.1 3 3 0 0 1 .271-.046q.366-.04.542-.104v-.079q.001-.182-.085-.259-.114-.104-.347-.103a.55.55 0 0 0-.316.076q-.1.075-.149.265l-.298-.04a.7.7 0 0 1 .134-.307.6.6 0 0 1 .268-.183q.18-.06.408-.061c.228-.001.277.015.374.052a.5.5 0 0 1 .21.137.5.5 0 0 1 .094.207q.016.077.015.277v.405q0 .419.021.532a.7.7 0 0 0 .073.216h-.316a.7.7 0 0 1-.061-.225m-.024-.669q-.164.066-.496.113a1 1 0 0 0-.265.061.26.26 0 0 0-.162.24q0 .119.091.201a.4.4 0 0 0 .268.079.6.6 0 0 0 .313-.076.46.46 0 0 0 .201-.207.7.7 0 0 0 .049-.301zm.77.894v-1.789h.274v.274a.7.7 0 0 1 .192-.249.33.33 0 0 1 .195-.061.6.6 0 0 1 .313.094l-.11.28a.4.4 0 0 0-.219-.061.3.3 0 0 0-.18.058.33.33 0 0 0-.11.167 1.1 1.1 0 0 0-.052.353v.934zm2.321-.225q-.17.145-.326.204a.75.75 0 0 1-.335.061q-.296 0-.453-.146a.47.47 0 0 1-.158-.365.49.49 0 0 1 .216-.413q.096-.064.219-.1a3 3 0 0 1 .268-.046 2.5 2.5 0 0 0 .542-.104q.004-.06.003-.079-.001-.182-.085-.259-.119-.104-.347-.103-.215.001-.316.076c-.07.049-.119.14-.152.265l-.295-.04a.7.7 0 0 1 .134-.307.57.57 0 0 1 .268-.183q.175-.06.408-.061.229-.002.371.052a.5.5 0 0 1 .213.137.5.5 0 0 1 .094.207q.014.077.015.277v.405q0 .419.018.532c.018.113.037.146.073.216h-.316a.7.7 0 0 1-.058-.225m-.024-.669q-.166.066-.496.113a1 1 0 0 0-.268.061q-.075.033-.119.097c-.044.064-.043.091-.043.143q0 .119.091.201a.4.4 0 0 0 .271.079.6.6 0 0 0 .31-.076.46.46 0 0 0 .201-.207.7.7 0 0 0 .049-.301zm1.603.195.292-.043c.009.192.043.319.106.389q.093.104.259.103.125 0 .213-.055c.088-.055.1-.088.122-.152q.035-.1.033-.31v-1.701h.329v1.683q.001.307-.076.478a.52.52 0 0 1-.237.259.75.75 0 0 1-.38.091q-.323 0-.496-.189c-.173-.189-.17-.307-.164-.554m3.018.475a1.1 1.1 0 0 1-.326.204.9.9 0 0 1-.335.061q-.293 0-.453-.146a.48.48 0 0 1-.158-.365.5.5 0 0 1 .061-.24q.059-.11.155-.173a.8.8 0 0 1 .219-.1q.09-.022.271-.046.366-.04.542-.104v-.079q.001-.182-.085-.259c-.079-.07-.192-.103-.347-.103a.55.55 0 0 0-.316.076c-.067.049-.119.14-.149.265l-.298-.04a.7.7 0 0 1 .134-.307.6.6 0 0 1 .268-.183q.177-.06.408-.061.228-.002.374.052.141.055.21.137a.5.5 0 0 1 .094.207q.014.077.015.277v.405q0 .419.018.532c.018.113.04.146.076.216h-.319a.7.7 0 0 1-.058-.225m-.024-.669q-.164.066-.496.113a1 1 0 0 0-.265.061.26.26 0 0 0-.162.24q0 .119.091.201a.4.4 0 0 0 .268.079.6.6 0 0 0 .313-.076.46.46 0 0 0 .201-.207.8.8 0 0 0 .049-.301zm.773.894v-1.789h.274v.253a.62.62 0 0 1 .541-.289q.197 0 .326.082a.44.44 0 0 1 .176.228q.216-.31.554-.31.269 0 .411.146.146.146.146.453v1.226h-.304v-1.126a.8.8 0 0 0-.03-.262c-.018-.055-.055-.094-.106-.128s-.113-.049-.183-.049a.42.42 0 0 0-.313.125q-.124.123-.125.402v1.037h-.304v-1.162q0-.201-.073-.301-.074-.1-.243-.1a.4.4 0 0 0-.234.067.4.4 0 0 0-.158.198 1.1 1.1 0 0 0-.049.371v.928zm2.872-2.124v-.344h.304v.344zm0 2.124v-1.789h.304v1.789zm.767 0v-1.789h.271v.256a.65.65 0 0 1 .569-.292q.163-.001.298.058a.44.44 0 0 1 .201.152.6.6 0 0 1 .094.222q.018.086.018.295v1.098H29v-1.086a.9.9 0 0 0-.033-.277q-.037-.091-.128-.146-.087-.055-.21-.055-.193 0-.332.122-.142.123-.143.466v.977zm3.085-.225q-.17.145-.326.204a.75.75 0 0 1-.335.061q-.296 0-.453-.146a.47.47 0 0 1-.158-.365.5.5 0 0 1 .061-.24q.059-.11.155-.173t.219-.1q.09-.022.271-.046c.243-.027.426-.061.539-.104q.004-.06.003-.079.001-.182-.085-.259-.119-.104-.347-.103-.216.001-.316.076c-.1.075-.119.14-.152.265l-.295-.04a.7.7 0 0 1 .134-.307.6.6 0 0 1 .268-.183q.175-.06.408-.061.228-.002.374.052.141.055.21.137a.5.5 0 0 1 .094.207q.014.077.015.277v.405q0 .419.018.532c.018.113.037.146.073.216h-.316a.7.7 0 0 1-.058-.225m-.024-.669q-.166.066-.496.113a1 1 0 0 0-.265.061.3.3 0 0 0-.122.097.27.27 0 0 0-.043.143q-.001.119.094.201.09.079.268.079a.6.6 0 0 0 .313-.076.47.47 0 0 0 .198-.207.7.7 0 0 0 .049-.301zm.773.894V-3.75h.274v.256q.196-.292.566-.292.163-.001.298.058a.45.45 0 0 1 .204.152.6.6 0 0 1 .094.222q.014.086.015.295v1.098h-.304v-1.086q.002-.186-.033-.277c-.035-.091-.067-.11-.125-.146a.49.49 0 0 0-.545.067q-.141.123-.14.466v.977zm2.805-.791.307-.03a.7.7 0 0 0 .103.307q.078.119.246.192a.9.9 0 0 0 .38.073q.187 0 .329-.055a.47.47 0 0 0 .213-.152q.07-.1.07-.213c0-.113-.024-.143-.067-.201a.5.5 0 0 0-.222-.146 5 5 0 0 0-.441-.119q-.338-.082-.475-.155-.178-.093-.265-.231c-.087-.138-.085-.195-.085-.307q.001-.186.106-.35.105-.16.31-.246.203-.084.45-.085.274 0 .484.088a.7.7 0 0 1 .323.262.74.74 0 0 1 .122.389l-.313.024a.5.5 0 0 0-.17-.353q-.146-.122-.429-.122-.299 0-.432.11a.33.33 0 0 0-.137.262q0 .132.097.219.092.086.49.176c.268.061.447.113.548.158a.7.7 0 0 1 .316.25q.104.152.103.35c-.001.198-.037.256-.113.371s-.183.207-.323.271a1.15 1.15 0 0 1-.478.097q-.333 0-.56-.097-.225-.1-.353-.295c-.128-.195-.131-.277-.137-.441m2.254-.103q-.001-.497.277-.733a.83.83 0 0 1 .563-.198q.37 0 .602.24c.232.24.234.383.234.666q.001.344-.103.542c-.104.198-.17.234-.301.307s-.277.11-.432.11a.82.82 0 0 1-.608-.24q-.23-.241-.231-.694m.31 0c0 .228.052.402.152.514s.225.17.377.17a.49.49 0 0 0 .377-.17q.147-.173.149-.523-.001-.328-.152-.502a.48.48 0 0 0-.374-.17q-.227.001-.377.17c-.15.169-.152.283-.152.511m1.6.359.301-.046q.024.178.14.274c.116.096.186.097.323.097q.21.001.31-.085.1-.082.1-.201a.19.19 0 0 0-.088-.161 1.4 1.4 0 0 0-.31-.1 3 3 0 0 1-.462-.146.47.47 0 0 1-.195-.17.43.43 0 0 1-.067-.237q0-.122.055-.222a.4.4 0 0 1 .149-.17.7.7 0 0 1 .192-.088q.124-.032.262-.033.212-.002.368.061.16.059.237.164a.64.64 0 0 1 .103.277l-.298.043q-.019-.141-.116-.219c-.097-.078-.155-.079-.274-.079q-.207 0-.295.07-.091.07-.091.161 0 .058.037.106c.027.03.064.058.119.079q.046.02.265.079.323.084.45.14c.127.056.152.088.198.158.052.07.073.155.073.259a.5.5 0 0 1-.088.286.6.6 0 0 1-.253.207.9.9 0 0 1-.38.073q-.347 0-.529-.146a.67.67 0 0 1-.234-.429m1.844-1.588v-.344h.304v.344zm0 2.124v-1.789h.304v1.789zm1.935-.225q-.17.145-.326.204a.75.75 0 0 1-.335.061q-.293 0-.453-.146a.47.47 0 0 1-.158-.365.5.5 0 0 1 .061-.24q.059-.11.155-.173a.8.8 0 0 1 .219-.1q.09-.022.271-.046.366-.04.542-.104v-.079q.001-.182-.085-.259-.119-.104-.347-.103-.215.001-.316.076c-.101.075-.119.14-.152.265l-.295-.04a.7.7 0 0 1 .134-.307.6.6 0 0 1 .268-.183q.177-.06.408-.061.228-.002.374.052.141.055.21.137a.5.5 0 0 1 .094.207q.014.077.015.277v.405q0 .419.018.532c.018.113.037.146.076.216h-.319a.7.7 0 0 1-.058-.225m-.024-.669q-.164.066-.496.113a1 1 0 0 0-.265.061.3.3 0 0 0-.122.097.26.26 0 0 0-.04.143q0 .119.091.201.09.079.268.079a.6.6 0 0 0 .313-.076.5.5 0 0 0 .201-.207.8.8 0 0 0 .049-.301zm.767.894v-2.468h.304v2.468z" style="fill:#1c4596;fill-rule:nonzero;stroke-width:1px"/>
</svg>
