<svg xmlns="http://www.w3.org/2000/svg" viewBox="-16.548 -4.442 45.043 24" width="45.043" height="24">
  <path d="M19.558 7.653c0.799 -0.073 0.931 -0.039 1.404 -0.011 1.014 0.06 1.597 0.341 2.075 0.7 0.084 0.253 0.005 0.36 -0.168 0.452 -0.265 0.141 -0.584 0.138 -0.876 0.191 -0.139 0.031 -0.139 0.031 -0.191 0.13 -0.12 0.441 -0.545 1.358 -0.583 3.014 -0.052 2.27 0.214 2.799 0.378 3.531 0.555 1.889 1.028 2.096 1.337 2.441 0.161 0.18 0.202 0.399 0.102 0.604 -0.08 0.164 -0.265 0.23 -0.447 0.291 -0.667 0.056 -1.077 -0.159 -1.612 -0.537a8.646 8.646 0 0 1 -0.147 -0.147l-0.095 -0.04c-0.146 -0.084 -0.204 -0.211 -0.296 -0.351a39.811 39.811 0 0 0 -0.229 -0.284c-1.263 -1.613 -1.481 -3.798 -1.53 -5.773l-0.049 0.183c-0.449 1.65 -1.708 -1.184 -1.539 -1.847l0.034 -0.133c0.032 -0.126 0.064 -0.252 0.095 -0.379l0.03 -0.115c0.047 -0.195 0.081 -0.351 0.011 -0.542 -0.11 -0.089 -0.11 -0.089 -0.244 -0.156 -0.24 -0.129 -0.24 -0.129 -0.293 -0.235 0.049 -0.147 0.14 -0.135 0.257 -0.204 1.184 -0.591 2.269 -0.756 2.574 -0.784" fill="#ac187b" style="stroke-width:1px"/>
  <path d="M-12.813 6.97c0.046 0 0.725 -0.004 0.871 -0.005 0.859 -0.005 1.778 0.025 2.438 0.65 0.273 0.334 0.368 0.705 0.357 1.132 -0.072 0.667 -0.356 1.232 -0.87 1.663 -0.208 0.149 -0.43 0.268 -0.659 0.381 0.031 0.01 0.062 0.019 0.093 0.029 0.41 0.143 0.7 0.369 0.909 0.756 0.178 0.463 0.106 1.001 -0.055 1.459 -0.319 0.706 -0.887 1.125 -1.582 1.42 -0.614 0.228 -1.219 0.308 -1.87 0.308l-0.181 0.001q-0.188 0 -0.377 0c-0.191 0 -0.382 0.001 -0.573 0.002q-0.184 0 -0.368 0l-0.171 0.001c-0.484 -0.003 -1.01 0.003 -1.254 -0.218 -0.03 -0.028 -0.074 -0.05 -0.107 -0.125 -0.081 -0.092 -0.068 -0.31 -0.081 -0.457 -0.006 -0.065 -0.006 -0.065 -0.012 -0.131 -0.026 -0.616 0.137 -1.202 0.274 -1.798 0.027 -0.119 0.054 -0.238 0.08 -0.356 0.041 -0.182 0.082 -0.364 0.123 -0.545 0.09 -0.399 0.177 -0.799 0.262 -1.2 0.022 -0.103 0.043 -0.206 0.065 -0.309l0.092 -0.437c0.027 -0.134 0.056 -0.267 0.085 -0.4 0.008 -0.038 0.016 -0.077 0.023 -0.116 0.122 -0.562 0.379 -1.069 0.864 -1.398 0.531 -0.264 1.041 -0.3 1.624 -0.303m-0.647 1.573c-0.055 0.143 -0.055 0.143 -0.085 0.314 -0.013 0.063 -0.026 0.126 -0.039 0.191 -0.006 0.033 -0.012 0.066 -0.019 0.1 -0.019 0.1 -0.04 0.2 -0.06 0.3 -0.082 0.331 -0.115 0.578 -0.087 0.658 0.205 0.002 0.455 0.004 0.66 0.005 0.069 0 0.139 0.001 0.209 0.002 0.892 0.029 1.366 -0.045 1.668 -0.349 0.207 -0.266 0.28 -0.494 0.244 -0.83 -0.088 -0.209 -0.194 -0.286 -0.391 -0.391 -0.416 -0.126 -0.868 -0.108 -1.298 -0.11 -0.056 0 -0.405 -0.001 -0.479 0 -0.139 0.014 -0.214 0.023 -0.324 0.11m-0.635 3.029 -0.342 1.612c0.216 0.108 0.369 0.109 0.603 0.102 0.04 -0.001 0.628 -0.016 0.755 -0.018 0.789 -0.017 1.205 -0.128 1.446 -0.348 0.218 -0.283 0.292 -0.505 0.273 -0.859 -0.013 -0.147 -0.102 -0.287 -0.244 -0.391 -0.281 -0.119 -0.791 -0.142 -1.368 -0.147 -0.131 -0.004 -0.392 0.003 -0.523 0.006 -0.568 0.016 -0.538 0.003 -0.601 0.043" fill="#214184" style="stroke-width:1px"/>
  <path d="M13.601 9.423a5.373 5.373 0 0 1 0.147 0.195l0.023 -0.125 0.035 -0.162 0.033 -0.161c0.056 -0.138 0.056 -0.138 0.16 -0.195 0.167 -0.049 0.309 -0.053 0.483 -0.052l0.097 0q0.101 0 0.202 0.001c0.103 0.001 0.207 0.001 0.31 0.001 0.506 0.002 0.506 0.002 0.562 0.058 0.001 0.46 -0.123 0.915 -0.223 1.362q-0.036 0.163 -0.072 0.327 -0.032 0.147 -0.065 0.294c-0.026 0.143 -0.111 0.515 -0.118 0.581 -0.025 0.225 -0.094 0.47 -0.139 0.692l-0.024 0.117q-0.025 0.122 -0.051 0.244c-0.025 0.122 -0.05 0.244 -0.074 0.366 -0.236 1.155 -0.67 2.218 -1.676 2.911 -1.163 0.728 -2.489 0.835 -3.81 0.531 -0.396 -0.091 -0.396 -0.091 -0.537 -0.147 -0.046 -0.008 -0.212 -0.131 -0.293 -0.147 -0.149 -0.061 -0.296 -0.123 -0.44 -0.195 0.057 -0.247 0.115 -0.363 0.293 -0.537a8.499 8.499 0 0 0 0.205 -0.296l0.103 -0.154c0.088 -0.132 0.088 -0.132 0.132 -0.282 0.186 0.03 0.339 0.087 0.51 0.165 0.828 0.346 1.815 0.435 2.662 0.103 0.401 -0.193 0.734 -0.47 0.885 -0.901a6.448 6.448 0 0 0 0.096 -0.393l-0.061 0.052c-0.719 0.576 -1.512 0.781 -2.176 0.804 -0.214 0.007 -0.665 -0.109 -0.938 -0.172 -0.644 -0.171 -0.867 -0.575 -1.075 -0.928 -0.332 -0.696 -0.319 -1.424 -0.084 -2.148 0.341 -0.958 0.955 -1.654 1.873 -2.096 0.997 -0.42 2.18 -0.432 3.047 0.287m-2.803 1.435c-0.341 0.436 -0.408 0.852 -0.372 1.398 0.085 0.287 0.298 0.465 0.537 0.635 0.389 0.179 0.908 0.153 1.31 0.021 0.435 -0.183 0.782 -0.471 0.986 -0.901 0.133 -0.375 0.205 -0.745 0.049 -1.123 -0.132 -0.297 -0.436 -0.472 -0.527 -0.54 -0.306 -0.239 -1.396 -0.137 -1.983 0.509" fill="#214183" style="stroke-width:1px"/>
  <path d="M-0.32 6.589c0.054 0.163 0.043 0.275 0.006 0.442l-0.032 0.148 -0.036 0.159 -0.036 0.165c-0.038 0.174 -0.077 0.347 -0.115 0.521a469.523 469.523 0 0 0 -0.114 0.52 147.031 147.031 0 0 1 -0.072 0.324c-0.052 0.233 -0.102 0.465 -0.138 0.701l0.104 -0.079c0.723 -0.538 1.334 -0.714 2.23 -0.584 0.242 0.043 0.362 0.116 0.548 0.272l0.15 0.11c0.255 0.214 0.373 0.548 0.437 0.867 0.031 0.45 -0.041 0.87 -0.132 1.309q-0.021 0.102 -0.041 0.205a92.029 92.029 0 0 1 -0.087 0.427 127.394 127.394 0 0 0 -0.11 0.54 277.161 277.161 0 0 1 -0.126 0.622c-0.102 0.499 -0.217 0.992 -0.334 1.488h-1.71c0.055 -0.55 0.055 -0.55 0.098 -0.751l0.029 -0.137 0.031 -0.143c0.011 -0.05 0.099 -0.47 0.133 -0.629l0.101 -0.477q0.031 -0.148 0.062 -0.295c0.047 -0.222 0.101 -0.398 0.139 -0.667 0.095 -0.661 0.721 -1.532 -0.802 -1.146 -0.342 0.087 -0.805 0.267 -1.012 0.583 -0.289 0.699 -0.397 1.476 -0.547 2.213q-0.058 0.288 -0.117 0.576 -0.037 0.178 -0.072 0.356l-0.033 0.161 -0.029 0.142c-0.032 0.118 -0.032 0.118 -0.13 0.265a2.735 2.735 0 0 1 -0.362 0.004l-0.108 -0.004a36.294 36.294 0 0 1 -0.342 -0.015q-0.116 -0.005 -0.232 -0.009 -0.284 -0.011 -0.568 -0.025c0.024 -0.462 0.1 -0.677 0.16 -1.009 0.017 -0.093 0.153 -0.784 0.17 -0.857 0.039 -0.177 0.198 -0.959 0.25 -1.201 0.009 -0.044 0.083 -0.416 0.113 -0.557 0.02 -0.093 0.205 -1.031 0.249 -1.226 0.013 -0.06 0.162 -0.729 0.176 -0.791 0.012 -0.05 0.149 -0.695 0.203 -0.934l0.029 -0.129q0.03 -0.134 0.061 -0.267a118.944 118.944 0 0 0 0.093 -0.411l0.059 -0.261 0.028 -0.125c0.066 -0.287 0.066 -0.287 0.12 -0.341 0.123 -0.008 0.245 -0.013 0.368 -0.015l0.112 -0.003q0.177 -0.005 0.354 -0.009l0.239 -0.006q0.294 -0.008 0.588 -0.015" fill="#214184" style="stroke-width:1px"/>
  <path d="M-4.938 8.965c0.483 0.121 0.909 0.377 1.119 0.71 0.47 0.815 0.188 1.825 -0.003 2.69q-0.032 0.151 -0.064 0.303 -0.064 0.301 -0.129 0.601c-0.107 0.492 -0.208 0.985 -0.31 1.478 -0.564 0 -1.057 0.035 -1.639 0.035 -0.076 -0.049 -0.108 -0.142 -0.109 -0.188 -0.002 -0.177 0.11 -0.249 0.135 -0.385 -0.07 0.043 -0.139 0.087 -0.211 0.131 -0.777 0.464 -1.579 0.632 -2.476 0.455 -0.387 -0.169 -0.711 -0.437 -0.879 -0.83 -0.058 -0.172 -0.096 -0.23 -0.073 -0.621 0.006 -0.094 0.102 -0.809 0.503 -1.271 0.571 -0.584 1.317 -0.889 2.131 -0.912 0.545 -0.003 1.085 0.047 1.591 0.265 0.025 -0.39 0.025 -0.39 -0.077 -0.76 -0.275 -0.275 -0.579 -0.298 -0.954 -0.318 -0.484 0.008 -1.006 0.024 -1.395 0.312 -0.194 0.144 -0.207 0.268 -0.358 -0.016 -0.167 -0.576 -0.17 -0.574 -0.244 -1.221 0.178 -0.107 0.283 -0.168 0.472 -0.222 0.042 -0.012 0.085 -0.025 0.128 -0.037l0.276 -0.076c0.878 -0.239 1.897 -0.289 2.565 -0.122m-2.611 3.535c-0.169 0.177 -0.289 0.343 -0.297 0.593 0.012 0.211 0.034 0.312 0.168 0.482 0.26 0.198 0.547 0.167 0.861 0.147 0.419 -0.071 0.732 -0.269 1.017 -0.58 0.177 -0.254 0.264 -0.477 0.254 -0.788 -0.671 -0.241 -1.417 -0.324 -2.003 0.147" fill="#214083" style="stroke-width:1px"/>
  <path d="m21.271 7.908 -0.164 0.006c-0.671 0.027 -1.171 0.099 -1.658 0.599 -0.216 0.336 -0.274 0.714 -0.342 1.102l-0.03 0.169c-0.043 0.237 -0.084 0.474 -0.126 0.711 -0.156 0.88 -0.322 1.753 -0.625 2.595l-0.043 0.121c-0.489 1.346 -1.206 2.509 -2.22 3.522a7.278 7.278 0 0 0 -0.197 0.204c-1.156 1.233 -3.095 2.248 -4.778 2.457 -0.134 0.017 -0.337 0.032 -0.452 0.028 -0.059 -0.058 -0.029 -0.13 -0.013 -0.18l0.089 -0.048c0.807 -0.43 0.807 -0.43 1.571 -0.929l0.137 -0.097c0.442 -0.316 0.816 -0.573 1.35 -1.105 0.373 -0.372 0.547 -0.611 0.634 -0.716 0.979 -1.185 1.582 -2.602 2.08 -4.042l0.046 -0.131c0.227 -0.647 0.395 -1.309 0.564 -1.972l0.034 -0.133c0.032 -0.126 0.064 -0.252 0.095 -0.379l0.03 -0.115c0.047 -0.195 0.081 -0.351 0.011 -0.542 -0.11 -0.089 -0.11 -0.089 -0.244 -0.156 -0.24 -0.129 -0.24 -0.129 -0.293 -0.235 0.049 -0.147 0.049 -0.147 0.165 -0.216 1.177 -0.559 3.193 -1.18 4.378 -0.516" fill="#fd9f10" style="stroke-width:1px"/>
  <path d="M5.416 2.195c0.703 -0.271 0.985 -0.291 1.04 -0.303 0.47 -0.006 0.548 0.199 0.577 0.267 0.04 0.089 0.072 0.181 0.072 0.328l0.112 -0.082c0.073 -0.053 0.216 -0.166 0.293 -0.214 0.384 -0.238 0.745 -0.257 0.795 -0.273 0.46 -0.043 0.626 0.097 0.753 0.227 0.26 0.28 0.264 0.535 0.258 0.902 -0.016 0.373 -0.098 0.737 -0.175 1.101a42.351 42.351 0 0 0 -0.082 0.399q-0.026 0.128 -0.052 0.255l-0.024 0.12 -0.024 0.111 -0.02 0.097c-0.027 0.093 -0.027 0.093 -0.124 0.288h-1.026c-0.073 -0.147 -0.024 -0.25 0.011 -0.409l0.041 -0.189 0.044 -0.199a95.839 95.839 0 0 0 0.084 -0.387l0.038 -0.174c0.023 -0.138 0.149 -0.724 0.209 -0.984 0.158 -0.682 -0.701 -0.177 -0.914 0.046 -0.122 0.247 -0.184 0.483 -0.232 0.753l-0.022 0.115q-0.034 0.181 -0.067 0.362 -0.033 0.182 -0.067 0.363 -0.021 0.113 -0.041 0.225c-0.034 0.18 -0.074 0.311 -0.157 0.477h-1.026c0.055 -0.548 0.055 -0.548 0.116 -0.824l0.039 -0.18q0.04 -0.183 0.081 -0.366c0.084 -0.391 0.136 -0.771 0.155 -1.17 -0.238 -0.079 -0.417 -0.084 -0.644 0.027 -0.339 0.294 -0.396 0.676 -0.482 1.099l-0.038 0.178q-0.053 0.251 -0.105 0.503 -0.044 0.211 -0.089 0.421l-0.031 0.155c-0.027 0.108 -0.027 0.108 -0.075 0.157a4.054 4.054 0 0 1 -0.24 0.005l-0.132 0 -0.169 -0.001 -0.286 -0.002 -0.248 -0.001c0.131 -0.775 0.275 -1.546 0.427 -2.317l0.061 -0.309q0.073 -0.372 0.147 -0.744h1.026l0.049 0.244c0.052 -0.037 0.113 -0.057 0.167 -0.096" fill="#224184" style="stroke-width:1px"/>
  <path d="m10.483 0.575 0.129 0.008 0.139 0.008 0.146 0.01 0.147 0.008q0.18 0.01 0.36 0.022l-0.022 0.106q-0.049 0.24 -0.097 0.48l-0.034 0.167c-0.058 0.286 -0.109 0.569 -0.14 0.859l0.128 -0.092c0.259 -0.163 0.501 -0.246 0.805 -0.249 0.083 -0.001 0.248 0.012 0.45 0.105 0.198 0.092 0.384 0.285 0.436 0.376 0.246 0.485 0.104 1.062 -0.018 1.54 -0.173 0.677 -0.712 1.235 -0.761 1.272s-0.51 0.349 -1.232 0.332c-0.107 -0.016 -0.306 -0.033 -0.448 -0.192 -0.009 -0.038 -0.06 -0.064 -0.06 -0.188 -0.022 0.003 0.003 0.119 -0.081 0.27h-0.977c0.032 -0.435 0.118 -0.854 0.209 -1.28l0.048 -0.229q0.063 -0.3 0.127 -0.601 0.076 -0.362 0.152 -0.724a445.88 445.88 0 0 1 0.141 -0.67q0.021 -0.102 0.043 -0.204c0.036 -0.169 0.07 -0.338 0.102 -0.508l0.019 -0.102c0.018 -0.093 0.035 -0.186 0.052 -0.279 0.04 -0.16 0.065 -0.234 0.238 -0.245m0.383 2.547c-0.191 0.408 -0.284 0.92 -0.244 1.368 0.042 0.103 0.042 0.103 0.147 0.147 0.293 0.068 0.466 0.06 0.733 -0.098 0.331 -0.294 0.436 -0.623 0.482 -1.053 0.015 -0.265 0.004 -0.432 -0.14 -0.656 -0.347 -0.266 -0.745 0.005 -0.977 0.293" fill="#244284" style="stroke-width:1px"/>
  <path d="M22.901 6.547c0.51 0.225 0.694 0.348 0.811 0.482 0.03 0.284 -0.081 0.581 -0.16 0.851 -0.034 0.123 -0.053 0.181 -0.076 0.307 -0.055 0.042 -0.109 0.079 -0.213 0.005 -0.616 -0.443 -1.345 -0.795 -3.103 -0.782 -1.53 0.011 -2.377 0.424 -2.419 0.437 -0.442 0.139 -0.869 0.331 -1.256 0.589 -0.073 -0.243 -0.083 -0.551 -0.046 -0.796l0.016 -0.125c0.041 -0.269 0.096 -0.411 0.32 -0.584 1.708 -1.074 4.818 -0.961 6.125 -0.385" fill="#fec40c" style="stroke-width:1px"/>
  <path d="M20.758 -3.042c0.158 -0.505 0.208 -0.373 0.263 -0.788 0.04 -0.307 0.121 -0.473 0.123 -0.437 0.002 0.075 -0.027 0.234 -0.029 0.256 -0.01 0.089 -0.02 0.12 -0.013 0.236 0.021 0.331 -0.112 0.44 -0.122 0.904 -0.003 0.133 -0.009 0.176 0.091 0.552 0.028 0.105 0.114 0.335 0.116 0.444 0.002 0.145 0.019 0.375 -0.029 0.659 -0.044 0.261 0.082 0.402 0.116 0.499 0.07 0.198 0.084 0.459 -0.017 0.743 -0.114 0.321 -0.286 0.437 -0.122 1.056 -0.004 0.216 0.029 0.362 -0.101 0.619 -0.08 0.159 -0.065 0.137 -0.161 0.544 -0.065 0.257 0.054 0.44 0.1 0.638 0.068 0.142 0.097 0.396 0.024 0.581 -0.183 0.466 -0.146 0.581 -0.095 0.744 0.077 0.298 0.075 0.528 -0.033 0.706 -0.101 0.245 -0.439 0.401 -0.787 0.455 -0.361 0.025 -0.632 -0.058 -0.8 -0.276 -0.119 -0.085 -0.205 -0.29 -0.218 -0.504 -0.045 -0.235 0.2 -0.657 0.35 -0.881 0.267 -0.353 0.413 -0.583 0.224 -1.293 -0.08 -0.161 0.038 -0.504 0.112 -0.677 0.326 -0.441 0.249 -0.451 0.241 -0.824 -0.006 -0.249 -0.026 -0.375 0.023 -0.521 0.215 -0.447 0.431 -0.452 0.463 -0.798 0.037 -0.399 -0.125 -0.635 0.01 -0.898 0.029 -0.056 0.265 -0.466 0.217 -0.797 -0.049 -0.34 -0.06 -0.574 0.055 -0.94" fill="#fec50d" style="stroke-width:1px"/>
  <path d="m2.644 2.126 0.113 0.116 0.147 -0.244c0.72 -0.166 0.857 -0.042 0.928 0.049 -0.003 0.13 -0.003 0.13 -0.032 0.286a38.003 38.003 0 0 1 -0.066 0.349 488.964 488.964 0 0 1 -0.234 1.193q-0.057 0.283 -0.113 0.565l-0.072 0.358c-0.011 0.057 -0.084 0.419 -0.093 0.467 -0.026 0.104 -0.026 0.104 -0.074 0.152 -0.062 0.02 -0.518 0.028 -0.572 0.024 -0.107 -0.008 -0.216 -0.03 -0.32 -0.053 -0.007 -0.16 0.014 -0.253 0.003 -0.365 -0.037 0.053 -0.138 0.132 -0.188 0.163l-0.132 0.081 -0.131 0.081c-0.316 0.173 -0.713 0.162 -1.062 0.099 -0.252 -0.089 -0.434 -0.301 -0.578 -0.518 -0.098 -0.229 -0.115 -0.444 -0.113 -0.69l0.001 -0.111c0.015 -0.696 0.251 -1.221 0.725 -1.725 0.475 -0.446 1.295 -0.745 1.863 -0.277m-1.163 0.904c-0.235 0.361 -0.382 0.784 -0.322 1.219 0.042 0.168 0.093 0.281 0.23 0.387 0.218 0.038 0.425 0.026 0.629 -0.058 0.355 -0.302 0.457 -0.706 0.537 -1.148l0.023 -0.108c0.032 -0.176 0.041 -0.278 -0.035 -0.442 -0.072 -0.094 -0.072 -0.094 -0.129 -0.149 -0.406 -0.042 -0.64 0.005 -0.934 0.299" fill="#224184" style="stroke-width:1px"/>
  <path d="M-12.483 0.874c0.2 -0.032 0.78 -0.033 0.879 0 -0.096 0.174 -0.407 0.452 -0.459 0.501 -0.536 0.511 -1.705 1.671 -1.826 1.765 1.178 1.695 1.099 1.645 1.511 2.29 -0.371 -0.009 -0.467 -0.016 -0.691 -0.014 -0.678 -1.001 -1.285 -1.848 -1.322 -1.815 -0.173 0.16 -0.312 0.295 -0.313 0.301 -0.192 1.048 -0.236 1.301 -0.273 1.525 -0.242 0 -0.549 -0.01 -0.798 -0.01 0.031 -0.274 0.821 -4.327 0.871 -4.547 0.115 -0.004 0.758 0.004 0.808 0.005 -0.261 1.365 -0.261 1.365 -0.391 2.003 0.067 -0.069 1.804 -1.873 2.003 -2.003" fill="#254383" style="stroke-width:1px"/>
  <path d="M-4.917 2.156c0.007 0.01 0.026 0.035 0.054 0.037 0.04 -0.032 0.08 -0.064 0.122 -0.098 0.191 -0.128 0.336 -0.116 0.562 -0.098 0.065 0.015 0.131 0.031 0.195 0.049 -0.035 0.38 -0.106 0.75 -0.182 1.124l-0.039 0.195q-0.051 0.255 -0.103 0.509 -0.053 0.261 -0.105 0.522a1047.438 1047.438 0 0 1 -0.206 1.02c-0.226 0 -0.493 -0.01 -0.725 -0.01 0.011 -0.108 0.026 -0.179 0.041 -0.283 -0.037 0.021 -0.188 0.16 -0.382 0.264 -0.321 0.171 -0.716 0.142 -1.053 0.045 -0.318 -0.146 -0.502 -0.383 -0.635 -0.704 -0.255 -0.697 0.296 -2.371 1.412 -2.701 0.387 -0.088 0.803 -0.111 1.043 0.129M-6.365 3.077c-0.485 0.642 -0.724 1.612 -0.02 1.764 0.162 0.041 0.502 -0.007 0.752 -0.1 0.295 -0.157 0.422 -0.381 0.525 -0.692 0.139 -0.626 0.128 -0.565 0.241 -1.233 -0.152 -0.122 -0.196 -0.146 -0.39 -0.245 -0.493 -0.05 -0.814 0.14 -1.108 0.507" fill="#244284" style="stroke-width:1px"/>
  <path d="M-0.711 0.777h1.075c0.082 0.164 0.006 0.337 -0.032 0.51l-0.027 0.127c-0.03 0.137 -0.06 0.274 -0.09 0.411l-0.062 0.282q-0.046 0.211 -0.093 0.423Q-0.029 2.931 -0.111 3.335l-0.037 0.178a26.671 26.671 0 0 0 -0.064 0.315c-0.121 0.569 -0.35 1.059 -0.84 1.393 -0.478 0.263 -1.033 0.339 -1.566 0.207 -0.284 -0.111 -0.558 -0.242 -0.73 -0.5 0.002 -0.183 0.05 -0.246 0.171 -0.386a10.014 10.014 0 0 1 0.149 -0.143l0.077 -0.074a21.737 21.737 0 0 1 0.189 -0.179l0.079 0.062 0.105 0.081 0.103 0.081c0.203 0.134 0.402 0.134 0.642 0.118 0.189 -0.062 0.27 -0.103 0.365 -0.28 0.116 -0.291 0.165 -0.604 0.226 -0.91q0.021 -0.102 0.042 -0.204 0.055 -0.268 0.108 -0.536c0.058 -0.286 0.116 -0.573 0.174 -0.859q0.03 -0.15 0.06 -0.3l0.037 -0.183 0.032 -0.162c0.029 -0.132 0.029 -0.132 0.078 -0.279" fill="#244385" style="stroke-width:1px"/>
  <path d="M-10.223 1.857c0.227 0.036 1.147 0.228 1.098 1.677 -0.019 0.557 -0.301 1.103 -0.72 1.493 -0.482 0.368 -0.853 0.494 -1.465 0.44 -0.351 -0.083 -0.782 -0.282 -0.977 -0.879 -0.33 -1.008 0.534 -2.973 2.064 -2.73m0.426 1.876c0.29 -1.233 -0.891 -1.798 -1.637 -0.654 -0.26 0.398 -0.529 1.603 0.212 1.789 0.939 0.157 1.324 -0.705 1.425 -1.135m1.533 -2.615c0.001 0 0.455 -0.003 0.671 -0.005 -0.135 0.641 -0.134 0.642 -0.205 0.934 0.239 0.004 0.708 0.001 0.835 0.001 -0.039 0.245 -0.087 0.489 -0.105 0.578 -0.422 0.011 -0.505 0.008 -0.823 0.008 -0.049 0.213 -0.062 0.272 -0.205 0.864 -0.149 0.618 -0.36 1.264 -0.278 1.332 0.147 0.092 0.286 0.076 0.42 0.05 0.148 -0.029 0.359 -0.119 0.405 -0.121 0.029 0.263 0.049 0.513 -0.04 0.598 -0.303 0.173 -0.675 0.14 -1.012 0.093 -0.146 -0.04 -0.27 -0.071 -0.355 -0.196 -0.063 -0.093 -0.219 -0.194 0.073 -1.441 0.028 -0.119 0.188 -0.94 0.23 -1.157 -0.406 -0.003 -0.407 -0.001 -0.407 -0.002 0.018 -0.112 0.114 -0.496 0.132 -0.605 0.155 -0.002 0.397 0 0.428 -0.001 0.009 -0.031 0.187 -0.759 0.235 -0.929M13.754 1.992l0.136 0.001 0.146 0 0.154 0.001 0.155 0.001q0.19 0.001 0.38 0.002c-0.038 0.356 -0.108 0.704 -0.18 1.054l-0.039 0.191a273.644 273.644 0 0 1 -0.081 0.398c-0.035 0.17 -0.193 1.103 -0.206 1.166 -0.012 0.056 -0.044 0.306 -0.054 0.357 -0.025 0.124 -0.04 0.218 -0.124 0.253h-1.075c0.055 -0.55 0.055 -0.55 0.107 -0.808l0.035 -0.174 0.038 -0.183 0.039 -0.191a212.145 212.145 0 0 1 0.081 -0.398c0.035 -0.17 0.07 -0.34 0.104 -0.511q0.05 -0.244 0.099 -0.488l0.038 -0.186 0.035 -0.17 0.031 -0.15c0.039 -0.159 0.039 -0.159 0.181 -0.166" fill="#254283" style="stroke-width:1px"/>
  <path d="M18.877 13.428h0.049l0.016 0.104 0.023 0.14 0.022 0.137c0.036 0.156 0.086 0.297 0.144 0.446 0.037 0.097 0.071 0.195 0.103 0.293 0.242 0.725 0.558 1.386 1.01 2.006l0.059 0.08c0.661 0.899 1.47 1.679 2.482 2.167l-0.049 0.147c-0.314 0.105 -0.701 0.102 -1.007 -0.028 -0.319 -0.165 -0.646 -0.349 -0.898 -0.608l-0.095 -0.04c-0.146 -0.084 -0.204 -0.211 -0.296 -0.351a39.811 39.811 0 0 0 -0.229 -0.284c-0.89 -1.136 -1.433 -2.773 -1.334 -4.21" fill="#8a1169" style="stroke-width:1px"/>
  <path d="M23.566 6.296c0.119 0.109 0.201 0.208 0.293 0.342 -0.001 0.066 -0.029 0.172 -0.083 0.178 -0.062 -0.073 -0.287 -0.214 -0.445 -0.291 -0.936 -0.427 -1.931 -0.582 -2.952 -0.583l-0.112 0c-0.589 0.001 -1.155 0.031 -1.732 0.159l-0.114 0.024c-0.612 0.132 -1.477 0.429 -1.805 0.697 -0.135 0.113 -0.163 0.04 -0.267 0.033 0.233 -0.518 0.86 -0.751 1.355 -0.95 0.225 -0.084 0.45 -0.145 0.684 -0.195l0.12 -0.027c1.628 -0.35 3.617 -0.337 5.058 0.613" fill="#fdca1b" style="stroke-width:1px"/>
  <path d="M16.754 16.493c0.233 -0.257 0.615 -0.722 0.781 -1.001 0.268 -0.452 0.617 -1.071 0.822 -1.633 0.062 -0.169 0.153 -0.575 0.189 -0.607 -0.019 0.847 -0.06 0.901 -0.073 1.065 -0.018 0.22 -0.044 0.382 -0.069 0.6 -0.033 0.286 -0.116 0.712 -0.19 0.907 -0.037 0.097 -0.079 0.213 -0.163 0.353 -0.085 0.142 -0.281 0.509 -0.547 0.843 -0.492 0.617 -1.014 1.02 -1.457 1.258 -0.063 0.034 -0.407 0.169 -0.669 0.197 -0.128 0.014 -0.572 0.062 -0.636 -0.136 0.039 -0.103 0.061 -0.183 0.854 -0.743 0.05 -0.036 0.255 -0.189 0.372 -0.303 0.357 -0.35 0.468 -0.45 0.785 -0.8" fill="#fc9f14" style="stroke-width:1px"/>
  <path d="M14.665 0.56c0.117 0.05 0.145 0.095 0.267 0.274 0.061 0.147 0.061 0.316 -0.019 0.474 -0.068 0.176 -0.227 0.33 -0.446 0.365 -0.21 0.005 -0.378 0.009 -0.552 -0.119 -0.157 -0.143 -0.19 -0.289 -0.168 -0.485 0.041 -0.221 0.124 -0.285 0.269 -0.417 0.189 -0.125 0.432 -0.184 0.647 -0.093" fill="#244282" style="stroke-width:1px"/>
  <path d="M18.877 13.428h0.049l0.016 0.104c0.042 0.254 0.094 0.487 0.189 0.726 0.151 0.383 0.206 0.712 0.185 1.124v0.049a27.697 27.697 0 0 1 -0.049 0.244c-0.403 -0.604 -0.439 -1.541 -0.391 -2.247" fill="#870966" style="stroke-width:1px"/>
  <path d="m17.509 6.199 0.049 0.098 -0.049 0.098h-0.391l-0.049 -0.195c0.152 -0.076 0.277 -0.033 0.44 0" fill="#fec713" style="stroke-width:1px"/>
  <path d="M22.052 18.459c0.173 0.067 0.338 0.142 0.504 0.226l0.131 0.066 0.098 0.05 -0.049 0.098c-0.161 -0.054 -0.281 -0.129 -0.424 -0.22l-0.147 -0.093 -0.112 -0.078z" fill="#8a0a63" style="stroke-width:1px"/>
  <path d="m11.501 19.339 0.195 0.049z" fill="#e79d38" style="stroke-width:1px"/>
  <path d="m-9.65 13.477 0.049 0.195z" fill="#445d98" style="stroke-width:1px"/>
  <path d="m-6.817 10.4 0.147 0.049z" fill="#435f9c" style="stroke-width:1px"/>
  <path d="m21.612 6.052 0.147 0.049z" fill="#fdca2c" style="stroke-width:1px"/>
  <path d="m20.342 5.954 0.147 0.049z" fill="#fecc28" style="stroke-width:1px"/>
  <path d="m-7.305 2.633 0.147 0.049z" fill="#486099" style="stroke-width:1px"/>
  <path d="m22.003 19.046 0.098 0.049z" fill="#a9457f" style="stroke-width:1px"/>
  <path d="m14.09 18.264 0.098 0.049z" fill="#f4a530" style="stroke-width:1px"/>
  <path d="m20.245 17.824 0.098 0.049z" fill="#b34876" style="stroke-width:1px"/>
  <path d="m10.084 16.554 0.098 0.049z" fill="#646989" style="stroke-width:1px"/>
  <path d="m8.961 16.31 0.098 0.049z" fill="#5d678e" style="stroke-width:1px"/>
  <path d="m12.087 14.796 0.098 0.049z" fill="#445a96" style="stroke-width:1px"/>
  <path d="m9.498 14.796 0.098 0.049z" fill="#48619a" style="stroke-width:1px"/>
  <path d="m-12.532 14.747 0.098 0.049z" fill="#425d96" style="stroke-width:1px"/>
  <path d="m18.633 13.037 0.098 0.049z" fill="#e47352" style="stroke-width:1px"/>
  <path d="m12.918 8.934 0.098 0.049z" fill="#4c6499" style="stroke-width:1px"/>
  <path d="m10.866 8.934 0.098 0.049z" fill="#495e97" style="stroke-width:1px"/>
  <path d="m-0.271 8.934 0.098 0.049z" fill="#43609c" style="stroke-width:1px"/>
  <path d="m-7.305 8.934 0.098 0.049z" fill="#4b619a" style="stroke-width:1px"/>
  <path d="m22.003 7.664 0.098 0.049z" fill="#f3ab3f" style="stroke-width:1px"/>
  <path d="m17.167 6.541 0.098 0.049z" fill="#f7c836" style="stroke-width:1px"/>
  <path d="m17.363 6.443 0.098 0.049z" fill="#fac733" style="stroke-width:1px"/>
  <path d="m18.584 6.199 0.098 0.049z" fill="#fbcc30" style="stroke-width:1px"/>
  <path d="m19.707 6.052 0.098 0.049z" fill="#fece2c" style="stroke-width:1px"/>
  <path d="m18.877 6.052 0.098 0.049z" fill="#fcca2c" style="stroke-width:1px"/>
  <path d="m21.661 5.515 0.098 0.049z" fill="#fccd34" style="stroke-width:1px"/>
  <path d="m20.294 5.417 0.098 0.049z" fill="#fccc32" style="stroke-width:1px"/>
  <path d="m20.049 5.271 0.098 0.049z" fill="#fccd2e" style="stroke-width:1px"/>
  <path d="m-2.03 4.44 0.098 0.049z" fill="#46619e" style="stroke-width:1px"/>
  <path d="m-10.431 4.342 0.098 0.049z" fill="#435f9b" style="stroke-width:1px"/>
  <path d="m-1.639 4.245 0.098 0.049z" fill="#46609d" style="stroke-width:1px"/>
  <path d="m20.196 3.17 0.098 0.049z" fill="#f4c938" style="stroke-width:1px"/>
  <path d="m7.935 2.926 0.098 0.049z" fill="#425d9b" style="stroke-width:1px"/>
  <path d="m4.907 1.949 0.098 0.049z" fill="#455b95" style="stroke-width:1px"/>
  <path d="m-10.969 1.9 0.098 0.049z" fill="#486099" style="stroke-width:1px"/>
  <path d="m-12.776 0.728 0.098 0.049z" fill="#4f6699" style="stroke-width:1px"/>
  <path d="m10.475 0.532 0.098 0.049z" fill="#4c6498" style="stroke-width:1px"/>
  <path d="m14.236 0.484 0.098 0.049z" fill="#5a6d96" style="stroke-width:1px"/>
  <path d="M7.038 8.975c0.483 0.121 0.909 0.377 1.119 0.71 0.47 0.815 0.188 1.825 -0.003 2.69q-0.032 0.151 -0.064 0.303 -0.064 0.301 -0.129 0.601c-0.107 0.492 -0.208 0.985 -0.31 1.478 -0.564 0 -1.058 0.035 -1.639 0.035 -0.076 -0.049 -0.108 -0.142 -0.108 -0.187 -0.002 -0.177 0.11 -0.249 0.135 -0.385 -0.07 0.043 -0.139 0.087 -0.211 0.131 -0.777 0.464 -1.579 0.632 -2.476 0.455 -0.387 -0.169 -0.711 -0.437 -0.879 -0.83 -0.058 -0.172 -0.097 -0.23 -0.074 -0.621 0.006 -0.094 0.103 -0.809 0.504 -1.271 0.571 -0.584 1.317 -0.889 2.131 -0.912 0.545 -0.003 1.085 0.047 1.591 0.265 0.025 -0.39 0.025 -0.39 -0.077 -0.76 -0.275 -0.275 -0.579 -0.298 -0.954 -0.318 -0.484 0.008 -1.006 0.024 -1.395 0.312 -0.194 0.144 -0.207 0.268 -0.358 -0.016 -0.167 -0.576 -0.17 -0.574 -0.244 -1.221 0.178 -0.107 0.283 -0.168 0.472 -0.222 0.042 -0.012 0.085 -0.025 0.128 -0.037l0.276 -0.076c0.878 -0.239 1.897 -0.289 2.565 -0.122M4.427 12.51c-0.169 0.177 -0.289 0.343 -0.297 0.593 0.012 0.211 0.034 0.312 0.168 0.482 0.26 0.198 0.547 0.167 0.861 0.147 0.419 -0.071 0.732 -0.269 1.017 -0.58 0.177 -0.253 0.264 -0.477 0.254 -0.788 -0.671 -0.241 -1.417 -0.324 -2.003 0.147m22.42 -3.558c0.483 0.121 0.909 0.377 1.119 0.71 0.47 0.815 0.188 1.825 -0.003 2.69q-0.032 0.151 -0.064 0.303 -0.064 0.301 -0.129 0.601c-0.107 0.492 -0.208 0.985 -0.31 1.478 -0.564 0 -1.057 0.035 -1.639 0.035 -0.076 -0.049 -0.108 -0.142 -0.109 -0.188 -0.002 -0.177 0.11 -0.249 0.135 -0.385 -0.07 0.043 -0.139 0.087 -0.211 0.131 -0.777 0.464 -1.579 0.632 -2.476 0.455 -0.387 -0.169 -0.711 -0.437 -0.879 -0.83 -0.058 -0.172 -0.096 -0.23 -0.073 -0.621 0.006 -0.094 0.102 -0.809 0.503 -1.271 0.571 -0.584 1.317 -0.889 2.131 -0.912 0.545 -0.003 1.085 0.047 1.591 0.265 0.025 -0.39 0.025 -0.39 -0.077 -0.76 -0.275 -0.275 -0.579 -0.298 -0.954 -0.318 -0.484 0.008 -1.006 0.024 -1.395 0.312 -0.194 0.144 -0.207 0.268 -0.358 -0.016 -0.167 -0.576 -0.17 -0.574 -0.244 -1.221 0.178 -0.107 0.283 -0.168 0.472 -0.222 0.042 -0.012 0.085 -0.025 0.128 -0.037l0.276 -0.076c0.878 -0.239 1.897 -0.289 2.565 -0.122m-2.611 3.535c-0.169 0.177 -0.289 0.343 -0.297 0.593 0.012 0.211 0.034 0.312 0.168 0.482 0.26 0.198 0.547 0.167 0.861 0.147 0.419 -0.071 0.732 -0.269 1.017 -0.58 0.177 -0.254 0.264 -0.477 0.254 -0.788 -0.671 -0.241 -1.417 -0.324 -2.003 0.147" fill="#214083" style="stroke-width:1px"/>
  <path d="M20.391 6.34c0.101 0.012 0.45 -0.053 0.363 0.333 -0.236 0.295 -0.403 0.147 -0.823 0.237 -0.454 0.098 -0.903 0.311 -1.24 0.404 -0.565 0.155 -1.47 0.612 -1.691 0.555 -0.273 -0.017 -0.186 -0.302 -0.15 -0.52 0.037 -0.228 0.356 -0.391 0.459 -0.448 0.115 -0.064 0.701 -0.294 0.928 -0.354 0.706 -0.187 1.769 -0.254 2.156 -0.207" style="stroke-width:1px;fill:#d3a000"/>
</svg>
