<svg xmlns="http://www.w3.org/2000/svg" viewBox="-7.377 -9.828 25.647 24.342" width="25.647" height="24.342">
  <path d="M7.322-9.459h.234l.202-.001h.366c.056 0 .094.004.138.041v.024l.026.009a.6.6 0 0 1 .222.187q.037.042.077.081l.084.09.022.023q.05.052.095.107a.4.4 0 0 0 .067.067l.032.026c-.006.052-.035.075-.072.108l-.06.048a1 1 0 0 0-.084.091c-.029.034-.06.053-.097.078l-.048.048a3 3 0 0 1-.221.174l-.021.016a.4.4 0 0 1-.119.063v.024c-.12.096-.335.074-.479.073h-.091l-.259-.001a12 12 0 0 0-.736.014q-.246.014-.49.039-.1.01-.201.017a6 6 0 0 0-.516.065l-.169.024a5 5 0 0 0-.411.078 4 4 0 0 1-.182.036 3 3 0 0 0-.226.055 2 2 0 0 1-.165.04 2 2 0 0 0-.202.055 2 2 0 0 1-.174.048 1 1 0 0 0-.183.06 1 1 0 0 1-.097.028 1 1 0 0 0-.188.065q-.075.031-.152.053a1 1 0 0 0-.146.059l-.081.029a1 1 0 0 0-.161.063q-.11.05-.224.094c-.076.03-.149.06-.22.102l-.073.031a.6.6 0 0 0-.12.064.5.5 0 0 1-.096.041c-.027.011-.048.025-.072.041a.35.35 0 0 1-.144.053v.024l-.02.01-.089.047-.031.016c-.077.041-.154.081-.226.131a1 1 0 0 1-.128.072 1 1 0 0 0-.087.058q-.044.028-.092.05l-.074.049-.109.071a5 5 0 0 0-.233.159l-.095.067q-.046.032-.09.066c-.026.021-.026.021-.057.039-.03.017-.03.017-.051.04a1 1 0 0 1-.088.071q-.082.06-.162.124a3 3 0 0 1-.182.139l-.067.056c-.072.072-.157.132-.238.194-.023.018-.023.018-.04.036q-.041.04-.085.075l-.035.029c-.031.024-.031.024-.067.036l-.01.022c-.02.038-.051.052-.087.075l-.06.06-.054.049-.166.152-.111.099a.5.5 0 0 0-.074.076.4.4 0 0 1-.101.082 1 1 0 0 0-.088.095 1 1 0 0 1-.103.099q-.063.057-.122.119l-.033.032c-.028.027-.028.027-.05.058a.4.4 0 0 1-.062.061c-.035.026-.035.026-.046.053a.15.15 0 0 1-.051.057c-.092.076-.164.175-.238.268l-.025.03a3 3 0 0 0-.325.463l-.025.042c-.044.078-.075.163-.107.247h-.036a1 1 0 0 1-.065-.19 1 1 0 0 0-.049-.153 1 1 0 0 1-.048-.15 1 1 0 0 0-.047-.147 1.4 1.4 0 0 1-.062-.203 1 1 0 0 0-.041-.139c-.028-.08-.046-.162-.065-.244l-.007-.032-.007-.029c-.005-.024-.005-.024-.018-.048l-.025.012a1 1 0 0 1-.169.066 1 1 0 0 0-.151.064 1 1 0 0 1-.109.041q-.047.017-.092.039a1.4 1.4 0 0 1-.179.067 1 1 0 0 0-.107.049q-.037.017-.075.029a1 1 0 0 0-.12.048c-.169.079-.169.079-.237.079a.3.3 0 0 1 .048-.12c.008-.026.008-.026.012-.048h.024l.01-.02c.042-.08.101-.152.159-.22l.05-.062.025-.031c.023-.028.023-.028.045-.063h.024l.009-.02c.025-.046.063-.081.099-.119a.3.3 0 0 0 .049-.078l.052-.043c.03-.026.054-.055.08-.085q.121-.14.253-.269l.03-.03.03-.03.022-.022q.07-.07.143-.135l.119-.108c.117-.108.117-.108.149-.108l.012-.036.072-.048.06-.06q.102-.091.208-.176l.071-.058.053-.043.026-.021.024-.02.021-.018c.018-.013.018-.013.042-.013l.012-.036.072-.048.124-.101a3 3 0 0 1 .249-.183.4.4 0 0 0 .06-.053l.051-.033q.037-.026.073-.055c.158-.124.158-.124.238-.153v-.024l.062-.04a1 1 0 0 0 .11-.077.4.4 0 0 1 .076-.053c.041-.022.041-.022.071-.047a.6.6 0 0 1 .094-.06c.023-.013.023-.013.05-.036a1 1 0 0 1 .09-.058l.124-.079q.097-.063.198-.124l.06-.036.032-.02.029-.018a.2.2 0 0 1 .075-.026v-.024l.029-.013q.07-.036.136-.078c.028-.017.028-.017.052-.028q.072-.039.14-.084.055-.032.113-.06l.139-.075q.216-.12.436-.231l.023-.012q.054-.027.109-.05.053-.024.105-.053.077-.043.159-.073c.1-.039.196-.088.291-.138.041-.019.081-.03.125-.043l.071-.035a1 1 0 0 1 .155-.064 1 1 0 0 0 .09-.038q.097-.044.199-.077c.039-.014.039-.014.076-.033a.6.6 0 0 1 .112-.041 1 1 0 0 0 .135-.049c.055-.026.111-.042.169-.059q.063-.02.126-.043.082-.03.166-.055.083-.025.164-.06l.082-.022q.084-.02.165-.049.096-.034.196-.053c.06-.013.118-.034.176-.053q.091-.03.186-.044.08-.017.159-.041a4 4 0 0 1 .293-.069q.12-.023.24-.054.062-.014.125-.022.129-.02.257-.048.174-.037.349-.059.108-.014.216-.032.273-.045.55-.071l.236-.023.083-.008.124-.012.116-.011.035-.003.103-.01.037-.003c.132-.011.264-.011.396-.011m2.311.147c.297.029.587.065.877.136q.053.012.107.021.095.018.188.047.104.032.211.056.107.026.21.062l.126.04q.09.028.176.06.045.016.091.029.088.027.171.065.043.018.086.032.12.041.237.091l.061.024q.115.047.228.096l.026.012q.154.066.304.142l.082.034a.5.5 0 0 1 .117.063.4.4 0 0 0 .072.032c.044.015.08.037.118.063a1 1 0 0 0 .087.041q.064.029.127.064l.027.014q.076.04.147.089.112.064.229.12v.024l.026.01q.053.023.104.052l.036.02.027.015v.024l.026.01a1 1 0 0 1 .097.054q.087.056.178.105v.024l.026.009a.4.4 0 0 1 .098.061q.06.046.125.085l.04.026v.024l.019.009a1 1 0 0 1 .195.136q.083.065.165.133.037.03.076.057a1 1 0 0 1 .098.087l.133.118q.075.064.143.135.036.035.075.067a.5.5 0 0 1 .078.079c.026.034.026.034.056.056.035.029.062.06.092.094q.04.045.084.088.115.113.211.243c.016.023.016.023.042.033l.016.027c.019.034.019.034.05.062.029.03.047.058.067.095q.024.038.055.072.047.058.089.12l.07.091a1 1 0 0 1 .065.096c.021.041.021.041.053.075a.5.5 0 0 1 .067.111c.012.025.012.025.035.051.03.039.049.08.07.124a.2.2 0 0 0 .051.064l.025.061q.024.048.055.094.024.042.042.088.026.06.057.118l.013.026q.033.066.069.128c.031.055.052.113.073.172a1 1 0 0 0 .051.096l.016.05q.02.063.049.122c.029.061.048.122.067.187q.018.055.042.108.042.1.07.206.017.062.04.123.026.068.041.14.02.09.05.178.028.096.045.194.02.11.053.218c.02.073.03.145.039.22.013.093.033.184.052.276q.031.16.045.323.009.096.021.19l.004.032.012.095.012.097.007.059.01.083.003.027a4 4 0 0 1 .02.324l.018.453q.005.142.014.284.005.068.006.137l.004.06a.36.36 0 0 1-.017.172c-.054.053-.151.12-.229.12v.024l-.042.02a.7.7 0 0 0-.127.083c-.046.034-.096.06-.147.087a1 1 0 0 0-.111.075 1 1 0 0 1-.139.084 1 1 0 0 0-.086.05.5.5 0 0 1-.131.059v.024a5 5 0 0 1-.32.152 1 1 0 0 0-.116.055 1 1 0 0 1-.161.058l-.08.026c-.105.037-.228.063-.334.02L15.64.993l-.024-.016a1 1 0 0 1-.099-.072c-.026-.023-.026-.023-.063-.033V.848l-.02-.009-.094-.055-.034-.021a1 1 0 0 1-.093-.07 2 2 0 0 0-.156-.096V.573l-.021-.011-.075-.038V.5l-.024-.008a.5.5 0 0 1-.11-.073c-.023-.018-.023-.018-.058-.028V.367l-.026-.009a.5.5 0 0 1-.097-.06q-.06-.046-.123-.087a4 4 0 0 1-.235-.169l.035-.159.006-.029.013-.057q.018-.08.029-.162.011-.092.026-.184.023-.144.036-.287l.003-.029c.021-.238.022-.477.022-.716v-.025c0-.374-.023-.738-.074-1.108l-.006-.045a4 4 0 0 0-.088-.467 2 2 0 0 1-.032-.148 1.2 1.2 0 0 0-.064-.214 1 1 0 0 1-.032-.114 1 1 0 0 0-.064-.181 1 1 0 0 1-.032-.095 1 1 0 0 0-.063-.159l-.036-.087q-.038-.093-.081-.184l-.014-.03a1 1 0 0 0-.088-.154l-.03-.059a1.6 1.6 0 0 0-.142-.235 1 1 0 0 1-.067-.116.3.3 0 0 0-.05-.059l-.025-.041-.012-.022-.035-.069h-.024l-.02-.038a.5.5 0 0 0-.07-.097q-.035-.041-.069-.084a4 4 0 0 0-.15-.171l-.073-.084a1 1 0 0 0-.111-.104l-.055-.064a1 1 0 0 0-.107-.104.5.5 0 0 1-.073-.077c-.062-.071-.141-.127-.214-.186q-.047-.041-.092-.087a.7.7 0 0 0-.116-.091c-.029-.017-.029-.017-.056-.045a1 1 0 0 0-.111-.094l-.02-.015a1 1 0 0 0-.1-.07l-.031-.022v-.024l-.028-.01c-.032-.014-.032-.014-.068-.038v-.024l-.027-.01a.4.4 0 0 1-.088-.051l-.032-.023-.034-.025a5 5 0 0 0-.275-.182l-.141-.09a1 1 0 0 0-.09-.042v-.024l-.026-.01q-.054-.024-.107-.05l-.044-.022a3 3 0 0 1-.225-.12 1 1 0 0 0-.16-.076 1 1 0 0 1-.083-.042.6.6 0 0 0-.133-.056q-.047-.017-.095-.037a3 3 0 0 0-.438-.141l-.107-.028a2.2 2.2 0 0 0-.437-.069.23.23 0 0 1 .047-.127q.029-.039.053-.081a1 1 0 0 1 .105-.126l.024-.026c.064-.067.131-.125.204-.182l.041-.037c.152-.132.152-.132.211-.132v-.024l.045-.016a.3.3 0 0 0 .099-.056l-.025-.03-.11-.141-.14-.178c-.123-.149-.123-.149-.146-.217h-.024c-.036-.068-.036-.068-.036-.108" fill="#b63334" style="stroke-width:1px"/>
  <path d="M13.943.859a.4.4 0 0 1 .124.043l.032.017.024.013v.024l.026.01c.093.039.179.098.263.155q.053.034.109.064v.024l.031.008a.4.4 0 0 1 .102.06q.038.026.079.047a1 1 0 0 1 .113.077c.032.015.032.015.06.024v.024l.025.009q.057.025.111.057l.039.022.029.02v.024l.035.008c.059.017.11.05.157.089v.024l.029.008a1 1 0 0 1 .199.112c.086.056.152.08.254.061a2 2 0 0 0 .169-.062l.108-.041q.076-.028.147-.066l.069-.028a1 1 0 0 0 .131-.065 1 1 0 0 1 .11-.05l.047-.023q.05-.026.103-.048a1 1 0 0 0 .108-.055 1 1 0 0 1 .145-.066q.06-.026.12-.057.121-.061.247-.11l.089-.036.058-.023.028-.012a.3.3 0 0 1 .149-.028 1.3 1.3 0 0 1-.038.188l-.021.097q-.02.096-.049.191-.028.089-.048.181c-.014.067-.036.132-.058.197a1 1 0 0 0-.039.141 1 1 0 0 1-.047.153q-.034.093-.062.187-.03.098-.068.192l-.032.09q-.033.098-.07.195l-.014.038a7 7 0 0 1-.118.29l-.06.148a2 2 0 0 1-.091.198l-.035.075q-.027.062-.062.119a1 1 0 0 0-.041.09q-.028.061-.061.121l-.014.027-.029.054-.037.069q-.098.18-.208.354l-.047.081q-.054.09-.115.177l-.02.029-.018.026c-.016.024-.016.024-.026.06h-.024l-.01.02-.055.094-.021.034c-.022.033-.022.033-.048.065-.024.027-.024.027-.034.064l-.041.04c-.043.047-.078.101-.115.153q-.074.1-.153.195l-.077.095-.024.03-.046.058a3 3 0 0 1-.171.195.2.2 0 0 0-.059.089l-.055.044c-.02.016-.02.016-.036.046a.2.2 0 0 1-.056.062c-.037.026-.037.026-.047.065-.019.019-.019.019-.044.038a1 1 0 0 0-.116.118l-.081.084-.072.078q-.052.057-.105.111c-.028.027-.028.027-.05.057-.029.035-.062.061-.097.09l-.048.06-.06.06-.038.038-.1.1-.051.052q-.048.046-.1.087a1 1 0 0 0-.089.096 1 1 0 0 1-.095.092.7.7 0 0 0-.103.107.6.6 0 0 1-.09.086q-.03.026-.056.053l-.029.023a.7.7 0 0 0-.114.114c-.036.044-.079.079-.123.116-.096.081-.096.081-.179.174a.6.6 0 0 1-.089.085c-.024.02-.024.02-.052.053-.029.025-.029.025-.059.024l-.029-.011-.024-.009c-.033-.02-.057-.048-.084-.075l-.036-.012-.048-.06-.062-.052a3 3 0 0 1-.238-.213 1 1 0 0 0-.096-.09c-.045-.037-.084-.078-.125-.12a1 1 0 0 0-.075-.067.5.5 0 0 1-.089-.096 1 1 0 0 0-.102-.095 1 1 0 0 1-.098-.102c-.018-.022-.018-.022-.045-.048q-.044-.045-.087-.093a1.4 1.4 0 0 0-.155-.154c-.055-.046-.1-.1-.144-.155a.5.5 0 0 0-.073-.075c-.033-.027-.058-.056-.086-.088-.019-.022-.019-.022-.045-.048q-.058-.06-.113-.123l-.088-.09-.103-.102-.028-.027a1 1 0 0 1-.122-.135 1 1 0 0 0-.096-.089.6.6 0 0 1-.093-.098c-.015-.019-.015-.019-.04-.03l-.016-.028c-.023-.036-.047-.054-.08-.08l-.055-.063a.7.7 0 0 0-.109-.105c-.031-.026-.044-.05-.065-.084l-.06-.048-.053-.062q-.038-.043-.08-.083l-.083-.091a3 3 0 0 0-.11-.114l-.084-.09-.022-.023a3 3 0 0 1-.122-.14 1 1 0 0 0-.097-.09c-.035-.03-.035-.03-.057-.059-.039-.047-.086-.08-.135-.116l-.028-.022c-.116-.086-.233-.154-.381-.135l-.06.012v.024l-.028.016c-.096.059-.138.206-.165.309-.006.059-.006.059.019.111l.025.022c.03.028.059.054.085.087a1 1 0 0 0 .075.081q.051.049.096.102a1 1 0 0 0 .139.138c.035.029.062.06.09.096a1 1 0 0 0 .101.094c.048.041.088.087.128.135q.062.075.132.144l.042.042.071.07q.058.06.112.123l.057.059q.059.059.114.122a3 3 0 0 0 .11.114l.083.083.022.021q.063.063.12.13a.7.7 0 0 0 .108.103c.031.026.044.05.065.084l.06.048.055.064q.03.036.065.068.064.063.122.132l.051.054q.063.064.121.131.062.07.134.129a.3.3 0 0 1 .077.096l.06.048.06.072.027.027q.06.06.114.125a1 1 0 0 0 .088.077l.036.041q.031.037.065.071.042.042.08.087.05.056.108.102l.062.071q.04.045.082.085c.159.157.159.157.229.241l.06.06.084.083.022.022q.05.048.094.101.042.05.089.095l.035.035.018.018.055.055.018.018.05.051a.3.3 0 0 0 .059.051c.031.026.044.05.065.084l.06.048.054.063a1 1 0 0 0 .107.104.6.6 0 0 1 .085.089l.048.051q.043.044.083.092l.041.047a.6.6 0 0 1 .088.116c.021.042.021.042.053.077.032.039.046.074.065.12l.029.045c.03.047.048.095.066.147q.016.044.036.085c.031.069.046.14.063.214l.009.04.026.119.007.033c.024.121.021.245.021.368v.036c0 .176-.009.343-.053.514l-.01.044-.018.071-.017.087c-.014.073-.042.141-.069.21l-.036.104a1 1 0 0 1-.062.139l-.032.069a2 2 0 0 1-.095.191 2 2 0 0 1-.093.156l-.024.043a1 1 0 0 1-.072.102l-.017.029-.05.068c-.03.032-.03.032-.041.071l-.06.06-.059.064-.032.035-.073.084a1 1 0 0 1-.123.119l-.056.053q-.048.047-.1.089l-.035.029c-.029.022-.029.022-.053.022v.024c-.02.016-.02.016-.047.033l-.03.019-.031.02-.054.036-.027.018-.055.038a1 1 0 0 1-.165.089l-.049.029c-.059.034-.122.055-.187.077-.041.014-.041.014-.079.032-.066.029-.137.044-.206.062l-.042.011-.123.03-.031.008c-.116.025-.235.024-.353.025h-.036a2.6 2.6 0 0 1-.563-.06l-.035-.007a2 2 0 0 1-.312-.088c-.058-.019-.119-.025-.18-.032a1.6 1.6 0 0 1-.381-.102l-.057-.02q-.087-.031-.17-.072l-.035-.016a1 1 0 0 1-.169-.094l-.029-.011a.5.5 0 0 1-.128-.073v-.024l-.03-.007a.4.4 0 0 1-.112-.068q-.06-.046-.124-.087l-.023-.018v-.024l-.027-.009a.3.3 0 0 1-.088-.061l-.028-.026-.058-.058c-.028-.029-.028-.029-.064-.05a.4.4 0 0 1-.096-.097 1 1 0 0 0-.095-.088 1 1 0 0 1-.099-.102l-.078-.088-.053-.059-.023-.026c-.049-.056-.049-.056-.049-.083h-.024l-.036-.06-.053-.065-.029-.035-.045-.054a.6.6 0 0 1-.066-.094c-.021-.04-.021-.04-.047-.065-.027-.027-.042-.055-.06-.088-.012-.022-.012-.022-.037-.044-.023-.024-.023-.024-.041-.065-.02-.047-.046-.077-.079-.116l-.037-.074c-.012-.025-.012-.025-.036-.053a.5.5 0 0 1-.06-.103c-.013-.026-.013-.026-.035-.057q-.054-.083-.098-.171l-.013-.024c-.023-.045-.023-.045-.023-.073l-.093.046-.026.013a1 1 0 0 0-.107.058.3.3 0 0 1-.082.032 1 1 0 0 0-.133.049 1 1 0 0 1-.197.062q-.076.018-.15.042-.097.03-.196.045l-.155.029a6 6 0 0 1-.597.085l-.048.005c-.856.082-1.709.065-2.565-.01l-.045-.004-.087-.008a5 5 0 0 0-.228-.015c-.141-.006-.28-.028-.419-.048l-.162-.023-.04-.006-.226-.027a3 3 0 0 1-.301-.048l-.124-.023a3 3 0 0 0-.172-.025 2 2 0 0 1-.259-.048 3 3 0 0 0-.24-.048 2 2 0 0 1-.221-.047 5 5 0 0 0-.235-.056 3 3 0 0 1-.211-.056 1 1 0 0 0-.132-.033c-.068-.012-.133-.036-.198-.058a1 1 0 0 0-.127-.038 1.4 1.4 0 0 1-.165-.055l-.059-.022-.028-.011-.098-.033-.122-.044-.033-.011c-.088-.034-.088-.034-.115-.081l-.019-.044-.022-.041a1.3 1.3 0 0 1-.1-.286l-.034-.117c-.028-.089-.045-.181-.063-.273a3 3 0 0 0-.06-.256q-.015-.066-.022-.133-.023-.164-.058-.327a3 3 0 0 1-.041-.276 3 3 0 0 0-.027-.194l-.009-.057-.005-.029a4 4 0 0 1-.052-.634q.137-.066.279-.118a.4.4 0 0 0 .082-.05l.071-.026q.05-.023.094-.054.068-.04.141-.073c.031-.015.031-.015.055-.04l.058-.024c.079-.035.153-.08.226-.127q.076-.048.156-.087.077-.04.15-.087a6 6 0 0 1 .229-.132 3 3 0 0 0 .147-.089q.128-.081.264-.147.054-.026.105-.059c.062-.04.128-.071.194-.103l.027-.013.082-.035.044-.019c.197-.082.333-.05.529.021l.115.037a2 2 0 0 1 .138.047q.084.03.17.049.092.025.182.056.073.021.149.032l.093.02c.194.046.389.07.586.091l.088.01.297.032.024.003.076.007.032.003q.151.013.303.016l.027.001q.306.008.611.006h.149c.461.005.461.005.92-.035l.046-.006.138-.021.042-.006q.383-.061.746-.194c.056-.02.109-.037.167-.048q.071-.014.141-.032c.047-.008.047-.008.084.008l.023.021v.024l.02.003c.037.012.06.031.088.057v.024l.021.011.027.014.023.009c.03.018.048.041.07.068a.7.7 0 0 0 .112.108c.034.03.056.058.082.095q.034.043.075.081.118.117.223.245.028.032.06.062.072.072.14.148l.131.135a5 5 0 0 1 .147.166l.061.066q.072.074.141.153l.063.07.029.032.057.06q.064.066.125.134c.033.038.033.038.075.066l.016.028c.023.036.047.054.081.081l.061.069.079.09.026.029.056.058q.052.052.103.108l.019.021.095.107c.03.036.03.036.059.064q.051.052.099.105a3 3 0 0 0 .141.147q.05.053.098.109c.018.021.018.021.043.032l.016.028c.023.036.047.054.081.081l.053.062q.038.043.08.083l.083.088.023.024q.065.07.128.142l.075.083a2 2 0 0 1 .107.132c.06.083.06.083.139.145l.015.026c.027.044.061.08.097.117q.07.073.137.152a1 1 0 0 0 .113.109c.035.03.035.03.058.059.039.048.088.1.145.127.035.019.058.046.085.073q.108.09.229.156l.038.026c.039.025.039.025.082.034.125-.081.214-.219.301-.337a.4.4 0 0 0-.069-.101.4.4 0 0 1-.049-.081q-.026-.04-.057-.074-.047-.059-.092-.119a7 7 0 0 0-.166-.21l-.066-.083-.123-.153-.103-.129c-.02-.025-.02-.025-.038-.043q-.053-.056-.099-.118-.043-.049-.088-.094l-.032-.043q-.066-.085-.141-.163l-.075-.084-.102-.114-.123-.138-.076-.085-.162-.183-.023-.026-.021-.024c-.017-.02-.017-.02-.042-.031l-.016-.028c-.023-.036-.047-.054-.08-.08l-.061-.069-.079-.089-.086-.099a2 2 0 0 0-.087-.093c-.093-.091-.093-.091-.129-.135a1 1 0 0 0-.088-.094c-.159-.157-.159-.157-.229-.241l-.06-.06-.042-.042-.072-.071-.072-.079a1 1 0 0 0-.138-.137 1 1 0 0 1-.092-.095.7.7 0 0 0-.108-.104c-.034-.029-.053-.06-.077-.097a1 1 0 0 0-.102-.096 1 1 0 0 1-.102-.109 1 1 0 0 0-.103-.096.6.6 0 0 1-.09-.096 1 1 0 0 0-.102-.095 1 1 0 0 1-.098-.102L7.315 7a2 2 0 0 1-.143-.162c-.018-.026-.018-.026-.044-.037l-.015-.026a.5.5 0 0 0-.053-.072q-.06-.07-.112-.146l-.068-.088a.7.7 0 0 1-.125-.21h-.024l-.014-.036a1 1 0 0 0-.049-.091 2 2 0 0 1-.164-.334l-.038-.079c-.027-.052-.042-.106-.058-.162a1.7 1.7 0 0 1-.1-.347l-.009-.044a2.5 2.5 0 0 1-.054-.52V4.62c0-.148.015-.29.046-.436l.018-.093c.025-.135.068-.258.121-.384l.018-.042q.03-.07.065-.137l.013-.026q.038-.076.084-.148l.038-.064c.021-.037.045-.067.071-.1l.017-.028c.103-.17.267-.327.416-.456l.047-.042a.3.3 0 0 1 .122-.076v-.024a1 1 0 0 1 .181-.12l.033-.023q.12-.078.252-.133.047-.021.092-.047c.103-.052.212-.086.321-.123l.034-.012q.062-.019.126-.03l.025-.005.052-.01.079-.015c.115-.021.226-.039.343-.04h.092l.092-.001c.176-.001.351.016.518.076l.031.011c.048.018.083.031.121.067.048.041.103.053.164.068.112.029.218.063.32.121q.045.026.092.046c.035.014.064.033.096.053l.035.023.032.021.023.015q.039.026.076.054c.023.018.023.018.058.028l.06.06.06.036v.024l.022.01a.3.3 0 0 1 .066.046l.022.019.023.02.047.041.024.021.05.044q.053.045.102.094.034.033.071.058a.4.4 0 0 1 .086.084q.04.045.088.082.044.04.085.082l.076.071.021.019q.064.059.131.116.04.035.078.072.089.084.188.155l.054.041.024.018.018.013.044-.032.025-.018c.118-.095.272-.247.34-.383h.024l.009-.02a.6.6 0 0 1 .066-.091q.059-.07.113-.143l.04-.051.07-.094q.06-.084.126-.163a1 1 0 0 0 .057-.088l.044-.061q.111-.154.212-.316.032-.049.066-.096a1 1 0 0 0 .075-.129l.028-.044q.082-.134.15-.276l.046-.085q.036-.066.065-.136l.046-.09c.015-.031.015-.031.026-.066a1 1 0 0 1 .047-.106q.035-.067.062-.138a1 1 0 0 1 .07-.141q.028-.053.05-.109l.036-.072" fill="#742622" style="stroke-width:1px"/>
  <path d="M8.859 2h.092l.092-.001c.176-.001.351.016.518.076l.031.01a.4.4 0 0 1 .174.11v.024l-.028-.001c-.244-.01-.244-.01-.477.049l-.029.011c-.128.05-.234.149-.332.242l-.023.021a1.7 1.7 0 0 0-.422.58l-.01.023c-.093.216-.137.45-.137.685l-.001.078c-.001.116.013.22.04.333l.007.03c.051.227.157.498.342.647q.054.047.098.104.047.053.099.101l.068.074a1 1 0 0 0 .139.138c.035.029.062.06.09.096a1 1 0 0 0 .101.094c.048.041.088.087.128.135q.062.075.132.144l.042.042.071.07q.058.06.112.123l.057.059q.058.059.114.122a3 3 0 0 0 .11.114l.083.083.022.021q.063.063.12.13a.7.7 0 0 0 .108.103c.031.026.044.05.065.084l.06.048.055.064q.03.036.065.068.064.063.122.132l.051.054q.063.064.121.131.062.07.134.129a.3.3 0 0 1 .077.096l.06.048.06.072.027.027q.06.06.114.125a1 1 0 0 0 .088.077l.036.041q.031.037.065.071.042.042.08.087.05.056.108.102l.062.071q.04.045.082.085c.159.157.159.157.229.241l.06.06.084.083.022.022q.05.048.094.101.041.05.089.095l.035.035.018.018.055.055.018.018.05.051a.3.3 0 0 0 .059.051c.031.026.044.05.065.084l.06.048.054.063a1 1 0 0 0 .107.104.6.6 0 0 1 .085.089l.048.051q.043.044.083.092l.041.047a.6.6 0 0 1 .088.116c.021.042.021.042.053.077.032.039.046.074.065.12l.029.045c.03.047.048.095.066.147q.016.044.036.085c.031.069.046.14.063.214l.009.04.026.119.007.033c.024.121.021.245.021.368v.036c0 .176-.009.343-.053.514l-.01.044-.018.071-.017.087c-.014.073-.042.141-.069.21l-.036.104a1 1 0 0 1-.062.139l-.032.069a2 2 0 0 1-.095.191 2 2 0 0 1-.093.156l-.024.043a1 1 0 0 1-.072.102l-.017.029-.05.068c-.03.032-.03.032-.041.071l-.06.06-.059.064-.032.035-.073.084a1 1 0 0 1-.123.119l-.056.053q-.048.047-.1.089l-.035.029c-.029.022-.029.022-.053.022v.024c-.02.016-.02.016-.047.033l-.03.019-.031.02-.054.036-.027.018-.055.038a1 1 0 0 1-.165.089l-.049.029c-.059.034-.122.055-.187.077-.041.014-.041.014-.079.032-.066.029-.137.044-.206.062l-.042.011-.123.03-.031.008c-.116.025-.235.024-.353.025h-.036a2.6 2.6 0 0 1-.563-.06l-.035-.007a2 2 0 0 1-.342-.098v-.012h.024c.418-.01.789-.068 1.108-.361l.022-.019c.067-.062.118-.138.169-.213l.034-.049c.084-.129.135-.289.16-.44l.012-.012a2 2 0 0 0 .03-.366v-.026a2.4 2.4 0 0 0-.238-1.021c-.008-.021-.008-.021-.008-.045l-.02-.002c-.09-.031-.154-.122-.195-.203q-.026-.04-.057-.074-.047-.059-.092-.119a7 7 0 0 0-.166-.21l-.066-.083-.123-.153-.103-.129c-.02-.025-.02-.025-.038-.043q-.053-.056-.099-.118-.043-.049-.088-.094l-.032-.043q-.066-.085-.141-.163l-.075-.084-.102-.114-.123-.138-.076-.085-.162-.183-.023-.026-.021-.024c-.017-.02-.017-.02-.042-.031l-.016-.028c-.023-.036-.047-.054-.08-.08l-.061-.069-.079-.089-.086-.099a2 2 0 0 0-.087-.093c-.093-.091-.093-.091-.129-.135a1 1 0 0 0-.088-.094c-.159-.157-.159-.157-.229-.241l-.06-.06-.042-.042-.072-.071-.072-.079a1 1 0 0 0-.138-.137 1 1 0 0 1-.092-.095.7.7 0 0 0-.108-.104c-.034-.029-.053-.06-.077-.097a1 1 0 0 0-.102-.096 1 1 0 0 1-.102-.109 1 1 0 0 0-.103-.096.6.6 0 0 1-.09-.096 1 1 0 0 0-.102-.095 1 1 0 0 1-.098-.102l-.046-.049a2 2 0 0 1-.143-.162c-.018-.026-.018-.026-.044-.037l-.015-.026a.5.5 0 0 0-.053-.072q-.06-.07-.112-.146l-.068-.088a.7.7 0 0 1-.125-.21h-.024l-.014-.036a1 1 0 0 0-.049-.091 2 2 0 0 1-.164-.334l-.038-.079c-.027-.052-.042-.106-.058-.162a1.7 1.7 0 0 1-.1-.347L6.3 5.156a2.5 2.5 0 0 1-.054-.52V4.61c0-.148.015-.29.046-.436l.018-.093c.025-.135.068-.258.121-.384l.018-.042q.03-.07.065-.137l.013-.026q.038-.076.084-.148l.038-.064c.021-.037.045-.067.071-.1l.017-.028c.103-.17.267-.327.416-.456l.047-.042a.3.3 0 0 1 .122-.076v-.024a1 1 0 0 1 .181-.12l.033-.023q.12-.078.252-.133.047-.021.092-.047c.103-.052.212-.086.321-.123l.034-.012q.062-.019.126-.03l.025-.005.052-.01.079-.015c.115-.021.226-.039.343-.04" fill="#e0322b" style="stroke-width:1px"/>
  <path d="M1.046 6.963 1.161 7a2 2 0 0 1 .138.047q.084.03.17.049.093.025.182.056.073.021.149.032.046.008.093.02c.194.046.389.07.586.091l.088.01.297.032.024.003.076.007.032.003q.151.012.303.016l.027.001q.306.007.611.006h.149c.461.005.461.005.92-.035l.046-.006.138-.021.042-.006q.383-.061.746-.194c.056-.02.109-.037.167-.048q.071-.014.141-.032c.047-.008.047-.008.084.008l.023.021v.024l.02.003c.037.012.06.031.088.057v.024l.021.011.027.014.023.009c.03.018.048.041.07.068a.7.7 0 0 0 .112.108c.034.03.056.058.082.095q.034.044.075.081.118.117.223.245.028.032.06.062.072.073.14.148l.131.135a5 5 0 0 1 .147.166l.061.066q.072.074.141.153l.063.07.029.032.057.06q.064.066.125.134c.033.038.033.038.075.066l.016.028c.023.036.047.054.081.081l.061.069.079.09.026.029.056.058q.052.053.103.108l.019.021.095.107c.03.036.03.036.059.064q.051.052.099.105a3 3 0 0 0 .141.147q.05.053.098.109c.018.021.018.021.043.032l.016.028c.023.036.047.054.081.081l.053.062q.038.043.08.083l.083.088.023.024q.065.07.128.142l.075.083a2 2 0 0 1 .107.132c.06.083.06.083.139.145l.015.026c.027.044.061.08.097.117q.07.073.137.152a1 1 0 0 0 .113.109c.035.03.035.03.058.059.039.048.088.1.145.127.035.019.058.046.085.073q.108.09.229.156l.038.026c.039.025.039.025.082.034.129-.084.222-.228.313-.349l.022.011c.027.014.027.014.062.025l.038.079.011.026.035.088.012.031c.189.496.236 1.058.025 1.554a1.33 1.33 0 0 1-.495.569l-.038.025c-.327.203-.788.232-1.161.157a2 2 0 0 1-.269-.089l-.059-.02q-.087-.031-.17-.072l-.035-.016a1 1 0 0 1-.169-.094l-.029-.011a.5.5 0 0 1-.128-.073v-.024l-.03-.007a.4.4 0 0 1-.112-.068q-.06-.046-.124-.087l-.023-.018v-.024l-.027-.009a.3.3 0 0 1-.088-.061l-.028-.026-.058-.058c-.028-.029-.028-.029-.064-.05a.4.4 0 0 1-.096-.097 1 1 0 0 0-.095-.088 1 1 0 0 1-.099-.102l-.078-.088-.053-.059-.023-.026c-.049-.056-.049-.056-.049-.083h-.024l-.036-.06-.053-.065-.029-.035-.045-.054a.6.6 0 0 1-.066-.094c-.021-.04-.021-.04-.047-.065-.027-.027-.042-.055-.06-.088-.012-.022-.012-.022-.037-.044-.023-.024-.023-.024-.041-.065-.02-.047-.046-.077-.079-.116l-.037-.074c-.012-.025-.012-.025-.036-.053a.5.5 0 0 1-.06-.103c-.013-.026-.013-.026-.035-.057q-.054-.083-.098-.171l-.013-.024c-.023-.045-.023-.045-.023-.073l-.093.046-.026.013a1 1 0 0 0-.107.058.3.3 0 0 1-.082.032 1 1 0 0 0-.133.049 1 1 0 0 1-.197.062q-.076.018-.15.042-.096.03-.196.045a3 3 0 0 0-.155.029 6 6 0 0 1-.597.085l-.048.005c-.856.082-1.709.065-2.565-.01l-.045-.004-.087-.008a5 5 0 0 0-.228-.015c-.141-.006-.28-.028-.419-.048l-.162-.023-.04-.006-.226-.027a3 3 0 0 1-.301-.048l-.099-.019-.025-.005a3 3 0 0 0-.172-.025 2 2 0 0 1-.259-.048 3 3 0 0 0-.24-.048 2 2 0 0 1-.221-.047 5 5 0 0 0-.235-.056 3 3 0 0 1-.211-.056 1 1 0 0 0-.132-.033c-.068-.012-.133-.036-.198-.058a1 1 0 0 0-.127-.038 1.4 1.4 0 0 1-.165-.055l-.059-.022-.028-.011-.098-.033-.122-.044-.033-.011c-.088-.034-.088-.034-.115-.081l-.019-.044-.022-.041a1.3 1.3 0 0 1-.1-.286l-.034-.117c-.028-.089-.045-.181-.063-.273a3 3 0 0 0-.06-.256q-.015-.066-.022-.133-.023-.164-.058-.327a3 3 0 0 1-.041-.276 3 3 0 0 0-.027-.194l-.009-.057-.005-.029a4 4 0 0 1-.052-.634q.137-.066.279-.118a.4.4 0 0 0 .082-.05l.071-.026q.05-.023.094-.054.068-.04.141-.073c.031-.015.031-.015.055-.04l.058-.024c.079-.035.153-.08.226-.127q.076-.048.156-.087.077-.04.15-.087a6 6 0 0 1 .229-.132 3 3 0 0 0 .147-.089q.128-.081.264-.147.054-.026.105-.059c.062-.04.128-.071.194-.103l.027-.013.082-.035.044-.019c.197-.082.333-.05.529.021" fill="#742622" style="stroke-width:1px"/>
  <path d="m-3.378-3.125.005.022.023.098.008.034q.022.094.053.184a.4.4 0 0 1 .017.086q.017.103.05.204.038.126.06.257.018.101.044.201c.075.306.081.558-.024.858q-.03.084-.048.172-.018.069-.042.136a2 2 0 0 0-.054.179c-.014.056-.034.11-.052.165q-.03.09-.044.184l-.024.12a4 4 0 0 0-.076.485l-.017.162c-.051.474-.05.95.017 1.422q.01.072.017.144c.012.128.04.252.069.378l.02.096q.03.156.082.306.019.057.032.115.025.097.064.19a1 1 0 0 1 .032.099 1 1 0 0 0 .062.153l.039.099a2 2 0 0 0 .109.245l.05.102.012.025q.075.158.169.304c.011.02.011.02.011.044h.024l.014.037q.027.06.067.11.05.072.088.154h.024l.013.03c.027.051.06.093.095.138l.027.035a5 5 0 0 0 .179.222l.094.116a1 1 0 0 0 .098.108q.07.067.132.144.064.064.13.125l.019.018a4 4 0 0 0 .176.156q.097.087.202.165.052.039.103.081c.088.072.088.072.182.135q.062.039.121.082c.03.021.03.021.064.04l.026.017v.024l.038.009a.26.26 0 0 1 .106.063l.048.024v.024l.027.004a.3.3 0 0 1 .09.041q.09.055.184.099c.003.027.003.027 0 .06-.108.131-.283.233-.428.319l-.114.075c-.024.015-.024.015-.048.015v.024l-.037.015a1 1 0 0 0-.131.068l-.022.013-.114.069c-.138.088-.138.088-.19.088v.024l-.035.014a1 1 0 0 0-.105.056c-.083.051-.17.093-.258.135a2 2 0 0 0-.127.072q-.067.039-.137.072l-.144.078-.064.036-.031.017-.097.053-.166.092-.026.014a.4.4 0 0 0-.088.061l-.062.026q-.05.026-.095.059h-.024c.007.311.031.619.085.925q.013.075.021.152c.012.096.036.189.06.283q.025.094.038.19c.01.08.034.157.057.234q.027.09.046.182.022.102.055.201.036.118.058.241l.012.06a.5.5 0 0 1-.215-.066 1 1 0 0 0-.088-.036c-.06-.022-.112-.057-.166-.09l-.062-.037a4 4 0 0 1-.256-.166l-.027-.019a3 3 0 0 1-.173-.132l-.068-.048-.029-.02V9.73l-.021-.011-.027-.014-.023-.01c-.034-.02-.057-.047-.085-.074l-.067-.062-.019-.017-.059-.054-.078-.071-.035-.031-.064-.062a.4.4 0 0 0-.071-.057.5.5 0 0 1-.102-.103 1 1 0 0 0-.096-.089.6.6 0 0 1-.09-.094q-.038-.043-.079-.082l-.067-.073c-.046-.05-.046-.05-.094-.098-.02-.021-.02-.021-.02-.045l-.02-.008c-.038-.022-.064-.052-.093-.084l-.018-.02a2 2 0 0 1-.108-.134.4.4 0 0 0-.051-.056l-.031-.038c-.025-.035-.025-.035-.053-.047l-.035-.064c-.016-.026-.036-.039-.061-.057l-.036-.06-.059-.078-.016-.02-.07-.089a3 3 0 0 1-.093-.126l-.052-.071c-.071-.096-.071-.096-.097-.144-.02-.038-.02-.038-.045-.067a.5.5 0 0 1-.06-.104c-.012-.025-.012-.025-.036-.053-.026-.033-.042-.066-.06-.103-.012-.025-.012-.025-.037-.054a.3.3 0 0 1-.049-.089c-.04-.093-.095-.179-.148-.265a1 1 0 0 1-.046-.108q-.025-.06-.056-.12l-.013-.025-.055-.107a1.4 1.4 0 0 1-.078-.185q-.02-.05-.043-.101a1 1 0 0 1-.056-.154 1 1 0 0 0-.041-.104 1 1 0 0 1-.041-.123c-.01-.052-.029-.1-.048-.15a1.3 1.3 0 0 1-.064-.225q-.017-.073-.039-.144a2 2 0 0 1-.052-.227 4 4 0 0 0-.052-.253 2 2 0 0 1-.036-.229 4 4 0 0 0-.026-.191c-.136-.875-.157-1.808.015-2.679q.016-.081.027-.164.018-.121.048-.239c.026-.11.026-.11.048-.222q.019-.1.048-.198.028-.095.048-.193.019-.09.047-.178.031-.098.056-.198.027-.104.063-.205.018-.057.032-.114.02-.072.047-.142a5 5 0 0 0 .068-.202c.048-.161.107-.319.169-.475l.032-.083q.023-.061.049-.121c.016-.036.016-.036.027-.07a1 1 0 0 1 .049-.123l.018-.042.019-.043.018-.043.048-.107.048-.11q.029-.062.063-.12c.017-.03.017-.03.033-.069a2.7 2.7 0 0 1 .428-.67l.021-.025a.3.3 0 0 1 .159-.094q.08-.03.156-.069c.037-.015.037-.015.072-.021.046-.008.083-.027.124-.047a1 1 0 0 1 .185-.071 1 1 0 0 0 .095-.039 1 1 0 0 1 .126-.048c.057-.016.108-.039.161-.064q.055-.024.112-.041.05-.017.097-.038.102-.042.206-.077.057-.022.111-.051l.056-.02.027-.009c.026-.007.026-.007.074-.007" fill="#b63334" style="stroke-width:1px"/>
</svg>
