<svg xmlns="http://www.w3.org/2000/svg" width="22.392" height="24" viewBox="0 0 22.392 24"><path d="M12.002-.005h.044c.22.001.434.009.65.053l.037.007q.114.024.227.053l.048.012c.273.068.532.179.782.308l.037.019q.122.065.237.141l.039.025c.322.213.639.484.873.791l.027.034c.289.365.497.773.645 1.214l.008.025c.081.241.127.498.151.751l.003.03.004.063.005.07c.012.109.021.21-.05.3a2 2 0 0 1-.116.117l-.052.053-.143.14-.15.148-.284.279-.322.317-.475.467-.051.05-.07.069-.02.02a2 2 0 0 1-.124.112.4.4 0 0 0-.054.058.7.7 0 0 1-.107.101l-.036.042c-.032.039-.069.069-.108.102l-.036.042c-.032.039-.069.069-.108.102l-.035.041a.5.5 0 0 1-.082.082 3 3 0 0 0-.15.142l-.028.028-.094.094-.067.067-.145.145-.21.21-.34.341-.021.021-.31.31-.021.021-.339.34-.209.209-.143.143-.083.083-.09.09-.026.026q-.052.053-.109.101a.4.4 0 0 0-.067.074h-.024l-.024.048h-.024l-.024.048h-.024l-.024.048h-.024l-.024.048h-.024l-.024.048h-.024l-.024.048h-.024l-.024.048h-.024l-.007.02a.24.24 0 0 1-.068.07q-.042.037-.081.077l-.054.054-.031.031-.47.47-.143.143-.022.022-.505.506-.292.293-.255.255-.135.135-.127.127-.047.047-.063.063-.019.019c-.042.042-.042.042-.069.042l-.001-2.204V3.926c0-.238.002-.474.041-.709l.004-.025q.032-.206.089-.407l.008-.03q.055-.2.136-.39l.018-.043c.089-.215.198-.426.33-.617l.016-.024q.2-.297.451-.553l.022-.022q.13-.137.278-.254L9.63.818q.142-.117.295-.215l.07-.045q.163-.105.337-.186l.028-.013a3.8 3.8 0 0 1 1.642-.364M8.196 12.636c.057.011.087.047.127.087l.024.024.079.08.057.057.123.123.194.195.272.273.28.281.017.017.288.288.193.194.12.121.056.056.076.076.022.022q.053.054.11.103.074.065.144.136l.027.027.09.09.065.065.14.14.202.202.328.328.318.318.02.02.098.098.759.76.099.099.081.081.155.155.093.094.091.091.034.035.048.048.028.028c.025.024.025.024.06.047v.024l.048.024v.024l.048.024v.024l.048.024v.024l.048.024v.024l.048.024v.024l.048.024v.024l.048.024v.024l.02.007c.031.018.049.041.071.069q.036.04.079.073.033.029.064.061l.105.104.083.081.642.632.114.113.306.301.314.31.194.19.148.147.061.059c.171.163.171.163.176.294a1 1 0 0 1-.01.124q-.005.05-.007.1l-.005.06-.003.034c-.049.488-.205.96-.433 1.393l-.013.025a3.5 3.5 0 0 1-.407.599l-.016.019a4 4 0 0 1-.255.278l-.031.032a3 3 0 0 1-.226.199l-.024.019a4 4 0 0 1-.264.197l-.022.015a3.9 3.9 0 0 1-1.263.54l-.035.009-.119.024-.024.005c-.2.038-.401.037-.604.037h-.116a3.62 3.62 0 0 1-2.376-.858l-.037-.03a3 3 0 0 1-.479-.486l-.031-.038a4 4 0 0 1-.233-.322l-.024-.035a3.8 3.8 0 0 1-.543-1.473l-.006-.038c-.032-.222-.029-.447-.029-.671v-5.247l.001-2.171M3.965 8.195h1.598l1.925.001v7.62l-1.939.002-.611.001H3.911a4 4 0 0 1-.777-.053l-.042-.008a3.7 3.7 0 0 1-1.388-.566l-.039-.026a3 3 0 0 1-.378-.297l-.076-.067q-.068-.06-.131-.125l-.061-.06c-.023-.025-.023-.025-.023-.049l-.036-.012q-.048-.053-.091-.11l-.057-.072a4 4 0 0 1-.247-.349l-.036-.055c-.068-.101-.117-.212-.168-.322l-.034-.071a3 3 0 0 1-.207-.581l-.008-.03a3.8 3.8 0 0 1-.117-.95v-.041c.001-.22.013-.431.053-.647l.007-.037a3.8 3.8 0 0 1 .797-1.703l.016-.019c.081-.101.17-.193.261-.284l.033-.033q.109-.108.23-.203l.042-.034q.247-.195.522-.348l.064-.037a3.5 3.5 0 0 1 1.135-.384l.033-.006.092-.015.026-.004c.217-.032.439-.024.658-.024" fill="#10b1aa"/><path d="m19.02 3.168.036.001c.635.026 1.31.214 1.824.599l.031.022c.15.108.292.222.425.35l.024.023c.099.096.192.192.276.301l.028.034c.265.334.46.717.587 1.123l.024.075c.029.093.047.188.065.284l.008.04c.037.205.05.404.049.613v.039c0 .212-.011.416-.052.625l-.008.039a3.4 3.4 0 0 1-.641 1.412l-.024.031a4 4 0 0 1-.152.179l-.053.059a4 4 0 0 1-.161.172l-.019.019a1 1 0 0 1-.099.091q-.1.09-.194.187l-.069.069-.195.196-.12.121-.046.046-.063.064-.019.019c-.043.043-.043.043-.07.043l-.012.036q-.025.022-.051.042-.043.037-.081.078l-.036.036-.04.04-.225.225-.136.136-.132.132-.05.05-.07.07-.02.021a2 2 0 0 1-.107.097.6.6 0 0 0-.114.142c-.145.22-.341.45-.61.505-.35.059-.717.033-1.069.017q-.224-.008-.446-.012a27 27 0 0 1-.692-.02l-.035-.001-.096-.004-.029-.001c-.064-.003-.064-.003-.077-.016l-.002-.114v-.037l-.001-.124-.001-.089-.001-.22-.001-.183q-.006-1.01-.01-2.021l-.001-.326-.006-1.048q-.005-.539-.005-1.078v-.182q0-.241-.003-.482l-.002-.485q0-.132-.002-.262c-.01-.587-.01-.587.139-.746q.074-.07.158-.125.089-.062.17-.134c.116-.095.233-.184.36-.264l.021-.014c.291-.187.627-.326.963-.406l.027-.006.163-.036.073-.015c.226-.045.467-.06.697-.05m-2.633 9.27.029-.001.097-.003.034-.001q.338-.01.675-.014.214-.003.43-.01.188-.006.375-.008.099-.001.198-.005c.234-.011.441-.016.626.144.108.099.219.211.3.334v.024l.036.012q.022.025.042.051.037.043.078.081l.03.03.032.032.178.178.108.107.105.104.04.039c.116.115.116.115.161.169q.084.095.176.183l.067.067.142.141.165.164.066.065q.09.089.174.184.069.075.141.145l.06.059.127.126.147.146.058.058q.096.095.185.198l.035.039c.338.383.588.859.715 1.352l.026.09c.225.847.068 1.808-.365 2.562q-.1.168-.219.325l-.015.02a3 3 0 0 1-.205.246q-.06.063-.116.128-.034.038-.072.074h-.024v.024c-.018.018-.018.018-.041.037l-.023.02c-.021.016-.021.016-.045.016v.024l-.065.052-.021.016a4 4 0 0 1-.429.289l-.056.034q-.136.08-.283.142l-.023.01q-.393.168-.815.239l-.034.006c-.173.029-.348.03-.524.03h-.03a3.4 3.4 0 0 1-1.583-.386l-.047-.023a3 3 0 0 1-.732-.53 1 1 0 0 0-.078-.065c-.067-.052-.116-.103-.13-.189q-.009-.118-.005-.238v-.092l.001-.2.001-.298.001-.501.002-.496v-.188q0-.555.003-1.109l.003-1.077v-.334q.001-1.035.005-2.07l.001-.188.001-.246v-.307c.004-.052.064-.036.104-.037m-7.399.004 1.894-.001h4.656c.071 0 .071 0 .085.014q.002.054.001.106v4.72l-.001 1.893c-.056-.01-.085-.044-.123-.083l-.022-.022-.046-.046-.069-.07-.044-.045-.02-.021a2 2 0 0 1-.101-.109 3 3 0 0 0-.138-.145l-.027-.027-.084-.083-.056-.056-.126-.125-.055-.055-.066-.059a1 1 0 0 1-.083-.082 5 5 0 0 0-.137-.151l-.023-.025a1 1 0 0 0-.125-.116l-.036-.041a1 1 0 0 0-.096-.103l-.038-.038-.02-.02-.125-.127-.092-.092-.052-.052-.035-.035-.052-.052-.031-.031-.069-.076q-.088-.099-.184-.191l-.068-.068-.145-.145-.169-.168-.067-.067-.041-.041-.019-.018a2 2 0 0 1-.111-.124l-.041-.035a.6.6 0 0 1-.08-.08 3 3 0 0 0-.156-.163l-.054-.053-.114-.113-.132-.131-.052-.052q-.068-.067-.132-.139-.086-.096-.179-.186l-.068-.068-.144-.143-.168-.167-.067-.066a3 3 0 0 1-.175-.185q-.077-.083-.158-.162l-.068-.068-.144-.144-.168-.167-.067-.066c-.112-.111-.112-.111-.155-.162q-.085-.096-.178-.185l-.068-.068-.145-.145-.169-.168-.067-.067-.041-.041-.019-.018a1 1 0 0 1-.083-.091.5.5 0 0 0-.081-.077q-.03-.027-.055-.058-.077-.087-.161-.168l-.056-.055-.158-.157-.097-.097-.037-.037-.051-.051-.03-.029c-.022-.025-.022-.025-.022-.061m6.636-7.392v6.576H8.94a.4.4 0 0 1 .096-.123l.022-.022.073-.073.051-.051.107-.107.137-.136.105-.105.05-.05.071-.07.021-.021a2 2 0 0 1 .124-.113c.021-.018.021-.018.048-.052a.5.5 0 0 1 .073-.073q.092-.082.178-.171l.035-.035.111-.111.128-.129.051-.051q.08-.082.167-.156c.023-.019.023-.019.05-.054a1 1 0 0 1 .072-.073q.09-.08.175-.168l.034-.035.109-.109.125-.126.05-.05q.065-.066.135-.128.098-.085.186-.18l.068-.068.144-.144.167-.168.066-.067q.089-.09.185-.175.083-.077.162-.158l.068-.068.144-.145.167-.168.066-.067q.091-.095.192-.181c.022-.018.022-.018.048-.052a1 1 0 0 1 .072-.073q.092-.082.178-.171l.035-.035.111-.111.128-.129.051-.051q.08-.082.167-.156c.023-.019.023-.019.05-.054a1 1 0 0 1 .072-.073q.09-.08.175-.168l.034-.035.108-.109.125-.126.05-.05q.065-.066.135-.128.098-.086.186-.18l.068-.068.144-.145.167-.168.066-.067a3 3 0 0 1 .191-.18q.043-.038.083-.08l.033-.034.051-.052.05-.051.03-.03c.027-.019.027-.019.063-.019" fill="#d1db26"/></svg>