<?xml version="1.0" encoding="utf-8"?>
<svg xmlns="http://www.w3.org/2000/svg" viewBox="97.138 165.714 65.511 24.322" xmlns:bx="https://boxy-svg.com" tabindex="3">
  <defs>
    <style bx:fonts="Geist">@import url(https://fonts.googleapis.com/css2?family=Geist%3Aital%2Cwght%400%2C100..900&amp;display=swap);</style>
  </defs>
  <text style="fill: rgb(53, 52, 52); font-family: &quot;Geist&quot;; font-size: 28px; font-weight: 550; paint-order: stroke; stroke: rgb(255, 255, 255); stroke-width: 5.23773px; white-space: pre; transform-origin: 213.959px 141.445px 0px;" transform="matrix(0.213807, 0, 0, 0.168038, -71.663551, 29.421627)" tabindex="20"><tspan x="130.647" y="151.35">Kementerian</tspan><tspan x="130.647" dy="1em">​</tspan><tspan>Kesehatan</tspan><tspan x="130.647" dy="1em">​</tspan><tspan>Republik</tspan><tspan x="130.647" dy="1em">​</tspan><tspan>Indonesia</tspan></text>
  <path d="M 109.333 165.859 L 109.377 165.859 C 109.597 165.86 109.811 165.868 110.027 165.912 L 110.064 165.919 C 110.14 165.935 110.216 165.953 110.291 165.972 L 110.339 165.984 C 110.612 166.052 110.871 166.163 111.121 166.292 L 111.158 166.311 C 111.239 166.354 111.318 166.401 111.395 166.452 L 111.434 166.477 C 111.756 166.69 112.073 166.961 112.307 167.268 L 112.334 167.302 C 112.623 167.667 112.831 168.075 112.979 168.516 L 112.987 168.541 C 113.068 168.782 113.114 169.039 113.138 169.292 L 113.141 169.322 L 113.145 169.385 L 113.15 169.455 C 113.162 169.564 113.171 169.665 113.1 169.755 C 113.063 169.795 113.024 169.834 112.984 169.872 L 112.932 169.925 L 112.789 170.065 L 112.639 170.213 L 112.355 170.492 L 112.033 170.809 L 111.558 171.276 L 111.507 171.326 L 111.437 171.395 L 111.417 171.415 C 111.377 171.454 111.336 171.491 111.293 171.527 C 111.273 171.544 111.255 171.564 111.239 171.585 C 111.207 171.622 111.171 171.656 111.132 171.686 L 111.096 171.728 C 111.064 171.767 111.027 171.797 110.988 171.83 L 110.952 171.872 C 110.92 171.911 110.883 171.941 110.844 171.974 L 110.809 172.015 C 110.785 172.045 110.758 172.073 110.727 172.097 C 110.676 172.142 110.625 172.19 110.577 172.239 L 110.549 172.267 L 110.455 172.361 L 110.388 172.428 L 110.243 172.573 L 110.033 172.783 L 109.693 173.124 L 109.672 173.145 L 109.362 173.455 L 109.341 173.476 L 109.002 173.816 L 108.793 174.025 L 108.65 174.168 L 108.567 174.251 L 108.477 174.341 L 108.451 174.367 C 108.416 174.402 108.38 174.436 108.342 174.468 C 108.317 174.49 108.294 174.514 108.275 174.542 L 108.251 174.542 L 108.227 174.59 L 108.203 174.59 L 108.179 174.638 L 108.155 174.638 L 108.131 174.686 L 108.107 174.686 L 108.083 174.734 L 108.059 174.734 L 108.035 174.782 L 108.011 174.782 L 107.987 174.83 L 107.963 174.83 L 107.939 174.878 L 107.915 174.878 L 107.908 174.898 C 107.89 174.926 107.867 174.949 107.84 174.968 C 107.812 174.993 107.785 175.018 107.759 175.045 L 107.705 175.099 L 107.674 175.13 L 107.204 175.6 L 107.061 175.743 L 107.039 175.765 L 106.534 176.271 L 106.242 176.564 L 105.987 176.819 L 105.852 176.954 L 105.725 177.081 L 105.678 177.128 L 105.615 177.191 L 105.596 177.21 C 105.554 177.252 105.554 177.252 105.527 177.252 L 105.526 175.048 L 105.526 169.79 C 105.526 169.552 105.528 169.316 105.567 169.081 L 105.571 169.056 C 105.592 168.919 105.622 168.783 105.66 168.649 L 105.668 168.619 C 105.705 168.486 105.75 168.356 105.804 168.229 L 105.822 168.186 C 105.911 167.971 106.02 167.76 106.152 167.569 L 106.168 167.545 C 106.301 167.347 106.452 167.163 106.619 166.992 L 106.641 166.97 C 106.728 166.879 106.82 166.794 106.919 166.716 L 106.961 166.682 C 107.056 166.604 107.154 166.532 107.256 166.467 L 107.326 166.422 C 107.435 166.352 107.547 166.29 107.663 166.236 L 107.691 166.223 C 108.204 165.98 108.765 165.856 109.333 165.859 M 105.527 178.5 C 105.584 178.511 105.614 178.547 105.654 178.587 L 105.678 178.611 L 105.757 178.691 L 105.814 178.748 L 105.937 178.871 L 106.131 179.066 L 106.403 179.339 L 106.683 179.62 L 106.7 179.637 L 106.988 179.925 L 107.181 180.119 L 107.301 180.24 L 107.357 180.296 L 107.433 180.372 L 107.455 180.394 C 107.49 180.43 107.527 180.464 107.565 180.497 C 107.614 180.54 107.662 180.586 107.709 180.633 L 107.736 180.66 L 107.826 180.75 L 107.891 180.815 L 108.031 180.955 L 108.233 181.157 L 108.561 181.485 L 108.879 181.803 L 108.899 181.823 L 108.997 181.921 L 109.756 182.681 L 109.855 182.78 L 109.936 182.861 L 110.091 183.016 L 110.184 183.11 L 110.275 183.201 L 110.309 183.236 L 110.357 183.284 L 110.385 183.312 C 110.41 183.336 110.41 183.336 110.445 183.359 L 110.445 183.383 L 110.493 183.407 L 110.493 183.431 L 110.541 183.455 L 110.541 183.479 L 110.589 183.503 L 110.589 183.527 L 110.637 183.551 L 110.637 183.575 L 110.685 183.599 L 110.685 183.623 L 110.733 183.647 L 110.733 183.671 L 110.781 183.695 L 110.781 183.719 L 110.801 183.726 C 110.832 183.744 110.85 183.767 110.872 183.795 C 110.896 183.822 110.922 183.846 110.951 183.868 C 110.973 183.887 110.994 183.908 111.015 183.929 L 111.12 184.033 L 111.203 184.114 L 111.845 184.746 L 111.959 184.859 L 112.265 185.16 L 112.579 185.47 L 112.773 185.66 L 112.921 185.807 L 112.982 185.866 C 113.153 186.029 113.153 186.029 113.158 186.16 C 113.157 186.201 113.154 186.243 113.148 186.284 C 113.145 186.317 113.142 186.351 113.141 186.384 L 113.136 186.444 L 113.133 186.478 C 113.084 186.966 112.928 187.438 112.7 187.871 L 112.687 187.896 C 112.573 188.109 112.436 188.31 112.28 188.495 L 112.264 188.514 C 112.184 188.61 112.098 188.703 112.009 188.792 L 111.978 188.824 C 111.906 188.894 111.831 188.96 111.752 189.023 L 111.728 189.042 C 111.643 189.111 111.555 189.177 111.464 189.239 L 111.442 189.254 C 111.056 189.507 110.629 189.69 110.179 189.794 L 110.144 189.803 L 110.025 189.827 L 110.001 189.832 C 109.801 189.87 109.6 189.869 109.397 189.869 L 109.281 189.869 C 108.412 189.877 107.568 189.573 106.905 189.011 L 106.868 188.981 C 106.69 188.838 106.53 188.675 106.389 188.495 L 106.358 188.457 C 106.275 188.353 106.197 188.246 106.125 188.135 L 106.101 188.1 C 105.82 187.652 105.635 187.15 105.558 186.627 L 105.552 186.589 C 105.52 186.367 105.523 186.142 105.523 185.918 L 105.523 180.671 L 105.524 178.5 M 101.296 174.059 L 102.894 174.059 L 104.819 174.06 L 104.819 181.68 L 102.88 181.682 L 102.269 181.683 L 101.242 181.683 C 100.982 181.69 100.722 181.673 100.465 181.63 L 100.423 181.622 C 99.927 181.53 99.454 181.337 99.035 181.056 L 98.996 181.03 C 98.862 180.941 98.736 180.842 98.618 180.733 L 98.542 180.666 C 98.497 180.626 98.453 180.584 98.411 180.541 L 98.35 180.481 C 98.327 180.456 98.327 180.456 98.327 180.432 L 98.291 180.42 C 98.259 180.385 98.229 180.348 98.2 180.31 L 98.143 180.238 C 98.055 180.126 97.972 180.009 97.896 179.889 L 97.86 179.834 C 97.792 179.733 97.743 179.622 97.692 179.512 L 97.658 179.441 C 97.569 179.255 97.5 179.06 97.451 178.86 L 97.443 178.83 C 97.364 178.519 97.325 178.2 97.326 177.88 L 97.326 177.839 C 97.327 177.619 97.339 177.408 97.379 177.192 L 97.386 177.155 C 97.505 176.529 97.779 175.944 98.183 175.452 L 98.199 175.433 C 98.28 175.332 98.369 175.24 98.46 175.149 L 98.493 175.116 C 98.566 175.044 98.642 174.976 98.723 174.913 L 98.765 174.879 C 98.93 174.749 99.104 174.633 99.287 174.531 L 99.351 174.494 C 99.705 174.302 100.089 174.172 100.486 174.11 L 100.519 174.104 L 100.611 174.089 L 100.637 174.085 C 100.854 174.053 101.076 174.061 101.295 174.061" fill="#10b1aa" style="stroke-width: 1px;"/>
  <path d="M 116.351 169.032 L 116.387 169.033 C 117.022 169.059 117.697 169.247 118.211 169.632 L 118.242 169.654 C 118.392 169.762 118.534 169.876 118.667 170.004 L 118.691 170.027 C 118.79 170.123 118.883 170.219 118.967 170.328 L 118.995 170.362 C 119.26 170.696 119.455 171.079 119.582 171.485 L 119.606 171.56 C 119.635 171.653 119.653 171.748 119.671 171.844 L 119.679 171.884 C 119.716 172.089 119.729 172.288 119.728 172.497 L 119.728 172.536 C 119.728 172.748 119.717 172.952 119.676 173.161 L 119.668 173.2 C 119.566 173.714 119.347 174.197 119.027 174.612 L 119.003 174.643 C 118.954 174.704 118.904 174.764 118.851 174.822 L 118.798 174.881 C 118.746 174.94 118.692 174.997 118.637 175.053 L 118.618 175.072 C 118.587 175.104 118.554 175.135 118.519 175.163 C 118.452 175.223 118.388 175.285 118.325 175.35 L 118.256 175.419 L 118.061 175.615 L 117.941 175.736 L 117.895 175.782 L 117.832 175.846 L 117.813 175.865 C 117.77 175.908 117.77 175.908 117.743 175.908 L 117.731 175.944 C 117.714 175.959 117.697 175.973 117.68 175.986 C 117.651 176.011 117.624 176.037 117.599 176.064 L 117.563 176.1 L 117.523 176.14 L 117.298 176.365 L 117.162 176.501 L 117.03 176.633 L 116.98 176.683 L 116.91 176.753 L 116.89 176.774 C 116.856 176.807 116.82 176.84 116.783 176.871 C 116.738 176.912 116.7 176.96 116.669 177.013 C 116.524 177.233 116.328 177.463 116.059 177.518 C 115.709 177.577 115.342 177.551 114.99 177.535 C 114.841 177.53 114.692 177.526 114.544 177.523 C 114.313 177.519 114.083 177.512 113.852 177.503 L 113.817 177.502 L 113.721 177.498 L 113.692 177.497 C 113.628 177.494 113.628 177.494 113.615 177.481 L 113.613 177.367 L 113.613 177.33 L 113.612 177.206 L 113.611 177.117 L 113.61 176.897 L 113.609 176.714 C 113.605 176.041 113.602 175.367 113.599 174.693 L 113.598 174.367 L 113.592 173.319 C 113.589 172.96 113.587 172.6 113.587 172.241 L 113.587 172.059 C 113.587 171.898 113.586 171.738 113.584 171.577 L 113.582 171.092 C 113.582 171.004 113.581 170.917 113.58 170.83 C 113.57 170.243 113.57 170.243 113.719 170.084 C 113.768 170.037 113.821 169.996 113.877 169.959 C 113.936 169.918 113.993 169.873 114.047 169.825 C 114.163 169.73 114.28 169.641 114.407 169.561 L 114.428 169.547 C 114.719 169.36 115.055 169.221 115.391 169.141 L 115.418 169.135 L 115.581 169.099 L 115.654 169.084 C 115.88 169.039 116.121 169.024 116.351 169.034 M 113.718 178.304 L 113.747 178.303 L 113.844 178.3 L 113.878 178.299 C 114.103 178.292 114.328 178.288 114.553 178.285 C 114.696 178.283 114.839 178.28 114.983 178.275 C 115.108 178.271 115.233 178.268 115.358 178.267 C 115.424 178.266 115.49 178.265 115.556 178.262 C 115.79 178.251 115.997 178.246 116.182 178.406 C 116.29 178.505 116.401 178.617 116.482 178.74 L 116.482 178.764 L 116.518 178.776 C 116.533 178.793 116.547 178.81 116.56 178.827 C 116.585 178.856 116.611 178.883 116.638 178.908 L 116.668 178.938 L 116.7 178.97 L 116.878 179.148 L 116.986 179.255 L 117.091 179.359 L 117.131 179.398 C 117.247 179.513 117.247 179.513 117.292 179.567 C 117.348 179.63 117.407 179.691 117.468 179.75 L 117.535 179.817 L 117.677 179.958 L 117.842 180.122 L 117.908 180.187 C 117.968 180.246 118.026 180.308 118.082 180.371 C 118.128 180.421 118.175 180.469 118.223 180.516 L 118.283 180.575 L 118.41 180.701 L 118.557 180.847 L 118.615 180.905 C 118.679 180.968 118.741 181.034 118.8 181.103 L 118.835 181.142 C 119.173 181.525 119.423 182.001 119.55 182.494 L 119.576 182.584 C 119.801 183.431 119.644 184.392 119.211 185.146 C 119.144 185.258 119.071 185.366 118.992 185.471 L 118.977 185.491 C 118.913 185.576 118.845 185.659 118.772 185.737 C 118.732 185.779 118.693 185.822 118.656 185.865 C 118.633 185.89 118.609 185.915 118.584 185.939 L 118.56 185.939 L 118.56 185.963 C 118.542 185.981 118.542 185.981 118.519 186 L 118.496 186.02 C 118.475 186.036 118.475 186.036 118.451 186.036 L 118.451 186.06 L 118.386 186.112 L 118.365 186.128 C 118.228 186.233 118.085 186.33 117.936 186.417 L 117.88 186.451 C 117.789 186.504 117.695 186.552 117.597 186.593 L 117.574 186.603 C 117.312 186.715 117.04 186.795 116.759 186.842 L 116.725 186.848 C 116.552 186.877 116.377 186.878 116.201 186.878 L 116.171 186.878 C 115.62 186.879 115.077 186.747 114.588 186.492 L 114.541 186.469 C 114.272 186.33 114.025 186.151 113.809 185.939 C 113.784 185.916 113.758 185.894 113.731 185.874 C 113.664 185.822 113.615 185.771 113.601 185.685 C 113.595 185.606 113.593 185.527 113.596 185.447 L 113.596 185.355 L 113.597 185.155 L 113.598 184.857 L 113.599 184.356 L 113.601 183.86 L 113.601 183.672 C 113.601 183.302 113.602 182.932 113.604 182.563 L 113.607 181.486 L 113.607 181.152 C 113.608 180.462 113.609 179.772 113.612 179.082 L 113.613 178.894 L 113.614 178.648 L 113.614 178.341 C 113.618 178.289 113.678 178.305 113.718 178.304 M 106.319 178.308 L 108.213 178.307 L 112.869 178.307 C 112.94 178.307 112.94 178.307 112.954 178.321 C 112.955 178.357 112.956 178.392 112.955 178.427 L 112.955 183.147 L 112.954 185.04 C 112.898 185.03 112.869 184.996 112.831 184.957 L 112.809 184.935 L 112.763 184.889 L 112.694 184.819 L 112.65 184.774 L 112.63 184.753 C 112.595 184.718 112.561 184.681 112.529 184.644 C 112.485 184.594 112.439 184.546 112.391 184.499 L 112.364 184.472 L 112.28 184.389 L 112.224 184.333 L 112.098 184.208 L 112.043 184.153 L 111.977 184.094 C 111.948 184.068 111.92 184.041 111.894 184.012 C 111.849 183.961 111.804 183.91 111.757 183.861 L 111.734 183.836 C 111.696 183.794 111.654 183.755 111.609 183.72 L 111.573 183.679 C 111.544 183.642 111.511 183.608 111.477 183.576 L 111.439 183.538 L 111.419 183.518 L 111.294 183.391 L 111.202 183.299 L 111.15 183.247 L 111.115 183.212 L 111.063 183.16 L 111.032 183.129 L 110.963 183.053 C 110.904 182.987 110.843 182.923 110.779 182.862 L 110.711 182.794 L 110.566 182.649 L 110.397 182.481 L 110.33 182.414 L 110.289 182.373 L 110.27 182.355 C 110.231 182.315 110.194 182.274 110.159 182.231 L 110.118 182.196 C 110.089 182.172 110.062 182.145 110.038 182.116 C 109.988 182.06 109.936 182.005 109.882 181.953 L 109.828 181.9 L 109.714 181.787 L 109.582 181.656 L 109.53 181.604 C 109.485 181.559 109.441 181.513 109.398 181.465 C 109.341 181.401 109.281 181.339 109.219 181.279 L 109.151 181.211 L 109.007 181.068 L 108.839 180.901 L 108.772 180.835 C 108.711 180.776 108.653 180.714 108.597 180.65 C 108.546 180.595 108.493 180.541 108.439 180.488 L 108.371 180.42 L 108.227 180.276 L 108.059 180.109 L 107.992 180.043 C 107.88 179.932 107.88 179.932 107.837 179.881 C 107.78 179.817 107.721 179.755 107.659 179.696 L 107.591 179.628 L 107.446 179.483 L 107.277 179.315 L 107.21 179.248 L 107.169 179.207 L 107.15 179.189 C 107.121 179.16 107.093 179.13 107.067 179.098 C 107.043 179.069 107.016 179.043 106.986 179.021 C 106.966 179.003 106.948 178.984 106.931 178.963 C 106.88 178.905 106.826 178.849 106.77 178.795 L 106.714 178.74 L 106.556 178.583 L 106.459 178.486 L 106.422 178.449 L 106.371 178.398 L 106.341 178.369 C 106.319 178.344 106.319 178.344 106.319 178.308 M 112.955 170.916 L 112.955 177.492 L 106.271 177.492 C 106.295 177.445 106.327 177.403 106.367 177.369 L 106.389 177.347 L 106.462 177.274 L 106.513 177.223 L 106.62 177.116 L 106.757 176.98 L 106.862 176.875 L 106.912 176.825 L 106.983 176.755 L 107.004 176.734 C 107.044 176.694 107.085 176.657 107.128 176.621 C 107.149 176.603 107.149 176.603 107.176 176.569 C 107.198 176.542 107.222 176.518 107.249 176.496 C 107.31 176.441 107.37 176.384 107.427 176.325 L 107.462 176.29 L 107.573 176.179 L 107.701 176.05 L 107.752 175.999 C 107.805 175.944 107.861 175.892 107.919 175.843 C 107.942 175.824 107.942 175.824 107.969 175.789 C 107.992 175.763 108.016 175.739 108.041 175.716 C 108.101 175.663 108.159 175.607 108.216 175.548 L 108.25 175.513 L 108.359 175.404 L 108.484 175.278 L 108.534 175.228 C 108.577 175.184 108.622 175.141 108.669 175.1 C 108.734 175.043 108.796 174.983 108.855 174.92 L 108.923 174.852 L 109.067 174.708 L 109.234 174.54 L 109.3 174.473 C 109.359 174.413 109.421 174.355 109.485 174.298 C 109.54 174.247 109.594 174.194 109.647 174.14 L 109.715 174.072 L 109.859 173.927 L 110.026 173.759 L 110.092 173.692 C 110.153 173.629 110.217 173.568 110.284 173.511 C 110.306 173.493 110.306 173.493 110.332 173.459 C 110.355 173.433 110.379 173.409 110.404 173.386 C 110.465 173.331 110.525 173.274 110.582 173.215 L 110.617 173.18 L 110.728 173.069 L 110.856 172.94 L 110.907 172.889 C 110.96 172.834 111.016 172.782 111.074 172.733 C 111.097 172.714 111.097 172.714 111.124 172.679 C 111.147 172.653 111.171 172.629 111.196 172.606 C 111.256 172.553 111.314 172.497 111.371 172.438 L 111.405 172.403 L 111.513 172.294 L 111.638 172.168 L 111.688 172.118 C 111.731 172.074 111.776 172.031 111.823 171.99 C 111.888 171.933 111.95 171.873 112.009 171.81 L 112.077 171.742 L 112.221 171.597 L 112.388 171.429 L 112.454 171.362 C 112.515 171.299 112.579 171.239 112.645 171.182 C 112.674 171.157 112.701 171.13 112.728 171.102 L 112.761 171.068 L 112.812 171.016 L 112.862 170.965 L 112.892 170.935 C 112.919 170.916 112.919 170.916 112.955 170.916" fill="#d1db26" style="stroke-width: 1px;"/>
</svg>