<svg xmlns="http://www.w3.org/2000/svg" viewBox="330.14 24.482 510.691 176.686">
  <defs>
    <style>
      @import url(https://fonts.googleapis.com/css2?family=Montserrat%3Aital%2Cwght%400%2C100..900%3B1%2C100..900&amp;display=swap);
    </style>
  </defs>
  <path style="stroke:none;fill-rule:nonzero;fill:#f5bb00;fill-opacity:1;stroke-width:1.961px" d="M436.086 56.752h.212c.024.057.049.107.073.172a742 742 0 0 0 3.2 7.985 689 689 0 0 1 2.366 5.88l.221.559c.285.701.563 1.403.857 2.105l18.208.1a6 6 0 0 1-.832.645l-.237.15-.261.165q-1.125.729-2.236 1.468c-.808.552-1.633 1.096-2.449 1.64q-.969.636-1.926 1.282-1.067.72-2.147 1.418-1.113.722-2.203 1.476c-.4.272-.8.544-1.2.802-.122.078-.122.078-.245.15-.147.1-.302.193-.457.287-.228.143-.228.143-.506.372 0 .401.098.745.221 1.132l.065.229c.081.258.155.515.237.773l.171.544c.147.495.302.996.449 1.483q.193.621.375 1.232c.653 2.127 1.298 4.247 1.959 6.367.049.179.106.358.163.537.237.759.465 1.518.702 2.277.098.308.196.609.286.917.049.143.09.286.139.422.057.194.114.387.179.58.049.158.049.158.098.323.065.265.065.265.065.544-.44-.172-.808-.43-1.191-.688l-.221-.15a26 26 0 0 1-.718-.48c-.114-.071-.114-.071-.228-.15-.449-.301-.898-.609-1.355-.917-.376-.251-.751-.508-1.126-.759q-.674-.45-1.347-.91a672 672 0 0 0-2.489-1.675 376 376 0 0 1-2.71-1.819c-.22-.151-.449-.301-.669-.452-.074-.05-.155-.1-.229-.157q-.23-.15-.449-.301c-.4-.265-.791-.537-1.183-.809-.082-.058-.163-.108-.253-.172l-.465-.322-.221-.151a4 4 0 0 0-.187-.129c-.213-.129-.213-.129-.612-.093-.27.143-.27.143-.555.344-.049.036-.107.079-.164.114-.122.086-.245.165-.367.251-.269.186-.539.373-.816.552-.229.15-.457.308-.686.465q-.807.538-1.616 1.089c-.906.601-1.812 1.21-2.709 1.819-.449.308-.906.609-1.355.909-.367.251-.743.502-1.118.752a835 835 0 0 1-2.775 1.869c-.449.308-.906.609-1.355.924-.082.05-.163.108-.253.165a10 10 0 0 1-.457.315c-.065.05-.139.093-.204.143-.057.043-.122.079-.18.122-.228.136-.473.215-.726.301a309 309 0 0 1 1.771-5.923c.196-.63.384-1.253.58-1.876.065-.222.138-.444.204-.666a516 516 0 0 0 1.518-4.956c.106-.33.204-.659.31-.988.114-.387.236-.774.351-1.161q.072-.215.13-.429c.066-.194.123-.394.18-.588.033-.107.073-.222.106-.336.082-.237.082-.237.073-.437-.163-.136-.163-.136-.375-.265-.082-.05-.163-.1-.253-.158q-.135-.077-.269-.164a77 77 0 0 1-2.09-1.383 69 69 0 0 0-1.975-1.324 155 155 0 0 1-2.571-1.705 180 180 0 0 0-3.77-2.499c-.784-.516-1.559-1.039-2.334-1.562-.302-.2-.604-.394-.906-.594q-.072-.054-.155-.107v-.094h18.208c.073-.279.139-.558.212-.845.098-.25.188-.494.294-.744.024-.065.049-.137.081-.208.066-.158.131-.308.188-.466q.218-.515.425-1.031c.081-.193.155-.38.236-.573a585 585 0 0 0 1.796-4.447q.71-1.772 1.42-3.531c.188-.473.384-.953.571-1.425l.686-1.705.269-.666c.041-.1.074-.2.123-.301l.097-.257c.09-.208.196-.401.311-.602m0 0" transform="matrix(1.133 0 0 1.25114 66.508 -35.335)">
    <title>bintang 1</title>
  </path>
  <path style="stroke:none;fill-rule:nonzero;fill:#f5bb00;fill-opacity:1;stroke-width:1.961px" d="M486.736 56.744h.212c.024.058.049.108.073.172a742 742 0 0 0 3.2 7.985c.759 1.855 1.501 3.71 2.244 5.572q.062.15.122.308l.221.559c.285.702.563 1.404.857 2.105 9.01.051 9.01.051 18.208.101-.286.25-.514.444-.832.644l-.237.151-.261.164q-1.125.728-2.237 1.469c-.808.551-1.632 1.095-2.448 1.64-.645.422-1.29.852-1.926 1.281q-1.067.72-2.147 1.419-1.114.72-2.203 1.475c-.4.272-.8.544-1.2.802-.122.079-.122.079-.245.15a9 9 0 0 1-.457.287c-.228.143-.228.143-.506.372 0 .401.098.745.22 1.132l.066.229c.081.258.155.516.236.773.058.179.115.366.172.545.147.494.302.995.449 1.482q.193.622.375 1.232c.653 2.127 1.298 4.247 1.959 6.367.049.179.106.358.163.537.237.759.465 1.518.702 2.277.098.308.196.609.286.917.049.143.089.286.138.423.058.193.115.386.18.58.049.157.049.157.098.322.065.265.065.265.065.544-.44-.172-.808-.429-1.191-.687l-.221-.151a22 22 0 0 1-.718-.48c-.114-.071-.114-.071-.228-.15-.449-.301-.898-.609-1.355-.917-.376-.25-.751-.508-1.127-.759-.448-.301-.897-.601-1.346-.909a633 633 0 0 0-2.489-1.676 346 346 0 0 1-2.71-1.819c-.22-.151-.449-.301-.669-.451-.074-.051-.155-.101-.229-.158-.155-.1-.302-.201-.449-.301-.4-.265-.791-.537-1.183-.809-.082-.057-.163-.107-.253-.172l-.465-.322-.221-.151q-.088-.064-.187-.129c-.213-.128-.213-.128-.613-.093-.269.144-.269.144-.555.344-.049.036-.106.079-.163.115-.122.086-.245.164-.367.25q-.402.282-.816.552c-.229.15-.457.308-.686.465-.538.358-1.077.724-1.616 1.089a328 328 0 0 0-2.709 1.819c-.449.308-.906.609-1.355.91-.367.25-.743.501-1.118.752-.923.623-1.845 1.246-2.775 1.869-.449.308-.906.608-1.355.924-.082.05-.163.107-.253.164a9 9 0 0 1-.457.315c-.065.051-.139.094-.204.144-.057.043-.123.078-.18.121-.228.136-.473.215-.726.301a311 311 0 0 1 1.771-5.923c.196-.63.384-1.253.579-1.876.066-.222.139-.444.204-.666a482 482 0 0 0 1.519-4.956c.106-.329.204-.659.31-.988.114-.387.236-.774.351-1.16.049-.144.089-.287.13-.43.066-.193.123-.394.18-.587.032-.108.073-.222.106-.337.081-.236.081-.236.073-.437-.163-.136-.163-.136-.375-.265l-.253-.157c-.09-.05-.18-.108-.269-.165a80 80 0 0 1-2.09-1.382 72 72 0 0 0-1.975-1.325 155 155 0 0 1-2.571-1.705 180 180 0 0 0-3.77-2.499c-.784-.516-1.559-1.039-2.335-1.561-.302-.201-.604-.394-.906-.595a2 2 0 0 0-.155-.107v-.093h18.209c.073-.28.139-.559.212-.845.098-.251.188-.495.294-.745q.034-.099.081-.208c.066-.157.131-.308.188-.465q.218-.516.425-1.032c.081-.193.155-.379.236-.573.457-1.117.906-2.227 1.355-3.344a1364 1364 0 0 1 1.861-4.634c.188-.472.383-.952.571-1.425l.465-1.16q.11-.277.221-.544l.269-.667c.041-.1.073-.2.122-.3l.098-.258c.09-.208.196-.401.311-.602m0 0" transform="matrix(1.133 0 0 1.25114 66.508 -35.335)">
    <title>bintang 2</title>
  </path>
  <path style="stroke:none;fill-rule:nonzero;fill:#f5bb00;fill-opacity:1;stroke-width:1.961px" d="M537.33 56.752h.213c.024.057.048.107.073.171a755 755 0 0 0 3.199 7.986 689 689 0 0 1 2.367 5.88l.22.558c.286.702.564 1.404.857 2.106l18.209.1a6 6 0 0 1-.833.644l-.236.151c-.09.057-.172.107-.262.165q-1.123.729-2.236 1.468c-.808.551-1.632 1.095-2.448 1.64-.645.422-1.29.852-1.926 1.282-.71.48-1.429.952-2.147 1.418q-1.114.722-2.203 1.475c-.4.272-.8.544-1.2.802-.123.079-.123.079-.245.151q-.223.148-.457.286c-.229.143-.229.143-.506.372 0 .402.098.745.22 1.132l.066.229c.081.258.155.516.236.774l.172.544c.147.494.302.995.449 1.482q.194.622.375 1.232c.653 2.127 1.298 4.247 1.959 6.367.049.179.106.358.163.537.237.759.465 1.518.702 2.278.098.308.196.608.285.916.049.143.09.287.139.423.057.193.114.387.18.58.049.157.049.157.098.322.065.265.065.265.065.544-.441-.171-.808-.429-1.192-.687l-.22-.15a26 26 0 0 1-.718-.48c-.114-.072-.114-.072-.229-.151-.449-.3-.897-.608-1.354-.916-.376-.251-.751-.509-1.127-.76q-.674-.448-1.346-.909-1.239-.838-2.49-1.676c-.906-.601-1.812-1.21-2.709-1.819-.221-.15-.449-.301-.67-.451-.073-.05-.155-.1-.228-.158q-.23-.15-.449-.301-.598-.4-1.183-.809c-.082-.057-.164-.107-.253-.172l-.466-.322-.22-.15a3 3 0 0 0-.188-.129c-.212-.129-.212-.129-.612-.093-.269.143-.269.143-.555.343-.049.036-.106.079-.163.115-.122.086-.245.165-.367.251-.27.186-.539.372-.816.551q-.343.227-.686.466-.808.539-1.616 1.088a376 376 0 0 0-2.71 1.819c-.448.308-.906.609-1.354.91q-.554.375-1.119.752-1.381.934-2.774 1.869c-.449.308-.906.609-1.355.924-.082.05-.163.107-.253.165-.147.107-.302.214-.457.315-.066.05-.139.093-.204.143-.057.043-.123.079-.18.122-.228.136-.473.215-.726.3a309 309 0 0 1 1.771-5.922c.196-.631.383-1.254.579-1.877.066-.222.139-.444.204-.666a508 508 0 0 0 1.518-4.956c.106-.329.204-.658.31-.988.115-.387.237-.773.351-1.16q.071-.215.131-.43c.065-.193.122-.394.18-.587.032-.108.073-.222.106-.337.081-.236.081-.236.073-.437-.163-.136-.163-.136-.375-.265q-.121-.073-.253-.157c-.09-.05-.18-.108-.27-.165a77 77 0 0 1-2.089-1.382 72 72 0 0 0-1.975-1.325 155 155 0 0 1-2.571-1.704 180 180 0 0 0-3.771-2.5 271 271 0 0 1-2.334-1.561c-.302-.201-.604-.394-.906-.595-.049-.035-.098-.071-.155-.107v-.093h18.209c.073-.279.138-.559.212-.845.098-.251.187-.494.294-.745.024-.064.049-.136.081-.208.065-.157.131-.308.188-.465q.219-.516.424-1.031c.082-.194.155-.38.237-.573a617 617 0 0 0 1.796-4.448c.473-1.182.946-2.356 1.42-3.531.187-.472.383-.952.571-1.425l.465-1.16q.11-.277.22-.544l.27-.666c.041-.101.073-.201.122-.301l.098-.258c.09-.208.196-.401.31-.601m0 0" transform="matrix(1.133 0 0 1.25114 66.508 -35.335)">
    <title>bintang 3</title>
  </path>
  <path style="stroke:none;fill-rule:nonzero;fill:#f5bb00;fill-opacity:1;stroke-width:1.961px" d="M588.404 56.793h.212c.025.057.049.107.074.172a722 722 0 0 0 3.199 7.985c.759 1.855 1.502 3.71 2.244 5.572q.062.148.123.308l.22.558c.286.702.563 1.404.857 2.106l18.208.1a6 6 0 0 1-.832.645l-.237.15-.261.165q-1.125.729-2.236 1.468c-.808.552-1.633 1.096-2.449 1.64-.644.423-1.289.852-1.926 1.282-.71.48-1.428.953-2.146 1.418q-1.115.722-2.204 1.475c-.4.273-.8.545-1.2.803-.122.078-.122.078-.244.15a9 9 0 0 1-.458.286c-.228.144-.228.144-.506.373 0 .401.098.745.221 1.131l.065.23c.082.257.155.515.237.773l.171.544c.147.494.302.996.449 1.483.131.415.253.823.376 1.232.652 2.127 1.297 4.246 1.958 6.366q.076.268.163.537c.237.76.466 1.519.702 2.278.098.308.196.609.286.917.049.143.09.286.139.422q.084.29.179.58c.049.158.049.158.098.323.066.264.066.264.066.544-.441-.172-.808-.43-1.192-.688-.106-.071-.106-.071-.22-.15a24 24 0 0 1-.719-.48c-.114-.072-.114-.072-.228-.15q-.672-.453-1.355-.917c-.375-.251-.751-.509-1.126-.759q-.673-.45-1.347-.91c-.824-.558-1.657-1.117-2.489-1.676-.906-.601-1.812-1.21-2.71-1.819-.22-.15-.449-.3-.669-.451-.073-.05-.155-.1-.229-.157-.155-.101-.301-.201-.448-.301q-.598-.4-1.184-.809c-.081-.058-.163-.108-.253-.172l-.465-.323-.22-.15a4 4 0 0 0-.188-.129c-.212-.129-.212-.129-.612-.093-.27.143-.27.143-.555.344-.049.036-.106.079-.163.114-.123.086-.245.165-.368.251-.269.186-.538.372-.816.551q-.342.228-.685.466-.809.538-1.616 1.089c-.906.601-1.812 1.21-2.71 1.819-.449.308-.906.608-1.355.909-.367.251-.743.501-1.118.752a742 742 0 0 1-2.775 1.869c-.449.308-.906.609-1.355.924-.081.05-.163.108-.253.165a10 10 0 0 1-.457.315c-.065.05-.138.093-.204.143-.057.043-.122.079-.179.122-.229.136-.474.215-.727.301a316 316 0 0 1 1.771-5.923c.196-.63.384-1.253.58-1.876.065-.222.139-.444.204-.666q.771-2.474 1.518-4.956c.106-.33.204-.659.31-.989.114-.386.237-.773.351-1.16q.071-.215.131-.429c.065-.194.122-.394.179-.588.033-.107.074-.222.106-.336.082-.237.082-.237.074-.437-.164-.136-.164-.136-.376-.265q-.12-.073-.253-.158-.135-.077-.269-.164a78 78 0 0 1-2.089-1.383 70 70 0 0 0-1.976-1.325 145 145 0 0 1-2.57-1.704 187 187 0 0 0-3.771-2.5 226 226 0 0 1-2.334-1.561c-.302-.2-.604-.394-.906-.594a3 3 0 0 0-.155-.108v-.093h18.208c.074-.279.139-.558.212-.845.098-.25.188-.494.294-.745.025-.064.049-.136.082-.207.065-.158.13-.308.187-.466.147-.344.286-.687.425-1.031.081-.193.155-.38.237-.573a557 557 0 0 0 1.795-4.447q.71-1.772 1.42-3.531c.188-.473.384-.953.571-1.425l.466-1.161q.11-.277.22-.544l.269-.666c.041-.1.074-.2.123-.301l.098-.258c.09-.207.196-.401.31-.601m0 0" transform="matrix(1.133 0 0 1.25114 66.508 -35.335)">
    <title>bintang 4</title>
  </path>
  <path style="stroke:none;fill-rule:nonzero;fill:#f5bb00;fill-opacity:1;stroke-width:1.961px" d="M639.66 56.759h.212c.025.057.049.108.074.172a722 722 0 0 0 3.199 7.985 654 654 0 0 1 2.367 5.88l.22.559c.286.702.563 1.403.857 2.105l18.208.101c-.285.25-.514.444-.832.644-.122.079-.122.079-.237.15l-.261.165c-.751.487-1.493.974-2.236 1.468-.808.552-1.632 1.096-2.449 1.64-.644.423-1.289.853-1.926 1.282q-1.067.72-2.146 1.418-1.114.722-2.204 1.476c-.4.272-.8.544-1.2.802-.122.079-.122.079-.244.15q-.223.149-.457.287c-.229.143-.229.143-.506.372 0 .401.097.745.22 1.132l.065.229c.082.258.155.515.237.773l.171.545c.147.494.302.995.449 1.482.131.415.253.824.376 1.232.652 2.127 1.297 4.247 1.958 6.367q.075.269.164.537c.236.759.465 1.518.701 2.277.098.308.196.609.286.917.049.143.09.286.139.422q.084.29.179.58c.049.158.049.158.098.323.066.265.066.265.066.544-.441-.172-.808-.43-1.192-.687l-.22-.151a23 23 0 0 1-.719-.48c-.114-.071-.114-.071-.228-.15q-.672-.453-1.355-.917c-.375-.25-.751-.508-1.126-.759q-.673-.45-1.347-.909a567 567 0 0 0-2.489-1.676 376 376 0 0 1-2.71-1.819c-.22-.151-.449-.301-.669-.452-.073-.05-.155-.1-.228-.157-.156-.1-.302-.201-.449-.301q-.598-.4-1.184-.809c-.081-.058-.163-.108-.253-.172l-.465-.322-.22-.151c-.057-.043-.123-.086-.188-.129-.212-.129-.212-.129-.612-.093-.27.143-.27.143-.555.344-.049.036-.106.079-.163.115-.123.086-.245.164-.368.25-.269.186-.538.373-.816.552-.228.15-.457.308-.685.465-.539.358-1.078.724-1.616 1.089-.906.601-1.812 1.21-2.71 1.819-.449.308-.906.609-1.355.909-.367.251-.743.502-1.118.752-.922.623-1.844 1.247-2.775 1.87-.449.308-.906.608-1.355.923l-.253.165a9 9 0 0 1-.457.315c-.065.05-.138.093-.204.144-.057.042-.122.078-.179.121-.229.136-.474.215-.727.301a316 316 0 0 1 1.771-5.923c.196-.63.384-1.253.58-1.876.065-.222.139-.444.204-.666a516 516 0 0 0 1.518-4.956c.106-.329.204-.659.31-.988.114-.387.237-.774.351-1.161q.072-.215.131-.429c.065-.194.122-.394.179-.587.033-.108.074-.223.106-.337.082-.236.082-.236.074-.437-.164-.136-.164-.136-.376-.265l-.253-.157q-.135-.078-.269-.165a78 78 0 0 1-2.089-1.382 66 66 0 0 0-1.976-1.325 151 151 0 0 1-2.57-1.705 182 182 0 0 0-3.771-2.499 243 243 0 0 1-2.334-1.562c-.302-.2-.604-.393-.906-.594a2 2 0 0 0-.155-.107v-.093h18.208c.074-.28.139-.559.212-.846.098-.25.188-.494.294-.744.025-.065.049-.136.082-.208.065-.158.13-.308.187-.466.147-.343.286-.687.425-1.031.082-.193.155-.379.237-.573a520 520 0 0 0 1.795-4.447c.473-1.182.947-2.356 1.42-3.531.188-.473.384-.952.572-1.425l.465-1.16q.11-.279.22-.545l.269-.666c.041-.1.074-.2.123-.3l.098-.258c.09-.208.196-.401.31-.602m0 0" transform="matrix(1.133 0 0 1.25114 66.508 -35.335)">
    <title>bintang 5</title>
  </path>
  <text style="fill:#c54747;font-family:&quot;Montserrat&quot;;font-size:28px;font-weight:900;paint-order:stroke;stroke:#373737;stroke-width:.557717px;white-space:pre" transform="matrix(1.73523 0 0 2.57047 -160.815 -192.722)" x="394.112" y="135.055"><title>PARIPURNA</title>PARIPURNA</text>
  <text style="fill:#c54747;font-family:&quot;Montserrat&quot;;font-size:19px;font-weight:850;paint-order:stroke;stroke:#373737;stroke-width:.950294px;white-space:pre" transform="matrix(.99171 0 0 1.53805 126.242 -106.058)" x="401.31" y="187.744"><title>KARS</title>Komisi Akreditasi Rumah Sakit</text>
  <path d="M371.05 93.441h.234l.202-.001h.366c.056 0 .094.004.138.041v.024l.026.009a.6.6 0 0 1 .222.187q.037.042.077.081l.084.09.022.023q.05.053.095.107.03.038.067.067l.032.026c-.006.052-.035.075-.072.108l-.06.048q-.045.043-.084.091c-.029.034-.06.053-.097.078l-.048.048q-.107.093-.221.174l-.021.016a.4.4 0 0 1-.119.063v.024c-.12.096-.335.074-.479.073h-.091l-.259-.001q-.368-.004-.736.014-.246.015-.49.039a5 5 0 0 1-.201.017 6 6 0 0 0-.516.065l-.169.024q-.207.03-.411.078-.09.021-.182.036a4 4 0 0 0-.226.055q-.082.024-.165.04a2 2 0 0 0-.202.055 2 2 0 0 1-.174.048 1 1 0 0 0-.183.06q-.048.016-.097.028a1 1 0 0 0-.188.065q-.075.032-.152.053-.075.024-.146.059l-.081.029a1 1 0 0 0-.161.063 3 3 0 0 1-.224.094c-.076.03-.149.06-.22.102l-.073.031a.6.6 0 0 0-.12.064.5.5 0 0 1-.096.041.4.4 0 0 0-.072.041.4.4 0 0 1-.144.053v.024l-.02.01-.089.047-.031.016c-.077.041-.154.081-.226.131a1 1 0 0 1-.128.072q-.045.027-.087.058a1 1 0 0 1-.092.05l-.074.049-.109.071a5 5 0 0 0-.233.159l-.095.067-.09.066c-.026.021-.026.021-.057.039-.03.017-.03.017-.051.04a1 1 0 0 1-.088.071q-.083.06-.162.124-.089.073-.182.139l-.067.056c-.072.072-.157.132-.238.194-.023.018-.023.018-.04.036a1 1 0 0 1-.085.075l-.035.029c-.031.024-.031.024-.067.036l-.01.022c-.02.038-.051.052-.087.075l-.06.06-.054.049-.166.152-.111.099a.5.5 0 0 0-.074.076.4.4 0 0 1-.101.082q-.047.045-.088.095a1 1 0 0 1-.103.099 2 2 0 0 0-.122.119l-.033.032c-.028.027-.028.027-.05.058a.4.4 0 0 1-.062.061c-.035.026-.035.026-.046.053a.15.15 0 0 1-.051.057c-.092.076-.164.175-.238.268l-.025.03a3 3 0 0 0-.325.463l-.025.042c-.044.078-.075.163-.107.247h-.036a1 1 0 0 1-.065-.19 1 1 0 0 0-.049-.153 1 1 0 0 1-.048-.15 1 1 0 0 0-.047-.147 1.3 1.3 0 0 1-.062-.203 1 1 0 0 0-.041-.139c-.028-.08-.046-.162-.065-.244l-.007-.032-.007-.029c-.005-.024-.005-.024-.018-.048l-.025.012a1 1 0 0 1-.169.066 1 1 0 0 0-.151.064 1 1 0 0 1-.109.041l-.092.039a1.3 1.3 0 0 1-.179.067 1 1 0 0 0-.107.049l-.075.029a1 1 0 0 0-.12.048c-.169.079-.169.079-.237.079a.3.3 0 0 1 .048-.12c.008-.026.008-.026.012-.048h.024l.01-.02c.042-.08.101-.152.159-.22l.05-.062.025-.031c.023-.028.023-.028.045-.063h.024l.009-.02c.025-.046.063-.081.099-.119a.3.3 0 0 0 .049-.078l.052-.043q.043-.04.08-.085.121-.14.253-.269l.03-.03.03-.03.022-.022.143-.135.119-.108c.117-.108.117-.108.149-.108l.012-.036.072-.048.06-.06q.102-.09.208-.176l.071-.058.053-.043.026-.021.024-.02.021-.018c.018-.013.018-.013.042-.013l.012-.036.072-.048.124-.101q.12-.097.249-.183a.3.3 0 0 0 .06-.053l.051-.033a1 1 0 0 0 .073-.055c.158-.124.158-.124.238-.153v-.024l.062-.04q.057-.035.11-.077a.5.5 0 0 1 .076-.053c.041-.022.041-.022.071-.047a.6.6 0 0 1 .094-.06c.023-.013.023-.013.05-.036a1 1 0 0 1 .09-.058l.124-.079.198-.124.06-.036.032-.02.029-.018a.2.2 0 0 1 .075-.026v-.024l.029-.013q.07-.036.136-.078c.028-.017.028-.017.052-.028q.072-.039.14-.084.055-.032.113-.06l.139-.075q.216-.12.436-.231l.023-.012q.054-.026.109-.05.053-.024.105-.053.077-.043.159-.073c.1-.039.196-.088.291-.138.041-.019.081-.03.125-.043l.071-.035a1 1 0 0 1 .155-.064 1 1 0 0 0 .09-.038q.097-.044.199-.077c.039-.014.039-.014.076-.033a.6.6 0 0 1 .112-.041 1 1 0 0 0 .135-.049c.055-.026.111-.042.169-.059q.063-.02.126-.043.082-.03.166-.055.083-.024.164-.06l.082-.022q.084-.02.165-.049.096-.033.196-.053c.06-.013.118-.034.176-.053q.091-.03.186-.044.08-.017.159-.041.145-.04.293-.069.12-.023.24-.054.062-.013.125-.022.13-.02.257-.048a5 5 0 0 1 .349-.059q.108-.014.216-.032.273-.044.55-.071l.236-.023.083-.008.124-.012.116-.011.035-.003.103-.01.037-.003c.132-.011.264-.011.396-.011m2.311.147c.297.029.587.065.877.136q.053.012.107.021.095.018.188.047.104.033.211.056.106.026.21.062l.126.04q.09.029.176.06.045.017.091.029.089.027.171.065a1 1 0 0 0 .086.032q.12.042.237.091l.061.024.228.096.026.012q.154.067.304.142l.082.034a.5.5 0 0 1 .117.063.4.4 0 0 0 .072.032c.044.015.08.037.118.063a1 1 0 0 0 .087.041q.064.03.127.064l.027.014q.077.04.147.089.112.065.229.12v.024l.026.01q.053.024.104.052l.036.02.027.015v.024l.026.01a1 1 0 0 1 .097.054q.087.057.178.105v.024l.026.009a.4.4 0 0 1 .098.061q.06.046.125.085l.04.026v.024l.019.009q.106.057.195.136l.165.133q.037.03.076.057.051.04.098.087l.133.118q.075.064.143.135a1 1 0 0 0 .075.067.5.5 0 0 1 .078.079.2.2 0 0 0 .056.056c.035.029.062.06.092.094q.04.046.084.088.115.114.211.243c.016.023.016.023.042.033l.016.027a.2.2 0 0 0 .05.062c.029.03.047.058.067.095q.024.039.055.072.047.059.089.12l.07.091q.035.047.065.096c.021.041.021.041.053.075q.041.051.067.111a.2.2 0 0 0 .035.051c.03.039.049.08.07.124q.019.038.051.064l.025.061a1 1 0 0 0 .055.094 1 1 0 0 1 .042.088q.026.06.057.118l.013.026q.033.066.069.128c.031.055.052.113.073.172a1 1 0 0 0 .051.096l.016.05q.02.063.049.122c.029.061.048.122.067.187q.018.055.042.108.042.1.07.206.017.063.04.123a1 1 0 0 1 .041.14q.02.09.05.178.028.096.045.194.02.11.053.218c.02.073.03.145.039.22.013.093.033.184.052.276q.032.16.045.323.009.097.021.19l.004.032.012.095.012.097.007.059.01.083.003.027q.017.162.02.324l.018.453q.005.143.014.284.005.069.006.137l.004.06a.4.4 0 0 1-.017.172c-.054.053-.151.12-.229.12v.024l-.042.02a.7.7 0 0 0-.127.083c-.046.034-.096.06-.147.087a1 1 0 0 0-.111.075 1 1 0 0 1-.139.084 1 1 0 0 0-.086.05.5.5 0 0 1-.131.059v.024a5 5 0 0 1-.32.152 1 1 0 0 0-.116.055 1 1 0 0 1-.161.058l-.08.026c-.105.037-.228.063-.334.02l-.128-.081-.024-.016a1 1 0 0 1-.099-.072c-.026-.023-.026-.023-.063-.033v-.024l-.02-.009-.094-.055-.034-.021a1 1 0 0 1-.093-.07 3 3 0 0 0-.156-.096v-.024l-.021-.011-.075-.038v-.024l-.024-.008a.5.5 0 0 1-.11-.073c-.023-.018-.023-.018-.058-.028v-.024l-.026-.009a.5.5 0 0 1-.097-.06l-.123-.087a4 4 0 0 1-.235-.169l.035-.159.006-.029.013-.057q.018-.08.029-.162.01-.091.026-.184.022-.143.036-.287l.003-.029c.021-.238.022-.477.022-.716v-.025c0-.374-.023-.738-.074-1.108l-.006-.045a4 4 0 0 0-.088-.467 2 2 0 0 1-.032-.148 1.2 1.2 0 0 0-.064-.214 1 1 0 0 1-.032-.114 1 1 0 0 0-.064-.181 1 1 0 0 1-.032-.095 1 1 0 0 0-.063-.159l-.036-.087a3 3 0 0 0-.081-.184l-.014-.03a1 1 0 0 0-.088-.154l-.03-.059a2 2 0 0 0-.142-.235 1 1 0 0 1-.067-.116.3.3 0 0 0-.05-.059l-.025-.041-.012-.022-.035-.069h-.024l-.02-.038a.5.5 0 0 0-.07-.097l-.069-.084a4 4 0 0 0-.15-.171l-.073-.084a1 1 0 0 0-.111-.104l-.055-.064a1 1 0 0 0-.107-.104.5.5 0 0 1-.073-.077c-.062-.071-.141-.127-.214-.186a2 2 0 0 1-.092-.087.7.7 0 0 0-.116-.091c-.029-.017-.029-.017-.056-.045a1 1 0 0 0-.111-.094l-.02-.015a1 1 0 0 0-.1-.07l-.031-.022v-.024l-.028-.01c-.032-.014-.032-.014-.068-.038v-.024l-.027-.01a.4.4 0 0 1-.088-.051l-.032-.023-.034-.025a6 6 0 0 0-.275-.182l-.141-.09-.09-.042v-.024l-.026-.01q-.054-.023-.107-.05l-.044-.022a3 3 0 0 1-.225-.12 1 1 0 0 0-.16-.076l-.083-.042a.6.6 0 0 0-.133-.056l-.095-.037a3 3 0 0 0-.438-.141l-.107-.028a2.2 2.2 0 0 0-.437-.069.24.24 0 0 1 .047-.127 1 1 0 0 1 .158-.207l.024-.026q.095-.099.204-.182l.041-.037c.152-.132.152-.132.211-.132v-.024l.045-.016a.3.3 0 0 0 .099-.056l-.025-.03-.11-.141-.14-.178c-.123-.149-.123-.149-.146-.217h-.024c-.036-.068-.036-.068-.036-.108" fill="#b63334" style="stroke-width:.138365px;stroke-opacity:.41" transform="matrix(6.97003 0 0 7.48447 -2156.394 -674.683)"/>
  <path d="M377.671 103.759a.4.4 0 0 1 .124.043l.032.017.024.013v.024l.026.01c.093.039.179.098.263.155q.053.034.109.064v.024l.031.008a.4.4 0 0 1 .102.06 1 1 0 0 0 .079.047q.059.035.113.077c.032.015.032.015.06.024v.024l.025.009q.057.025.111.057l.039.022.029.02v.024l.035.008c.059.017.11.05.157.089v.024l.029.008q.106.045.199.112c.086.056.152.08.254.061q.086-.027.169-.062l.108-.041a1 1 0 0 0 .147-.066l.069-.028a1 1 0 0 0 .131-.065 1 1 0 0 1 .11-.05l.047-.023.103-.048a1 1 0 0 0 .108-.055 1 1 0 0 1 .145-.066q.06-.025.12-.057.121-.06.247-.11l.089-.036.058-.023.028-.012a.3.3 0 0 1 .149-.028 1.3 1.3 0 0 1-.038.188l-.021.097a2 2 0 0 1-.049.191q-.029.09-.048.181a2 2 0 0 1-.058.197 1 1 0 0 0-.039.141 1 1 0 0 1-.047.153 3 3 0 0 0-.062.187q-.03.099-.068.192l-.032.09a4 4 0 0 1-.07.195l-.014.038a7 7 0 0 1-.118.29l-.06.148a2 2 0 0 1-.091.198l-.035.075a1 1 0 0 1-.062.119q-.023.044-.041.09a2 2 0 0 1-.061.121l-.014.027-.029.054-.037.069q-.098.18-.208.354l-.047.081q-.054.09-.115.177l-.02.029-.018.026c-.016.024-.016.024-.026.06h-.024l-.01.02-.055.094-.021.034c-.022.033-.022.033-.048.065-.024.027-.024.027-.034.064l-.041.04c-.043.047-.078.101-.115.153q-.073.1-.153.195l-.077.095-.024.03-.046.058a3 3 0 0 1-.171.195.2.2 0 0 0-.059.089l-.055.044c-.02.016-.02.016-.036.046a.2.2 0 0 1-.056.062c-.037.026-.037.026-.047.065-.019.019-.019.019-.044.038a1 1 0 0 0-.116.118l-.081.084-.072.078-.105.111c-.028.027-.028.027-.05.057-.029.035-.062.061-.097.09l-.048.06-.06.06-.038.038-.1.1-.051.052q-.048.046-.1.087a1 1 0 0 0-.089.096 1 1 0 0 1-.095.092.7.7 0 0 0-.103.107.6.6 0 0 1-.09.086q-.03.026-.056.053l-.029.023a.7.7 0 0 0-.114.114c-.036.044-.079.079-.123.116-.096.081-.096.081-.179.174a1 1 0 0 1-.089.085c-.024.02-.024.02-.052.053-.029.025-.029.025-.059.024l-.029-.011-.024-.009c-.033-.02-.057-.048-.084-.075l-.036-.012-.048-.06-.062-.052a3 3 0 0 1-.238-.213 1 1 0 0 0-.096-.09c-.045-.037-.084-.078-.125-.12a1 1 0 0 0-.075-.067.5.5 0 0 1-.089-.096 1 1 0 0 0-.102-.095 1 1 0 0 1-.098-.102c-.018-.022-.018-.022-.045-.048l-.087-.093a1.4 1.4 0 0 0-.155-.154c-.055-.046-.1-.1-.144-.155a1 1 0 0 0-.073-.075c-.033-.027-.058-.056-.086-.088-.019-.022-.019-.022-.045-.048a3 3 0 0 1-.113-.123l-.088-.09-.103-.102-.028-.027a1 1 0 0 1-.122-.135 1 1 0 0 0-.096-.089.6.6 0 0 1-.093-.098c-.015-.019-.015-.019-.04-.03l-.016-.028c-.023-.036-.047-.054-.08-.08l-.055-.063a.7.7 0 0 0-.109-.105c-.031-.026-.044-.05-.065-.084l-.06-.048-.053-.062-.08-.083-.083-.091a3 3 0 0 0-.11-.114l-.084-.09-.022-.023a3 3 0 0 1-.122-.14 1 1 0 0 0-.097-.09c-.035-.03-.035-.03-.057-.059-.039-.047-.086-.08-.135-.116l-.028-.022c-.116-.086-.233-.154-.381-.135l-.06.012v.024l-.028.016c-.096.059-.138.206-.165.309-.006.059-.006.059.019.111l.025.022c.03.028.059.054.085.087a1 1 0 0 0 .075.081q.051.05.096.102a1 1 0 0 0 .139.138c.035.029.062.06.09.096a1 1 0 0 0 .101.094q.07.062.128.135.061.075.132.144l.042.042.071.07q.058.06.112.123l.057.059q.058.06.114.122.053.058.11.114l.083.083.022.021q.063.063.12.13a.7.7 0 0 0 .108.103c.031.026.044.05.065.084l.06.048.055.064q.03.036.065.068.064.063.122.132l.051.054q.063.065.121.131.062.07.134.129a.3.3 0 0 1 .077.096l.06.048.06.072.027.027q.06.06.114.125a1 1 0 0 0 .088.077l.036.041a1 1 0 0 0 .065.071q.042.042.08.087a1 1 0 0 0 .108.102l.062.071q.04.046.082.085c.159.157.159.157.229.241l.06.06.084.083.022.022q.05.048.094.101.042.05.089.095l.035.035.018.018.055.055.018.018.05.051q.026.03.059.051c.031.026.044.05.065.084l.06.048.054.063q.05.056.107.104a1 1 0 0 1 .085.089l.048.051q.043.045.083.092l.041.047a.6.6 0 0 1 .088.116c.021.042.021.042.053.077.032.039.046.074.065.12l.029.045c.03.047.048.095.066.147q.017.045.036.085c.031.069.046.14.063.214l.009.04.026.119.007.033c.024.121.021.245.021.368v.036c0 .176-.009.343-.053.514l-.01.044-.018.071-.017.087c-.014.073-.042.141-.069.21l-.036.104a1 1 0 0 1-.062.139l-.032.069q-.042.098-.095.191-.044.081-.093.156l-.024.043a1 1 0 0 1-.072.102l-.017.029-.05.068c-.03.032-.03.032-.041.071l-.06.06-.059.064-.032.035-.073.084a1 1 0 0 1-.123.119l-.056.053a1 1 0 0 1-.1.089l-.035.029c-.029.022-.029.022-.053.022v.024c-.02.016-.02.016-.047.033l-.03.019-.031.02-.054.036-.027.018-.055.038a1 1 0 0 1-.165.089l-.049.029c-.059.034-.122.055-.187.077-.041.014-.041.014-.079.032-.066.029-.137.044-.206.062l-.042.011-.123.03-.031.008c-.116.025-.235.024-.353.025h-.036a2.5 2.5 0 0 1-.563-.06l-.035-.007a2 2 0 0 1-.312-.088c-.058-.019-.119-.025-.18-.032a1.6 1.6 0 0 1-.381-.102l-.057-.02a1 1 0 0 1-.17-.072l-.035-.016a1 1 0 0 1-.169-.094l-.029-.011a.5.5 0 0 1-.128-.073v-.024l-.03-.007a.4.4 0 0 1-.112-.068 2 2 0 0 0-.124-.087l-.023-.018v-.024l-.027-.009a.3.3 0 0 1-.088-.061l-.028-.026-.058-.058c-.028-.029-.028-.029-.064-.05a.4.4 0 0 1-.096-.097 1 1 0 0 0-.095-.088 1 1 0 0 1-.099-.102l-.078-.088-.053-.059-.023-.026c-.049-.056-.049-.056-.049-.083h-.024l-.036-.06-.053-.065-.029-.035-.045-.054a.6.6 0 0 1-.066-.094c-.021-.04-.021-.04-.047-.065-.027-.027-.042-.055-.06-.088-.012-.022-.012-.022-.037-.044-.023-.024-.023-.024-.041-.065-.02-.047-.046-.077-.079-.116l-.037-.074c-.012-.025-.012-.025-.036-.053a.5.5 0 0 1-.06-.103c-.013-.026-.013-.026-.035-.057a2 2 0 0 1-.098-.171l-.013-.024c-.023-.045-.023-.045-.023-.073l-.093.046-.026.013a1 1 0 0 0-.107.058.3.3 0 0 1-.082.032q-.069.02-.133.049a1 1 0 0 1-.197.062 2 2 0 0 0-.15.042q-.097.03-.196.045l-.155.029a6 6 0 0 1-.597.085l-.048.005c-.856.082-1.709.065-2.565-.01l-.045-.004-.087-.008a4 4 0 0 0-.228-.015c-.141-.006-.28-.028-.419-.048l-.162-.023-.04-.006-.226-.027a3 3 0 0 1-.301-.048l-.124-.023a3 3 0 0 0-.172-.025 2 2 0 0 1-.259-.048 3 3 0 0 0-.24-.048 2 2 0 0 1-.221-.047 6 6 0 0 0-.235-.056 3 3 0 0 1-.211-.056 1 1 0 0 0-.132-.033c-.068-.012-.133-.036-.198-.058a1 1 0 0 0-.127-.038 1.4 1.4 0 0 1-.165-.055l-.059-.022-.028-.011-.098-.033-.122-.044-.033-.011c-.088-.034-.088-.034-.115-.081l-.019-.044-.022-.041a1.3 1.3 0 0 1-.1-.286l-.034-.117c-.028-.089-.045-.181-.063-.273a3 3 0 0 0-.06-.256 1 1 0 0 1-.022-.133 5 5 0 0 0-.058-.327 3 3 0 0 1-.041-.276 3 3 0 0 0-.027-.194l-.009-.057-.005-.029a4 4 0 0 1-.052-.634q.137-.066.279-.118a.4.4 0 0 0 .082-.05l.071-.026a1 1 0 0 0 .094-.054 2 2 0 0 1 .141-.073c.031-.015.031-.015.055-.04l.058-.024q.118-.054.226-.127.076-.048.156-.087a2 2 0 0 0 .15-.087q.113-.068.229-.132.075-.042.147-.089.127-.081.264-.147a1 1 0 0 0 .105-.059c.062-.04.128-.071.194-.103l.027-.013.082-.035.044-.019c.197-.082.333-.05.529.021l.115.037q.07.021.138.047.084.03.17.049.092.026.182.056.073.021.149.032l.093.02c.194.046.389.07.586.091l.088.01.297.032.024.003.076.007.032.003q.151.013.303.016l.027.001q.306.009.611.006h.149c.461.005.461.005.92-.035l.046-.006.138-.021.042-.006q.383-.06.746-.194.082-.03.167-.048.07-.014.141-.032c.047-.008.047-.008.084.008l.023.021v.024l.02.003c.037.012.06.031.088.057v.024l.021.011.027.014.023.009c.03.018.048.041.07.068q.05.06.112.108c.034.03.056.058.082.095a1 1 0 0 0 .075.081q.118.117.223.245a4 4 0 0 1 .2.21l.131.135q.075.082.147.166l.061.066q.072.075.141.153l.063.07.029.032.057.06q.064.066.125.134c.033.038.033.038.075.066l.016.028c.023.036.047.054.081.081l.061.069.079.09.026.029.056.058q.052.052.103.108l.019.021.095.107c.03.036.03.036.059.064l.099.105q.067.076.141.147l.098.109c.018.021.018.021.043.032l.016.028c.023.036.047.054.081.081l.053.062q.038.044.08.083l.083.088.023.024.128.142.075.083q.056.065.107.132c.06.083.06.083.139.145l.015.026c.027.044.061.08.097.117q.07.074.137.152a1 1 0 0 0 .113.109c.035.03.035.03.058.059.039.048.088.1.145.127.035.019.058.046.085.073q.108.09.229.156l.038.026c.039.025.039.025.082.034.125-.081.214-.219.301-.337a.4.4 0 0 0-.069-.101.4.4 0 0 1-.049-.081 7 7 0 0 0-.315-.403l-.066-.083-.123-.153-.103-.129c-.02-.025-.02-.025-.038-.043a1 1 0 0 1-.099-.118l-.088-.094-.032-.043a2 2 0 0 0-.141-.163l-.075-.084-.102-.114-.123-.138-.076-.085-.162-.183-.023-.026-.021-.024c-.017-.02-.017-.02-.042-.031l-.016-.028c-.023-.036-.047-.054-.08-.08l-.061-.069-.079-.089-.086-.099a2 2 0 0 0-.087-.093c-.093-.091-.093-.091-.129-.135a1 1 0 0 0-.088-.094c-.159-.157-.159-.157-.229-.241l-.06-.06-.042-.042-.072-.071-.072-.079a1 1 0 0 0-.138-.137 1 1 0 0 1-.092-.095.7.7 0 0 0-.108-.104c-.034-.029-.053-.06-.077-.097a1 1 0 0 0-.102-.096 1 1 0 0 1-.102-.109 1 1 0 0 0-.103-.096.6.6 0 0 1-.09-.096 1 1 0 0 0-.102-.095 1 1 0 0 1-.098-.102l-.046-.049a2 2 0 0 1-.143-.162c-.018-.026-.018-.026-.044-.037l-.015-.026-.053-.072a2 2 0 0 1-.112-.146l-.068-.088a.7.7 0 0 1-.125-.21h-.024l-.014-.036a1 1 0 0 0-.049-.091 2 2 0 0 1-.164-.334l-.038-.079c-.027-.052-.042-.106-.058-.162a1.7 1.7 0 0 1-.1-.347l-.009-.044a2.5 2.5 0 0 1-.054-.52v-.026c0-.148.015-.29.046-.436l.018-.093c.025-.135.068-.258.121-.384l.018-.042q.03-.07.065-.137l.013-.026q.038-.075.084-.148l.038-.064c.021-.037.045-.067.071-.1l.017-.028c.103-.17.267-.327.416-.456l.047-.042a.3.3 0 0 1 .122-.076v-.024a1 1 0 0 1 .181-.12l.033-.023q.12-.078.252-.133a1 1 0 0 0 .092-.047c.103-.052.212-.086.321-.123l.034-.012q.062-.018.126-.03l.025-.005.052-.01.079-.015c.115-.021.226-.039.343-.04h.092l.092-.001c.176-.001.351.016.518.076l.031.011c.048.018.083.031.121.067.048.041.103.053.164.068.112.029.218.063.32.121q.045.027.092.046c.035.014.064.033.096.053l.035.023.032.021.023.015.076.054c.023.018.023.018.058.028l.06.06.06.036v.024l.022.01a.3.3 0 0 1 .066.046l.022.019.023.02.047.041.024.021.05.044q.053.046.102.094a.5.5 0 0 0 .071.058.4.4 0 0 1 .086.084.6.6 0 0 0 .088.082q.044.04.085.082l.076.071.021.019q.064.06.131.116l.078.072q.089.084.188.155l.054.041.024.018.018.013.044-.032.025-.018c.118-.095.272-.247.34-.383h.024l.009-.02a.6.6 0 0 1 .066-.091q.059-.07.113-.143l.04-.051.07-.094q.06-.084.126-.163.03-.043.057-.088l.044-.061q.111-.153.212-.316l.066-.096q.042-.062.075-.129l.028-.044q.082-.133.15-.276l.046-.085q.036-.066.065-.136l.046-.09c.015-.031.015-.031.026-.066q.02-.054.047-.106.035-.066.062-.138.03-.073.07-.141a1 1 0 0 0 .05-.109l.036-.072" fill="#742622" style="stroke-width:.138365px;stroke-opacity:.41" transform="matrix(6.97003 0 0 7.48447 -2156.394 -674.683)"/>
  <path d="M372.587 104.9h.092l.092-.001c.176-.001.351.016.518.076l.031.01a.4.4 0 0 1 .174.11v.024l-.028-.001c-.244-.01-.244-.01-.477.049l-.029.011c-.128.05-.234.149-.332.242l-.023.021c-.18.161-.324.359-.422.58l-.01.023c-.093.216-.137.45-.137.685l-.001.078c-.001.116.013.22.04.333l.007.03c.051.227.157.498.342.647a1 1 0 0 1 .098.104q.047.054.099.101l.068.074a1 1 0 0 0 .139.138c.035.029.062.06.09.096a1 1 0 0 0 .101.094q.07.062.128.135.061.075.132.144l.042.042.071.07q.058.06.112.123l.057.059q.059.06.114.122.053.058.11.114l.083.083.022.021q.063.064.12.13a.7.7 0 0 0 .108.103c.031.026.044.05.065.084l.06.048.055.064q.03.036.065.068.064.063.122.132l.051.054q.063.065.121.131.062.07.134.129a.3.3 0 0 1 .077.096l.06.048.06.072.027.027q.06.06.114.125a1 1 0 0 0 .088.077l.036.041a1 1 0 0 0 .065.071q.042.042.08.087a1 1 0 0 0 .108.102l.062.071q.04.045.082.085c.159.157.159.157.229.241l.06.06.084.083.022.022q.05.048.094.101a1 1 0 0 0 .089.095l.035.035.018.018.055.055.018.018.05.051q.026.03.059.051c.031.026.044.05.065.084l.06.048.054.063q.05.056.107.104a1 1 0 0 1 .085.089l.048.051q.043.044.083.092l.041.047a.6.6 0 0 1 .088.116.2.2 0 0 0 .053.077c.032.039.046.074.065.12l.029.045c.03.047.048.095.066.147q.017.045.036.085c.031.069.046.14.063.214l.009.04.026.119.007.033c.024.121.021.245.021.368v.036c0 .176-.009.343-.053.514l-.01.044-.018.071-.017.087c-.014.073-.042.141-.069.21l-.036.104a1 1 0 0 1-.062.139l-.032.069q-.042.098-.095.191-.043.081-.093.156l-.024.043a1 1 0 0 1-.072.102l-.017.029-.05.068c-.03.032-.03.032-.041.071l-.06.06-.059.064-.032.035-.073.084a1 1 0 0 1-.123.119l-.056.053a1 1 0 0 1-.1.089l-.035.029c-.029.022-.029.022-.053.022v.024c-.02.016-.02.016-.047.033l-.03.019-.031.02-.054.036-.027.018-.055.038a1 1 0 0 1-.165.089l-.049.029c-.059.034-.122.055-.187.077-.041.014-.041.014-.079.032-.066.029-.137.044-.206.062l-.042.011-.123.03-.031.008c-.116.025-.235.024-.353.025h-.036a2.5 2.5 0 0 1-.563-.06l-.035-.007a2 2 0 0 1-.342-.098v-.012h.024c.418-.01.789-.068 1.108-.361l.022-.019c.067-.062.118-.138.169-.213l.034-.049c.084-.129.135-.289.16-.44l.012-.012a2 2 0 0 0 .03-.366v-.026a2.4 2.4 0 0 0-.238-1.021c-.008-.021-.008-.021-.008-.045l-.02-.002c-.09-.031-.154-.122-.195-.203a7 7 0 0 0-.315-.403l-.066-.083-.123-.153-.103-.129c-.02-.025-.02-.025-.038-.043a1 1 0 0 1-.099-.118l-.088-.094-.032-.043a2 2 0 0 0-.141-.163l-.075-.084-.102-.114-.123-.138-.076-.085-.162-.183-.023-.026-.021-.024c-.017-.02-.017-.02-.042-.031l-.016-.028c-.023-.036-.047-.054-.08-.08l-.061-.069-.079-.089-.086-.099a2 2 0 0 0-.087-.093c-.093-.091-.093-.091-.129-.135a1 1 0 0 0-.088-.094c-.159-.157-.159-.157-.229-.241l-.06-.06-.042-.042-.072-.071-.072-.079a1 1 0 0 0-.138-.137 1 1 0 0 1-.092-.095.7.7 0 0 0-.108-.104c-.034-.029-.053-.06-.077-.097a1 1 0 0 0-.102-.096 1 1 0 0 1-.102-.109 1 1 0 0 0-.103-.096.6.6 0 0 1-.09-.096 1 1 0 0 0-.102-.095 1 1 0 0 1-.098-.102l-.046-.049a2 2 0 0 1-.143-.162c-.018-.026-.018-.026-.044-.037l-.015-.026-.053-.072a2 2 0 0 1-.112-.146l-.068-.088a.7.7 0 0 1-.125-.21h-.024l-.014-.036a1 1 0 0 0-.049-.091 2 2 0 0 1-.164-.334l-.038-.079c-.027-.052-.042-.106-.058-.162a1.7 1.7 0 0 1-.1-.347l-.009-.044a2.5 2.5 0 0 1-.054-.52v-.026c0-.148.015-.29.046-.436l.018-.093c.025-.135.068-.258.121-.384l.018-.042q.03-.07.065-.137l.013-.026q.038-.076.084-.148l.038-.064c.021-.037.045-.067.071-.1l.017-.028c.103-.17.267-.327.416-.456l.047-.042a.3.3 0 0 1 .122-.076v-.024a1 1 0 0 1 .181-.12l.033-.023q.12-.078.252-.133a1 1 0 0 0 .092-.047c.103-.052.212-.086.321-.123l.034-.012q.062-.018.126-.03l.025-.005.052-.01.079-.015c.115-.021.226-.039.343-.04" fill="#e0322b" style="stroke-width:.138365px;stroke-opacity:.41" transform="matrix(6.97003 0 0 7.48447 -2156.394 -674.683)"/>
  <path d="m364.774 109.863.115.037q.07.021.138.047.084.03.17.049.093.026.182.056.073.021.149.032.046.008.093.02c.194.046.389.07.586.091l.088.01.297.032.024.003.076.007.032.003q.151.012.303.016l.027.001q.306.007.611.006h.149c.461.005.461.005.92-.035l.046-.006.138-.021.042-.006q.383-.06.746-.194c.056-.02.109-.037.167-.048q.07-.014.141-.032c.047-.008.047-.008.084.008l.023.021v.024l.02.003c.037.012.06.031.088.057v.024l.021.011.027.014.023.009c.03.018.048.041.07.068q.05.06.112.108c.034.03.056.058.082.095a.6.6 0 0 0 .075.081q.118.117.223.245a5 5 0 0 1 .2.21l.131.135q.075.082.147.166l.061.066q.072.075.141.153l.063.07.029.032.057.06q.064.066.125.134c.033.038.033.038.075.066l.016.028c.023.036.047.054.081.081l.061.069.079.09.026.029.056.058.103.108.019.021.095.107c.03.036.03.036.059.064l.099.105q.067.076.141.147l.098.109c.018.021.018.021.043.032l.016.028c.023.036.047.054.081.081l.053.062q.038.044.08.083l.083.088.023.024.128.142.075.083q.056.065.107.132c.06.083.06.083.139.145l.015.026c.027.044.061.08.097.117q.07.074.137.152a1 1 0 0 0 .113.109c.035.03.035.03.058.059.039.048.088.1.145.127.035.019.058.046.085.073q.108.09.229.156l.038.026c.039.025.039.025.082.034.129-.084.222-.228.313-.349l.022.011c.027.014.027.014.062.025l.038.079.011.026.035.088.012.031c.189.496.236 1.058.025 1.554a1.33 1.33 0 0 1-.495.569l-.038.025c-.327.203-.788.232-1.161.157a2 2 0 0 1-.269-.089l-.059-.02a1 1 0 0 1-.17-.072l-.035-.016a1 1 0 0 1-.169-.094l-.029-.011a.5.5 0 0 1-.128-.073v-.024l-.03-.007a.4.4 0 0 1-.112-.068 2 2 0 0 0-.124-.087l-.023-.018v-.024l-.027-.009a.3.3 0 0 1-.088-.061l-.028-.026-.058-.058c-.028-.029-.028-.029-.064-.05a.4.4 0 0 1-.096-.097 1 1 0 0 0-.095-.088 1 1 0 0 1-.099-.102l-.078-.088-.053-.059-.023-.026c-.049-.056-.049-.056-.049-.083h-.024l-.036-.06-.053-.065-.029-.035-.045-.054a.6.6 0 0 1-.066-.094c-.021-.04-.021-.04-.047-.065-.027-.027-.042-.055-.06-.088-.012-.022-.012-.022-.037-.044-.023-.024-.023-.024-.041-.065-.02-.047-.046-.077-.079-.116l-.037-.074c-.012-.025-.012-.025-.036-.053a.5.5 0 0 1-.06-.103c-.013-.026-.013-.026-.035-.057a2 2 0 0 1-.098-.171l-.013-.024c-.023-.045-.023-.045-.023-.073l-.093.046-.026.013a1 1 0 0 0-.107.058.3.3 0 0 1-.082.032q-.069.02-.133.049a1 1 0 0 1-.197.062 2 2 0 0 0-.15.042q-.096.03-.196.045a3 3 0 0 0-.155.029 6 6 0 0 1-.597.085l-.048.005c-.856.082-1.709.065-2.565-.01l-.045-.004-.087-.008a4 4 0 0 0-.228-.015c-.141-.006-.28-.028-.419-.048l-.162-.023-.04-.006-.226-.027a3 3 0 0 1-.301-.048l-.099-.019-.025-.005a3 3 0 0 0-.172-.025 2 2 0 0 1-.259-.048 3 3 0 0 0-.24-.048 2 2 0 0 1-.221-.047 6 6 0 0 0-.235-.056 3 3 0 0 1-.211-.056 1 1 0 0 0-.132-.033c-.068-.012-.133-.036-.198-.058a1 1 0 0 0-.127-.038 1.4 1.4 0 0 1-.165-.055l-.059-.022-.028-.011-.098-.033-.122-.044-.033-.011c-.088-.034-.088-.034-.115-.081l-.019-.044-.022-.041a1.3 1.3 0 0 1-.1-.286l-.034-.117c-.028-.089-.045-.181-.063-.273a3 3 0 0 0-.06-.256 1 1 0 0 1-.022-.133 5 5 0 0 0-.058-.327 3 3 0 0 1-.041-.276 3 3 0 0 0-.027-.194l-.009-.057-.005-.029a4 4 0 0 1-.052-.634q.137-.066.279-.118a.4.4 0 0 0 .082-.05l.071-.026a1 1 0 0 0 .094-.054 2 2 0 0 1 .141-.073c.031-.015.031-.015.055-.04l.058-.024c.079-.035.153-.08.226-.127q.077-.048.156-.087a2 2 0 0 0 .15-.087q.113-.068.229-.132.075-.042.147-.089.127-.081.264-.147a1 1 0 0 0 .105-.059c.062-.04.128-.071.194-.103l.027-.013.082-.035.044-.019c.197-.082.333-.05.529.021" fill="#742622" style="stroke-width:.138365px;stroke-opacity:.41" transform="matrix(6.97003 0 0 7.48447 -2156.394 -674.683)"/>
  <path d="m360.35 99.775.005.022.023.098.008.034q.022.094.053.184a.4.4 0 0 1 .017.086q.017.103.05.204.038.126.06.257.018.102.044.201c.075.306.081.558-.024.858q-.03.085-.048.172a2 2 0 0 1-.042.136 2 2 0 0 0-.054.179q-.023.083-.052.165a1 1 0 0 0-.044.184l-.024.12q-.053.24-.076.485l-.017.162c-.051.474-.05.95.017 1.422q.01.072.017.144c.012.128.04.252.069.378l.02.096q.03.156.082.306.019.057.032.115.025.097.064.19.018.05.032.099a1 1 0 0 0 .062.153l.039.099q.046.126.109.245l.05.102.012.025q.075.159.169.304c.011.02.011.02.011.044h.024l.014.037a.5.5 0 0 0 .067.11q.05.072.088.154h.024l.013.03c.027.051.06.093.095.138l.027.035q.086.114.179.222l.094.116q.045.058.098.108.07.068.132.144.064.065.13.125l.019.018a4 4 0 0 0 .176.156q.097.087.202.165.052.039.103.081c.088.072.088.072.182.135q.062.04.121.082c.03.021.03.021.064.04l.026.017v.024l.038.009a.26.26 0 0 1 .106.063l.048.024v.024l.027.004a.3.3 0 0 1 .09.041q.09.055.184.099c.003.027.003.027 0 .06-.108.131-.283.233-.428.319l-.114.075c-.024.015-.024.015-.048.015v.024l-.037.015q-.068.03-.131.068l-.022.013-.114.069c-.138.088-.138.088-.19.088v.024l-.035.014a1 1 0 0 0-.105.056c-.083.051-.17.093-.258.135l-.127.072q-.067.039-.137.072l-.144.078-.064.036-.031.017-.097.053-.166.092-.026.014a.4.4 0 0 0-.088.061l-.062.026a1 1 0 0 0-.095.059h-.024c.007.311.031.619.085.925q.014.075.021.152c.012.096.036.189.06.283q.025.094.038.19c.01.08.034.157.057.234q.027.09.046.182.022.102.055.201.036.118.058.241l.012.06a.5.5 0 0 1-.215-.066l-.088-.036c-.06-.022-.112-.057-.166-.09l-.062-.037a4 4 0 0 1-.256-.166l-.027-.019a3 3 0 0 1-.173-.132l-.068-.048-.029-.02v-.024l-.021-.011-.027-.014-.023-.01c-.034-.02-.057-.047-.085-.074l-.067-.062-.019-.017-.059-.054-.078-.071-.035-.031-.064-.062a.4.4 0 0 0-.071-.057.5.5 0 0 1-.102-.103 1 1 0 0 0-.096-.089.6.6 0 0 1-.09-.094l-.079-.082-.067-.073c-.046-.05-.046-.05-.094-.098-.02-.021-.02-.021-.02-.045l-.02-.008c-.038-.022-.064-.052-.093-.084l-.018-.02a2 2 0 0 1-.108-.134.4.4 0 0 0-.051-.056l-.031-.038c-.025-.035-.025-.035-.053-.047l-.035-.064c-.016-.026-.036-.039-.061-.057l-.036-.06-.059-.078-.016-.02-.07-.089a3 3 0 0 1-.093-.126l-.052-.071c-.071-.096-.071-.096-.097-.144-.02-.038-.02-.038-.045-.067a.5.5 0 0 1-.06-.104c-.012-.025-.012-.025-.036-.053-.026-.033-.042-.066-.06-.103-.012-.025-.012-.025-.037-.054a.3.3 0 0 1-.049-.089c-.04-.093-.095-.179-.148-.265a1 1 0 0 1-.046-.108 2 2 0 0 0-.056-.12l-.013-.025-.055-.107a1.4 1.4 0 0 1-.078-.185l-.043-.101a1 1 0 0 1-.056-.154 1 1 0 0 0-.041-.104 1 1 0 0 1-.041-.123c-.01-.052-.029-.1-.048-.15a1.3 1.3 0 0 1-.064-.225 2 2 0 0 0-.039-.144 2 2 0 0 1-.052-.227 4 4 0 0 0-.052-.253 2 2 0 0 1-.036-.229 4 4 0 0 0-.026-.191c-.136-.875-.157-1.808.015-2.679q.016-.08.027-.164.018-.12.048-.239c.026-.11.026-.11.048-.222q.02-.099.048-.198.029-.094.048-.193.019-.09.047-.178.031-.097.056-.198.027-.103.063-.205.018-.057.032-.114.02-.072.047-.142a5 5 0 0 0 .068-.202c.048-.161.107-.319.169-.475l.032-.083q.023-.06.049-.121c.016-.036.016-.036.027-.07q.02-.063.049-.123l.018-.042.019-.043.018-.043.048-.107.048-.11a1 1 0 0 1 .063-.12c.017-.03.017-.03.033-.069q.164-.366.428-.67l.021-.025a.3.3 0 0 1 .159-.094q.08-.03.156-.069c.037-.015.037-.015.072-.021.046-.008.083-.027.124-.047a1 1 0 0 1 .185-.071 1 1 0 0 0 .095-.039 1 1 0 0 1 .126-.048c.057-.016.108-.039.161-.064q.055-.024.112-.041.05-.017.097-.038.102-.041.206-.077a1 1 0 0 0 .111-.051l.056-.02.027-.009c.026-.007.026-.007.074-.007" fill="#b63334" style="stroke-width:.138365px;stroke-opacity:.41" transform="matrix(6.97003 0 0 7.48447 -2156.394 -674.683)"/>
</svg>
