<?xml version="1.0" encoding="utf-8"?>
<svg xmlns="http://www.w3.org/2000/svg" xmlns:bx="https://boxy-svg.com">
  <path d="M 0.964 -0.163 C 366.88 -0.163 732.802 -0.163 1109.81 -0.163 C 1109.81 122.889 1109.81 245.94 1109.81 372.721 C 743.891 372.721 377.966 372.721 0.964 372.721 C 0.964 249.669 0.964 126.617 0.964 -0.163 Z" fill="#FEFEFE" style="stroke-width: 2px; visibility: hidden;"/>
  <path d="M 171.839 19.733 C 178.159 25.322 183.269 34.956 184.899 43.279 C 184.989 45.184 185.019 47.092 185.019 48.999 C 185.019 50.749 185.019 50.749 185.019 52.535 C 185.019 53.811 185.009 55.087 185.009 56.402 C 185.009 57.762 185.009 59.122 185.009 60.482 C 185.009 64.172 185.009 67.861 184.998 71.551 C 184.989 75.408 184.989 79.265 184.989 83.122 C 184.989 90.425 184.979 97.728 184.968 105.03 C 184.959 113.345 184.949 121.659 184.949 129.973 C 184.938 147.075 184.919 164.177 184.899 181.279 C 167.339 181.35 149.779 181.402 132.218 181.435 C 124.059 181.45 115.909 181.471 107.759 181.506 C 100.649 181.536 93.539 181.555 86.429 181.562 C 82.669 181.566 78.899 181.575 75.138 181.597 C 71.589 181.617 68.049 181.623 64.499 181.619 C 62.589 181.62 60.679 181.636 58.769 181.653 C 45.709 181.606 34.889 178.026 25.149 169.092 C 16.319 159.68 13.429 148.594 13.659 135.994 C 14.339 125.505 18.749 116.358 26.259 108.947 C 34.419 102.105 42.689 98.141 53.419 98.166 C 54.499 98.166 55.579 98.166 56.699 98.166 C 58.429 98.174 58.429 98.174 60.199 98.182 C 61.989 98.184 61.989 98.184 63.809 98.186 C 67.609 98.192 71.409 98.204 75.209 98.217 C 77.789 98.222 80.369 98.227 82.949 98.231 C 89.259 98.242 95.578 98.258 101.899 98.279 C 101.888 97.633 101.888 96.987 101.879 96.321 C 101.839 89.572 101.809 82.824 101.789 76.075 C 101.779 73.559 101.759 71.043 101.748 68.527 C 101.718 64.903 101.709 61.279 101.699 57.654 C 101.688 56.536 101.679 55.418 101.669 54.266 C 101.669 41.865 104.869 30.385 113.399 20.967 C 130.739 4.932 153.748 6.166 171.839 19.733 Z" fill="#D4D642" style="stroke-width: 1px;"/>
  <path d="M 64.329 191.052 C 65.639 191.052 66.949 191.052 68.299 191.051 C 71.858 191.051 75.409 191.063 78.968 191.077 C 82.699 191.089 86.429 191.09 90.159 191.093 C 97.199 191.099 104.248 191.115 111.299 191.135 C 119.328 191.158 127.358 191.169 135.388 191.179 C 151.888 191.2 168.388 191.235 184.899 191.279 C 184.989 208.787 185.059 226.295 185.108 243.802 C 185.119 251.933 185.149 260.063 185.199 268.193 C 185.239 275.285 185.259 282.376 185.269 289.468 C 185.279 293.218 185.289 296.968 185.319 300.718 C 185.349 304.258 185.358 307.798 185.349 311.338 C 185.349 313.236 185.369 315.134 185.388 317.031 C 185.328 330.335 181.849 341.327 172.899 351.279 C 163.188 360.465 152.169 362.79 139.229 362.549 C 128.858 362.093 120.489 357.14 112.899 350.279 C 103.409 339.372 101.729 328.347 101.799 314.318 C 101.799 313.173 101.799 312.027 101.799 310.847 C 101.809 307.199 101.819 303.552 101.839 299.904 C 101.839 297.427 101.849 294.949 101.849 292.471 C 101.858 286.407 101.879 280.343 101.899 274.279 C 101.229 274.286 100.559 274.293 99.879 274.3 C 92.899 274.366 85.929 274.411 78.949 274.444 C 76.349 274.459 73.748 274.48 71.149 274.506 C 67.399 274.542 63.649 274.559 59.909 274.572 C 58.179 274.596 58.179 274.596 56.419 274.619 C 43.319 274.622 33.919 270.888 24.209 262.154 C 15.759 253.292 12.319 241.386 12.589 229.424 C 13.659 218.42 18.849 208.913 26.909 201.401 C 28.849 199.881 30.789 198.554 32.899 197.279 C 33.529 196.891 34.169 196.503 34.829 196.104 C 44.049 191.011 54.039 190.992 64.329 191.052 Z" fill="#00AEAC" style="stroke-width: 1px;"/>
  <path d="M 258.949 15.045 C 269.209 22.101 275.919 31.44 278.498 43.661 C 279.248 48.603 279.139 53.545 279.088 58.533 C 279.088 59.675 279.088 60.816 279.079 61.992 C 279.069 65.609 279.049 69.225 279.019 72.842 C 279.009 75.306 278.998 77.77 278.989 80.235 C 278.968 86.25 278.938 92.264 278.898 98.279 C 279.539 98.273 280.178 98.266 280.838 98.259 C 287.558 98.193 294.269 98.147 300.989 98.115 C 303.489 98.1 305.998 98.079 308.498 98.053 C 312.109 98.016 315.718 98 319.329 97.986 C 320.428 97.971 321.539 97.955 322.678 97.94 C 334.898 97.937 345.148 101.254 354.349 109.471 C 363.019 118.41 367.259 129.127 367.118 141.529 C 366.188 153.123 361.269 163.304 352.898 171.279 C 344.519 178.062 334.979 181.41 324.209 181.4 C 323.079 181.401 321.938 181.402 320.769 181.404 C 318.919 181.398 318.919 181.398 317.028 181.393 C 315.718 181.393 314.409 181.393 313.069 181.393 C 309.489 181.394 305.909 181.388 302.329 181.381 C 298.588 181.375 294.849 181.374 291.109 181.373 C 284.019 181.37 276.938 181.361 269.859 181.351 C 261.789 181.34 253.729 181.335 245.659 181.33 C 229.069 181.319 212.489 181.302 195.899 181.279 C 195.799 163.346 195.729 145.413 195.688 127.479 C 195.669 119.152 195.638 110.824 195.599 102.496 C 195.559 95.234 195.529 87.972 195.519 80.71 C 195.519 76.868 195.498 73.026 195.479 69.185 C 195.449 65.561 195.438 61.937 195.438 58.313 C 195.438 56.365 195.419 54.417 195.399 52.469 C 195.449 42.21 197.558 33.531 203.898 25.279 C 204.979 23.794 204.979 23.794 206.088 22.279 C 219.259 7.03 242.088 5.288 258.949 15.045 Z" fill="#00AFAC" style="stroke-width: 1px;"/>
  <path d="M 195.899 191.279 C 212.919 191.233 229.938 191.197 246.959 191.176 C 254.859 191.166 262.769 191.151 270.669 191.129 C 277.558 191.109 284.459 191.096 291.349 191.091 C 294.998 191.089 298.639 191.083 302.289 191.068 C 306.368 191.052 310.449 191.051 314.528 191.052 C 315.729 191.045 316.919 191.038 318.148 191.031 C 332.428 191.065 344.569 193.632 355.338 203.604 C 362.739 211.58 367.009 221.429 367.329 232.342 C 366.819 245.003 362.069 256.074 352.739 264.752 C 342.759 273.033 332.618 274.744 319.889 274.572 C 318.079 274.566 318.079 274.566 316.229 274.56 C 312.409 274.543 308.588 274.505 304.769 274.467 C 302.169 274.452 299.558 274.438 296.959 274.426 C 290.609 274.393 284.248 274.343 277.898 274.279 C 277.909 275.302 277.909 275.302 277.919 276.345 C 277.979 283.467 278.028 290.589 278.058 297.711 C 278.079 300.366 278.099 303.02 278.118 305.675 C 278.159 309.5 278.178 313.325 278.188 317.151 C 278.209 318.329 278.218 319.507 278.239 320.722 C 278.239 332.438 275.058 342.451 267.079 351.291 C 257.489 360.224 246.329 363.768 233.389 363.522 C 222.349 362.756 212.618 357.557 205.019 349.529 C 199.169 342.326 195.769 333.764 195.779 324.521 C 195.779 323.346 195.769 322.171 195.769 320.961 C 195.779 319.675 195.779 318.39 195.779 317.066 C 195.779 315.696 195.779 314.326 195.779 312.955 C 195.779 309.239 195.789 305.522 195.799 301.806 C 195.799 297.921 195.799 294.036 195.799 290.15 C 195.809 282.795 195.809 275.439 195.819 268.083 C 195.839 259.708 195.839 251.334 195.849 242.959 C 195.858 225.732 195.869 208.506 195.899 191.279 Z" fill="#00AEAC" style="stroke-width: 1px;"/>
  <path d="M 79.549 16.49 C 88.699 23.452 95.319 33.79 96.899 45.279 C 97.998 56.861 95.039 68.064 87.899 77.279 C 79.959 86.132 70.149 91.45 58.239 92.518 C 46.719 92.818 36.489 90.155 27.899 82.279 C 27.279 81.755 26.669 81.23 26.029 80.69 C 18.379 73.72 14.459 64.316 13.639 54.092 C 13.279 43.344 15.149 33.603 22.139 25.154 C 37.859 8.416 59.389 3.5 79.549 16.49 Z" fill="#D4D643" style="stroke-width: 1px;"/>
  <text style="fill: rgb(80, 80, 80); font-family: &quot;Fredoka&quot;; font-size: 28px; paint-order: stroke; stroke: rgb(248, 249, 246); stroke-width: 1.56267px; white-space: pre;" transform="matrix(4.285099, 0, 0, 8.513522, -1804.465332, -3102.560303)" x="524.095" y="395.788">SATUSEHAT</text>
  <defs>
    <style bx:fonts="Fredoka">@import url(https://fonts.googleapis.com/css2?family=Fredoka%3Aital%2Cwght%400%2C300..700&amp;display=swap);</style>
  </defs>
</svg>